<svg width="510" height="44" viewBox="0 0 510 44" version="1.1" xmlns="http://www.w3.org/2000/svg" xmlns:xlink="http://www.w3.org/1999/xlink">
<title>#Cultivate it!</title>
<desc>Created using Figma</desc>
<g id="Canvas" transform="translate(-2155 -3640)">
<g id="#Cultivate it!">
<use xlink:href="#path0_fill" transform="translate(2153 3635)" fill="#8FC7E8"/>
</g>
</g>
<defs>
<path id="path0_fill" d="M 36.9 33.24L 29.82 33.24L 31.98 20.52L 39.24 20.52L 39.24 16.38L 32.7 16.38L 34.5 6L 30.3 6L 28.5 16.38L 17.04 16.38L 18.84 6L 14.64 6L 12.84 16.38L 5.04 16.38L 5.04 20.52L 12.12 20.52L 9.96 33.24L 2.7 33.24L 2.7 37.38L 9.24 37.38L 7.44 48L 11.64 48L 13.44 37.38L 24.9 37.38L 23.1 48L 27.3 48L 29.1 37.38L 36.9 37.38L 36.9 33.24ZM 16.38 20.46L 27.78 20.46L 25.62 33.3L 14.16 33.3L 16.38 20.46ZM 70.7517 48.72C 78.3717 48.72 83.1717 45.78 87.5517 41.34L 84.4317 38.28C 80.4117 42.12 76.6317 44.34 70.8717 44.34C 61.6317 44.34 54.6117 36.72 54.6117 27L 54.6117 26.88C 54.6117 17.22 61.5717 9.66 70.8717 9.66C 76.5717 9.66 80.5317 12.06 84.0717 15.42L 87.3117 11.94C 83.1117 7.98 78.5517 5.28 70.9317 5.28C 58.5717 5.28 49.6917 15.12 49.6917 27L 49.6917 27.12C 49.6917 39.18 58.6317 48.72 70.7517 48.72ZM 116.249 48.66C 126.749 48.66 133.769 42.3 133.769 30.06L 133.769 6L 129.029 6L 129.029 30.42C 129.029 39.6 124.109 44.28 116.369 44.28C 108.389 44.28 103.529 39.18 103.529 30.12L 103.529 6L 98.7886 6L 98.7886 30.42C 98.7886 42.3 105.869 48.66 116.249 48.66ZM 148.576 48L 176.956 48L 176.956 43.62L 153.316 43.62L 153.316 6L 148.576 6L 148.576 48ZM 194.448 48L 199.248 48L 199.248 10.38L 213.348 10.38L 213.348 6L 180.348 6L 180.348 10.38L 194.448 10.38L 194.448 48ZM 226.274 48L 231.014 48L 231.014 6L 226.274 6L 226.274 48ZM 261.375 48.3L 265.575 48.3L 283.635 6L 278.535 6L 263.535 42.18L 248.595 6L 243.315 6L 261.375 48.3ZM 285.938 48L 290.798 48L 295.778 36.9L 318.638 36.9L 323.558 48L 328.658 48L 309.518 5.7L 305.078 5.7L 285.938 48ZM 297.638 32.58L 307.238 11.22L 316.778 32.58L 297.638 32.58ZM 346.25 48L 351.05 48L 351.05 10.38L 365.15 10.38L 365.15 6L 332.15 6L 332.15 10.38L 346.25 10.38L 346.25 48ZM 377.656 48L 408.316 48L 408.316 43.68L 382.396 43.68L 382.396 28.98L 405.316 28.98L 405.316 24.66L 382.396 24.66L 382.396 10.32L 408.016 10.32L 408.016 6L 377.656 6L 377.656 48ZM 443.46 48L 448.2 48L 448.2 6L 443.46 6L 443.46 48ZM 475.201 48L 480.001 48L 480.001 10.38L 494.101 10.38L 494.101 6L 461.101 6L 461.101 10.38L 475.201 10.38L 475.201 48ZM 507.507 36.12L 510.087 36.12L 511.527 9.36L 511.527 6L 506.127 6L 506.127 9.36L 507.507 36.12ZM 506.067 48L 511.587 48L 511.587 41.7L 506.067 41.7L 506.067 48Z"/>
</defs>
</svg>
