<svg width="716" height="188" viewBox="0 0 716 188" version="1.1" xmlns="http://www.w3.org/2000/svg" xmlns:xlink="http://www.w3.org/1999/xlink">
<title>Founded on the science of beauty.</title>
<desc>Created using Figma</desc>
<g id="Canvas" transform="translate(-2427 -199)">
<g id="Founded on the science of beauty.">
<use xlink:href="#path0_fill" transform="translate(2424 194)" fill="#8FC7E8"/>
</g>
</g>
<defs>
<path id="path0_fill" d="M 5.94 48L 10.68 48L 10.68 29.7L 33.42 29.7L 33.42 25.38L 10.68 25.38L 10.68 10.38L 36.12 10.38L 36.12 6L 5.94 6L 5.94 48ZM 67.5361 48.72C 80.3161 48.72 89.0161 38.58 89.0161 27L 89.0161 26.88C 89.0161 15.3 80.4361 5.28 67.6561 5.28C 54.8761 5.28 46.1761 15.42 46.1761 27L 46.1761 27.12C 46.1761 38.7 54.7561 48.72 67.5361 48.72ZM 67.6561 44.34C 58.0561 44.34 51.0961 36.54 51.0961 27L 51.0961 26.88C 51.0961 17.34 57.9361 9.66 67.5361 9.66C 77.1361 9.66 84.0961 17.46 84.0961 27L 84.0961 27.12C 84.0961 36.66 77.2561 44.34 67.6561 44.34ZM 119.413 48.66C 129.913 48.66 136.933 42.3 136.933 30.06L 136.933 6L 132.193 6L 132.193 30.42C 132.193 39.6 127.273 44.28 119.533 44.28C 111.553 44.28 106.693 39.18 106.693 30.12L 106.693 6L 101.953 6L 101.953 30.42C 101.953 42.3 109.033 48.66 119.413 48.66ZM 151.74 48L 156.36 48L 156.36 13.56L 183.48 48L 187.26 48L 187.26 6L 182.64 6L 182.64 39.66L 156.18 6L 151.74 6L 151.74 48ZM 202.742 48L 217.322 48C 230.522 48 239.642 38.82 239.642 27L 239.642 26.88C 239.642 15.06 230.522 6 217.322 6L 202.742 6L 202.742 48ZM 217.322 10.38C 227.942 10.38 234.722 17.7 234.722 27L 234.722 27.12C 234.722 36.42 227.942 43.62 217.322 43.62L 207.482 43.62L 207.482 10.38L 217.322 10.38ZM 253.276 48L 283.936 48L 283.936 43.68L 258.016 43.68L 258.016 28.98L 280.936 28.98L 280.936 24.66L 258.016 24.66L 258.016 10.32L 283.636 10.32L 283.636 6L 253.276 6L 253.276 48ZM 297.071 48L 311.651 48C 324.851 48 333.971 38.82 333.971 27L 333.971 26.88C 333.971 15.06 324.851 6 311.651 6L 297.071 6L 297.071 48ZM 311.651 10.38C 322.271 10.38 329.051 17.7 329.051 27L 329.051 27.12C 329.051 36.42 322.271 43.62 311.651 43.62L 301.811 43.62L 301.811 10.38L 311.651 10.38ZM 25.44 120.72C 38.22 120.72 46.92 110.58 46.92 99L 46.92 98.88C 46.92 87.3 38.34 77.28 25.56 77.28C 12.78 77.28 4.08 87.42 4.08 99L 4.08 99.12C 4.08 110.7 12.66 120.72 25.44 120.72ZM 25.56 116.34C 15.96 116.34 9 108.54 9 99L 9 98.88C 9 89.34 15.84 81.66 25.44 81.66C 35.04 81.66 42 89.46 42 99L 42 99.12C 42 108.66 35.16 116.34 25.56 116.34ZM 60.5166 120L 65.1366 120L 65.1366 85.56L 92.2566 120L 96.0366 120L 96.0366 78L 91.4166 78L 91.4166 111.66L 64.9566 78L 60.5166 78L 60.5166 120ZM 144.207 120L 149.007 120L 149.007 82.38L 163.107 82.38L 163.107 78L 130.107 78L 130.107 82.38L 144.207 82.38L 144.207 120ZM 175.613 120L 180.353 120L 180.353 101.1L 204.593 101.1L 204.593 120L 209.333 120L 209.333 78L 204.593 78L 204.593 96.66L 180.353 96.66L 180.353 78L 175.613 78L 175.613 120ZM 224.799 120L 255.459 120L 255.459 115.68L 229.539 115.68L 229.539 100.98L 252.459 100.98L 252.459 96.66L 229.539 96.66L 229.539 82.32L 255.159 82.32L 255.159 78L 224.799 78L 224.799 120ZM 20.34 192.6C 28.68 192.6 34.68 187.92 34.68 180.72L 34.68 180.6C 34.68 174.18 30.36 170.76 21 168.72C 11.76 166.74 9.6 164.52 9.6 160.56L 9.6 160.44C 9.6 156.66 13.08 153.66 18.54 153.66C 22.86 153.66 26.76 155.04 30.66 158.22L 33.42 154.56C 29.16 151.14 24.78 149.4 18.66 149.4C 10.68 149.4 4.86 154.26 4.86 160.86L 4.86 160.98C 4.86 167.88 9.3 171 18.96 173.1C 27.78 174.96 29.88 177.18 29.88 181.08L 29.88 181.2C 29.88 185.34 26.16 188.34 20.52 188.34C 14.7 188.34 10.5 186.36 6.12 182.4L 3.18 185.88C 8.22 190.38 13.68 192.6 20.34 192.6ZM 67.1189 192.72C 74.7389 192.72 79.5389 189.78 83.9189 185.34L 80.7989 182.28C 76.7789 186.12 72.9989 188.34 67.2389 188.34C 57.9989 188.34 50.9789 180.72 50.9789 171L 50.9789 170.88C 50.9789 161.22 57.9389 153.66 67.2389 153.66C 72.9389 153.66 76.8989 156.06 80.4389 159.42L 83.6789 155.94C 79.4789 151.98 74.9189 149.28 67.2989 149.28C 54.9389 149.28 46.0589 159.12 46.0589 171L 46.0589 171.12C 46.0589 183.18 54.9989 192.72 67.1189 192.72ZM 96.2358 192L 100.976 192L 100.976 150L 96.2358 150L 96.2358 192ZM 116.877 192L 147.537 192L 147.537 187.68L 121.617 187.68L 121.617 172.98L 144.537 172.98L 144.537 168.66L 121.617 168.66L 121.617 154.32L 147.237 154.32L 147.237 150L 116.877 150L 116.877 192ZM 160.672 192L 165.292 192L 165.292 157.56L 192.412 192L 196.192 192L 196.192 150L 191.572 150L 191.572 183.66L 165.112 150L 160.672 150L 160.672 192ZM 230.874 192.72C 238.494 192.72 243.294 189.78 247.674 185.34L 244.554 182.28C 240.534 186.12 236.754 188.34 230.994 188.34C 221.754 188.34 214.734 180.72 214.734 171L 214.734 170.88C 214.734 161.22 221.694 153.66 230.994 153.66C 236.694 153.66 240.654 156.06 244.194 159.42L 247.434 155.94C 243.234 151.98 238.674 149.28 231.054 149.28C 218.694 149.28 209.814 159.12 209.814 171L 209.814 171.12C 209.814 183.18 218.754 192.72 230.874 192.72ZM 259.571 192L 290.231 192L 290.231 187.68L 264.311 187.68L 264.311 172.98L 287.231 172.98L 287.231 168.66L 264.311 168.66L 264.311 154.32L 289.931 154.32L 289.931 150L 259.571 150L 259.571 192ZM 344.455 192.72C 357.235 192.72 365.935 182.58 365.935 171L 365.935 170.88C 365.935 159.3 357.355 149.28 344.575 149.28C 331.795 149.28 323.095 159.42 323.095 171L 323.095 171.12C 323.095 182.7 331.675 192.72 344.455 192.72ZM 344.575 188.34C 334.975 188.34 328.015 180.54 328.015 171L 328.015 170.88C 328.015 161.34 334.855 153.66 344.455 153.66C 354.055 153.66 361.015 161.46 361.015 171L 361.015 171.12C 361.015 180.66 354.175 188.34 344.575 188.34ZM 379.531 192L 384.271 192L 384.271 173.7L 407.011 173.7L 407.011 169.38L 384.271 169.38L 384.271 154.38L 409.711 154.38L 409.711 150L 379.531 150L 379.531 192ZM 444.095 192L 462.755 192C 471.935 192 477.995 187.74 477.995 180.54L 477.995 180.42C 477.995 174.66 473.975 171.78 468.995 170.28C 472.295 168.84 475.655 166.02 475.655 160.56L 475.655 160.44C 475.655 157.74 474.695 155.52 472.955 153.72C 470.555 151.38 466.775 150 461.975 150L 444.095 150L 444.095 192ZM 470.855 161.22C 470.855 166.14 466.895 168.72 461.195 168.72L 448.775 168.72L 448.775 154.26L 461.555 154.26C 467.555 154.26 470.855 156.96 470.855 161.1L 470.855 161.22ZM 473.195 180.12L 473.195 180.24C 473.195 184.92 469.235 187.74 462.875 187.74L 448.775 187.74L 448.775 172.92L 462.035 172.92C 469.355 172.92 473.195 175.56 473.195 180.12ZM 490.995 192L 521.655 192L 521.655 187.68L 495.735 187.68L 495.735 172.98L 518.655 172.98L 518.655 168.66L 495.735 168.66L 495.735 154.32L 521.355 154.32L 521.355 150L 490.995 150L 490.995 192ZM 531.191 192L 536.051 192L 541.031 180.9L 563.891 180.9L 568.811 192L 573.911 192L 554.771 149.7L 550.331 149.7L 531.191 192ZM 542.891 176.58L 552.491 155.22L 562.031 176.58L 542.891 176.58ZM 601.07 192.66C 611.57 192.66 618.59 186.3 618.59 174.06L 618.59 150L 613.85 150L 613.85 174.42C 613.85 183.6 608.93 188.28 601.19 188.28C 593.21 188.28 588.35 183.18 588.35 174.12L 588.35 150L 583.61 150L 583.61 174.42C 583.61 186.3 590.69 192.66 601.07 192.66ZM 644.497 192L 649.297 192L 649.297 154.38L 663.397 154.38L 663.397 150L 630.397 150L 630.397 154.38L 644.497 154.38L 644.497 192ZM 689.043 192L 693.843 192L 693.843 175.32L 711.303 150L 705.783 150L 691.503 171L 677.343 150L 671.583 150L 689.043 175.38L 689.043 192ZM 713.339 192L 718.859 192L 718.859 185.7L 713.339 185.7L 713.339 192Z"/>
</defs>
</svg>
