<svg width="100%" height="217" viewBox="0 0 1266 217" version="1.1" xmlns="http://www.w3.org/2000/svg" xmlns:xlink="http://www.w3.org/1999/xlink">
    <style type="text/css">
        <![CDATA[
          @keyframes changeColor {
          0% {
            fill: #FFFFFF;
          }
          25% {
            fill: #fce9dd;
          }
          50% {
            fill: #8bc7ea;
          }
          75% {
            fill: #fce9dd;
          }
          100% {
            fill: #FFFFFF;
          }
        }

        path {
          -webkit-animation: changeColor 3s step-end;
          animation: changeColor 3s step-end;
          z-index: 200;
        }
  ]]>
    </style>
<title>landing-hero-it</title>
<desc>Created using Figma</desc>
<g id="Canvas" transform="translate(1923 -5214)">
<g id="landing-hero-it">
<g id="Vector">
<use xlink:href="#path0_fill" transform="translate(-756.104 5215.27)" fill="#FFFFFF"/>
</g>
<g id="Vector">
<use xlink:href="#path1_fill" transform="translate(-959.759 5215.27)" fill="#FFFFFF"/>
</g>
<g id="Vector">
<use xlink:href="#path2_fill" transform="translate(-1036.97 5215.27)" fill="#FFFFFF"/>
</g>
<g id="Vector">
<use xlink:href="#path3_fill" transform="translate(-1240.62 5215.27)" fill="#FFFFFF"/>
</g>
<g id="Vector">
<use xlink:href="#path4_fill" transform="translate(-1415.1 5214.42)" fill="#FFFFFF"/>
</g>
<g id="Vector">
<use xlink:href="#path5_fill" transform="translate(-1565.8 5215.27)" fill="#FFFFFF"/>
</g>
<g id="Vector">
<use xlink:href="#path6_fill" transform="translate(-1727.32 5215.27)" fill="#FFFFFF"/>
</g>
<g id="Vector">
<use xlink:href="#path7_fill" transform="translate(-1923 5214)" fill="#FFFFFF"/>
</g>
<g id="Vai oltre ci&#195;&#178; che vedi">
<use xlink:href="#path8_fill" transform="translate(-1917 5393)" fill="#FFFFFF"/>
</g>
</g>
</g>
<defs>
<path id="path0_fill" d="M 21.5076 20.7099L 21.5076 66.3563L 64.523 66.3563C 66.2099 66.3563 67.8967 67.6243 67.8967 69.7376L 67.8967 83.6851C 67.8967 85.7983 66.6316 87.0663 64.523 87.0663L 21.5076 87.0663L 21.5076 130.177L 95.7301 130.177C 97.417 130.177 99.104 131.445 99.104 133.558L 99.104 147.506C 99.104 149.196 97.8387 150.887 95.7301 150.887L 3.37375 150.887C 1.68688 150.887 5.14794e-05 149.619 5.14794e-05 147.506L 5.14794e-05 2.95856C 5.14794e-05 1.26796 1.26513 5.0384e-08 2.95201 5.0384e-08L 95.7301 5.0384e-08C 97.417 5.0384e-08 99.104 1.26796 99.104 2.95856L 99.104 17.3287C 99.104 19.0193 97.8387 20.2873 95.7301 20.2873L 21.5076 20.2873L 21.5076 20.7099Z"/>
<path id="path1_fill" d="M 146.722 3.80387L 77.5605 148.773C 77.1388 150.041 75.8736 151.309 74.1867 151.309L 72.4999 151.309C 70.813 151.309 69.5478 150.041 69.1261 148.773L 0.385922 3.80387C -0.879235 1.69061 1.22939 5.0384e-08 2.91626 5.0384e-08L 21.8936 5.0384e-08C 23.5805 5.0384e-08 24.4239 1.69061 25.2673 3.38122L 73.765 109.044L 122.263 3.38122C 123.106 1.69061 123.95 5.0384e-08 125.636 5.0384e-08L 144.614 5.0384e-08C 146.301 5.0384e-08 147.988 1.69061 146.722 3.80387Z"/>
<path id="path2_fill" d="M 17.7122 5.0384e-08C 19.3991 5.0384e-08 20.6642 1.26796 20.6642 2.95856L 20.6642 147.083C 20.6642 148.773 19.3991 150.464 17.7122 150.464L 3.37372 150.464C 1.68685 150.464 2.57397e-05 149.196 2.57397e-05 147.083L 2.57397e-05 2.95856C 2.57397e-05 1.26796 1.26517 5.0384e-08 2.95204 5.0384e-08L 17.7122 5.0384e-08L 17.7122 5.0384e-08Z"/>
<path id="path3_fill" d="M 146.722 3.80387L 77.5605 148.773C 77.1387 150.041 75.8736 151.309 74.1867 151.309L 72.4998 151.309C 70.813 151.309 69.5478 150.041 69.1261 148.773L 0.385896 3.80387C -0.879261 1.69061 1.22936 5.0384e-08 2.91624 5.0384e-08L 21.8936 5.0384e-08C 23.5805 5.0384e-08 24.4239 1.69061 25.2673 3.38122L 73.765 109.044L 122.263 3.38122C 123.106 1.69061 123.95 5.0384e-08 125.636 5.0384e-08L 144.614 5.0384e-08C 146.301 5.0384e-08 147.988 1.69061 146.722 3.80387Z"/>
<path id="path4_fill" d="M 147.027 151.309L 130.158 151.309C 128.471 151.309 127.628 150.464 126.784 149.196L 114.976 124.682L 34.006 124.682L 22.6196 149.196C 21.7761 150.464 20.9327 151.309 19.2458 151.309L 2.37706 151.309C 0.690185 151.309 -0.574972 149.619 0.268466 147.928L 71.1172 1.69061C 71.539 0.422652 72.8041 6.298e-09 73.6475 6.298e-09L 76.1779 6.298e-09C 77.0213 6.298e-09 77.8648 0.422652 78.7082 1.69061L 149.135 147.928C 149.557 149.619 149.135 151.309 147.027 151.309ZM 105.698 105.24L 74.491 38.884L 43.2838 105.24L 105.698 105.24Z"/>
<path id="path5_fill" d="M 94.0433 133.135L 94.0433 147.506C 94.0433 149.196 92.7782 150.464 91.0913 150.464L 2.53033 150.464C 0.843451 150.464 -1.28698e-05 149.196 -1.28698e-05 147.506L -1.28698e-05 2.95856C -1.28698e-05 1.26796 1.26516 5.0384e-08 2.95204 5.0384e-08L 18.1339 5.0384e-08C 19.8208 5.0384e-08 21.0859 1.26796 21.0859 2.95856L 21.0859 129.754L 90.6695 129.754C 92.7781 129.754 94.0433 131.022 94.0433 133.135Z"/>
<path id="path6_fill" d="M 21.0859 20.7099L 21.0859 66.3563L 64.1013 66.3563C 65.7881 66.3563 67.475 67.6243 67.475 69.7376L 67.475 83.6851C 67.475 85.7983 66.2099 87.0663 64.1013 87.0663L 21.0859 87.0663L 21.0859 130.177L 95.3085 130.177C 96.9953 130.177 98.6822 131.445 98.6822 133.558L 98.6822 147.506C 98.6822 149.196 97.4171 150.887 95.3085 150.887L 3.37375 150.887C 1.68688 150.887 6.43492e-06 149.619 6.43492e-06 147.506L 6.43492e-06 2.95856C 6.43492e-06 1.26796 1.26515 5.0384e-08 2.95203 5.0384e-08L 95.7302 5.0384e-08C 97.417 5.0384e-08 99.1039 1.26796 99.1039 2.95856L 99.1039 17.3287C 99.1039 19.0193 97.8388 20.2873 95.7302 20.2873L 21.0859 20.2873L 21.0859 20.7099Z"/>
<path id="path7_fill" d="M 131.576 129.331C 117.66 144.124 98.6822 153 76.3311 153C 34.5809 153 0 119.61 0 76.9227C 0 34.2348 34.5809 0 76.3311 0C 98.2605 0 118.081 8.87569 131.998 23.6685C 133.685 25.3591 133.685 27.0497 131.998 28.3177L 120.19 38.0387C 118.503 39.3066 117.238 39.3066 115.973 38.0387C 107.96 29.5856 94.0433 20.7099 77.1745 20.7099C 43.0153 20.2873 21.0859 48.605 21.0859 76.9227C 21.0859 105.24 43.0153 132.713 76.7528 132.713C 93.6216 132.713 107.117 124.26 115.129 115.807C 116.816 114.116 118.081 114.116 119.768 114.961L 131.576 124.682C 133.263 125.95 133.263 127.641 131.576 129.331Z"/>
<path id="path8_fill" d="M 397.684 37.1L 398.434 37.3L 423.384 3.8C 424.184 2.75 424.434 2.6 425.984 2.6L 426.184 1.8L 419.184 1.8L 418.984 2.6C 420.384 2.6 422.334 2.7 422.334 3.45C 422.334 4 421.984 4.45 421.484 5.1L 404.034 28.7L 403.934 28.5L 408.184 2.6L 413.434 2.6L 413.584 1.8L 399.734 1.8L 399.534 2.6L 403.334 2.6L 397.684 37.1ZM 424.133 32.8C 424.133 28.95 427.083 16.2 433.483 16.2C 436.583 16.2 438.083 18.85 438.083 20.65C 438.083 21.65 437.083 24 435.833 28.1C 434.433 32.75 431.983 36.8 427.733 36.8C 425.483 36.8 424.133 35.45 424.133 32.8ZM 443.483 16.5L 439.633 16.5L 438.683 19.55L 438.583 19.55C 438.233 18.05 436.933 15.4 433.683 15.4C 427.433 15.4 420.233 22.1 420.233 29.1C 420.233 33.75 422.933 37.6 427.683 37.6C 430.583 37.6 433.383 35.15 434.583 33.1L 434.683 33.1C 434.733 34.65 434.883 37.6 438.283 37.6C 441.483 37.6 443.683 33.5 444.333 32.6L 443.833 32.1C 443.133 33.05 440.933 36.4 439.183 36.4C 438.383 36.4 437.983 35.8 437.983 35C 437.983 34.2 438.283 33.2 438.533 32.4L 443.483 16.5ZM 451.316 17.3L 454.516 17.3L 450.266 30.95C 449.966 32 449.616 33 449.616 33.95C 449.616 36.4 451.466 37.3 453.066 37.3C 456.966 37.3 459.916 33.3 460.566 32.2L 459.966 31.8C 459.366 32.7 457.066 36.1 454.416 36.1C 453.566 36.1 453.216 35.4 453.216 34.8C 453.216 34.05 453.666 32.75 454.016 31.7L 459.216 15.4C 457.066 16.3 454.966 16.5 452.816 16.5L 451.466 16.5L 451.316 17.3ZM 462.466 3.7C 462.466 3.05 462.116 2 460.566 2C 459.016 2 457.666 4.05 457.666 5.7C 457.666 6.35 458.016 7.4 459.266 7.4C 461.116 7.4 462.466 5.35 462.466 3.7ZM 480.348 28.85C 480.348 33.7 482.948 37.6 488.448 37.6C 494.448 37.6 500.998 31.55 500.998 23.45C 500.998 18.4 496.848 15.4 493.348 15.4C 485.948 15.4 480.348 22.6 480.348 28.85ZM 493.048 16.2C 495.898 16.2 497.398 17.75 497.398 20.2C 497.398 23.1 494.698 31.6 493.398 33.8C 492.948 34.5 491.398 36.8 488.298 36.8C 485.448 36.8 483.948 34.85 483.948 32.45C 483.948 30.1 486.648 21.45 487.698 19.65C 488.798 17.75 490.498 16.2 493.048 16.2ZM 507.748 30.1C 507.198 31.9 506.848 33.05 506.848 33.95C 506.848 36.4 508.698 37.3 510.298 37.3C 514.198 37.3 517.148 33.3 517.798 32.2L 517.198 31.8C 516.598 32.7 514.298 36.1 511.648 36.1C 510.798 36.1 510.448 35.4 510.448 34.8C 510.448 34.2 510.748 33.4 511.048 32.4L 520.648 0.25C 519.048 1.2 517.048 1.5 515.098 1.5L 512.848 1.5L 512.648 2.3L 516.048 2.3L 507.748 30.1ZM 523.914 30.1C 523.464 31.5 523.114 32.75 523.114 33.75C 523.114 36.35 524.814 37.3 527.214 37.3C 531.014 37.3 534.164 33.7 536.314 31L 535.764 30.6C 533.414 34.05 529.864 36.5 528.264 36.5C 527.214 36.5 526.714 35.8 526.714 35.05C 526.714 34.3 526.914 33.35 527.064 32.8L 531.964 17.3L 537.814 17.3L 538.064 16.5L 532.214 16.5L 534.814 8.25C 533.514 9.25 531.964 9.65 530.314 9.65L 528.164 16.5L 524.514 16.5L 524.264 17.3L 527.914 17.3L 523.914 30.1ZM 540.164 37L 544.064 37L 547.714 24.6C 548.414 22.25 552.564 16.9 554.914 16.9C 555.364 16.9 555.564 17.05 555.564 17.4C 555.564 17.65 555.314 17.9 555.314 18.85C 555.314 19.75 555.764 20.7 557.214 20.7C 558.464 20.7 559.814 19.85 559.814 18.2C 559.814 16.9 558.814 15.7 556.614 15.7C 553.464 15.7 549.914 19.25 548.564 21.7L 548.464 21.6L 550.514 15.4C 549.164 16.4 547.114 16.5 544.564 16.5L 542.714 16.5L 542.514 17.3L 545.964 17.3L 540.164 37ZM 578.248 31.25C 577.398 32.35 574.248 36.8 569.948 36.8C 566.298 36.8 565.248 34.25 565.248 30.95C 565.248 29.7 565.598 27.6 566.098 25.7C 567.298 26.2 568.598 26.45 569.898 26.45C 575.548 26.45 580.248 23.6 580.248 19.75C 580.248 16.6 577.298 15.4 574.798 15.4C 568.548 15.4 561.348 21.4 561.348 29.1C 561.348 35.55 566.498 37.6 569.198 37.6C 574.648 37.6 577.698 33.05 578.748 31.6L 578.248 31.25ZM 576.948 19.25C 576.948 21.3 575.298 25.65 569.898 25.65C 568.398 25.65 567.098 25.2 566.298 24.95C 567.448 21.35 569.448 16.2 573.948 16.2C 575.798 16.2 576.948 17.5 576.948 19.25ZM 617.681 29.35C 617.231 30.4 613.481 36.8 608.531 36.8C 605.781 36.8 604.681 34.8 604.681 32.3C 604.681 28.6 606.681 16.2 613.731 16.2C 615.231 16.2 615.481 16.55 615.481 17C 615.481 17.35 614.931 17.85 614.931 19.2C 614.931 20.75 615.831 21.55 617.131 21.55C 618.531 21.55 619.431 20.65 619.431 19C 619.431 17.05 617.331 15.4 613.931 15.4C 607.181 15.4 600.481 22.4 600.481 29.1C 600.481 35.55 605.631 37.6 608.331 37.6C 614.031 37.6 617.731 31.2 618.381 29.6L 617.681 29.35ZM 625.997 17.3L 629.197 17.3L 624.947 30.95C 624.647 32 624.297 33 624.297 33.95C 624.297 36.4 626.147 37.3 627.747 37.3C 631.647 37.3 634.597 33.3 635.247 32.2L 634.647 31.8C 634.047 32.7 631.747 36.1 629.097 36.1C 628.247 36.1 627.897 35.4 627.897 34.8C 627.897 34.05 628.347 32.75 628.697 31.7L 633.897 15.4C 631.747 16.3 629.647 16.5 627.497 16.5L 626.147 16.5L 625.997 17.3ZM 637.147 3.7C 637.147 3.05 636.797 2 635.247 2C 633.697 2 632.347 4.05 632.347 5.7C 632.347 6.35 632.697 7.4 633.947 7.4C 635.797 7.4 637.147 5.35 637.147 3.7ZM 639.613 28.85C 639.613 33.7 642.213 37.6 647.713 37.6C 653.713 37.6 660.263 31.55 660.263 23.45C 660.263 18.4 656.113 15.4 652.613 15.4C 645.213 15.4 639.613 22.6 639.613 28.85ZM 652.313 16.2C 655.163 16.2 656.663 17.75 656.663 20.2C 656.663 23.1 653.963 31.6 652.663 33.8C 652.213 34.5 650.663 36.8 647.563 36.8C 644.713 36.8 643.213 34.85 643.213 32.45C 643.213 30.1 645.913 21.45 646.963 19.65C 648.063 17.75 649.763 16.2 652.313 16.2ZM 655.213 9.4L 656.663 9.4L 650.663 1.8C 650.213 1.2 649.813 0.95 648.963 0.95C 648.163 0.95 647.463 1.8 647.463 2.55C 647.463 3.25 648.013 3.7 648.413 4.1L 655.213 9.4ZM 698.729 29.35C 698.279 30.4 694.529 36.8 689.579 36.8C 686.829 36.8 685.729 34.8 685.729 32.3C 685.729 28.6 687.729 16.2 694.779 16.2C 696.279 16.2 696.529 16.55 696.529 17C 696.529 17.35 695.979 17.85 695.979 19.2C 695.979 20.75 696.879 21.55 698.179 21.55C 699.579 21.55 700.479 20.65 700.479 19C 700.479 17.05 698.379 15.4 694.979 15.4C 688.229 15.4 681.529 22.4 681.529 29.1C 681.529 35.55 686.679 37.6 689.379 37.6C 695.079 37.6 698.779 31.2 699.429 29.6L 698.729 29.35ZM 703.767 37L 707.767 37L 710.767 26.7C 712.767 19.9 718.917 16.2 721.267 16.2C 722.617 16.2 723.167 16.85 723.167 17.85C 723.167 19.95 718.417 30.5 718.417 33.6C 718.417 35.85 719.317 37.3 721.667 37.3C 725.317 37.3 727.667 33.55 728.667 32.1L 728.167 31.75C 727.367 32.7 725.317 36.1 723.167 36.1C 722.367 36.1 722.017 35.35 722.017 34.55C 722.017 33.3 726.767 21.6 726.767 19.45C 726.767 17.2 725.267 15.4 722.067 15.4C 718.167 15.4 714.367 18.65 712.167 22.3L 712.067 22.3L 718.517 0.25C 716.917 1.2 714.917 1.5 712.967 1.5L 710.717 1.5L 710.517 2.3L 713.917 2.3L 703.767 37ZM 750.551 31.25C 749.701 32.35 746.551 36.8 742.251 36.8C 738.601 36.8 737.551 34.25 737.551 30.95C 737.551 29.7 737.901 27.6 738.401 25.7C 739.601 26.2 740.901 26.45 742.201 26.45C 747.851 26.45 752.551 23.6 752.551 19.75C 752.551 16.6 749.601 15.4 747.101 15.4C 740.851 15.4 733.651 21.4 733.651 29.1C 733.651 35.55 738.801 37.6 741.501 37.6C 746.951 37.6 750.001 33.05 751.051 31.6L 750.551 31.25ZM 749.251 19.25C 749.251 21.3 747.601 25.65 742.201 25.65C 740.701 25.65 739.401 25.2 738.601 24.95C 739.751 21.35 741.751 16.2 746.251 16.2C 748.101 16.2 749.251 17.5 749.251 19.25ZM 773.733 30.8C 773.583 31.25 773.133 33.2 773.133 33.85C 773.133 36.1 775.233 37.3 777.283 37.3C 784.683 37.3 791.933 24.5 791.933 19.05C 791.933 17.3 791.133 15.4 789.183 15.4C 787.683 15.4 786.733 16.45 786.733 17.95C 786.733 20.9 790.133 19.55 790.133 22.15C 790.133 26.05 783.783 36.1 778.733 36.1C 777.583 36.1 777.033 35.6 777.033 34.45C 777.033 33.9 777.133 33.1 777.533 31.85L 782.633 15.4C 780.483 16.3 778.383 16.5 776.233 16.5L 774.933 16.5L 774.733 17.3L 777.833 17.3L 773.733 30.8ZM 813.4 31.25C 812.55 32.35 809.4 36.8 805.1 36.8C 801.45 36.8 800.4 34.25 800.4 30.95C 800.4 29.7 800.75 27.6 801.25 25.7C 802.45 26.2 803.75 26.45 805.05 26.45C 810.7 26.45 815.4 23.6 815.4 19.75C 815.4 16.6 812.45 15.4 809.95 15.4C 803.7 15.4 796.5 21.4 796.5 29.1C 796.5 35.55 801.65 37.6 804.35 37.6C 809.8 37.6 812.85 33.05 813.9 31.6L 813.4 31.25ZM 812.1 19.25C 812.1 21.3 810.45 25.65 805.05 25.65C 803.55 25.65 802.25 25.2 801.45 24.95C 802.6 21.35 804.6 16.2 809.1 16.2C 810.95 16.2 812.1 17.5 812.1 19.25ZM 840.117 2.3L 843.517 2.3L 838.767 19.45L 838.667 19.45C 838.117 17.9 836.717 15.4 833.017 15.4C 827.917 15.4 820.217 21.5 820.217 29.05C 820.217 34.4 823.317 37.6 827.217 37.6C 831.217 37.6 833.517 34.4 834.567 33L 834.667 33.1C 834.367 35.05 835.217 37.6 837.517 37.6C 839.617 37.6 841.467 36.45 842.667 34.75L 844.367 32.4L 843.767 32.05L 842.567 33.7C 841.917 34.55 840.417 36.4 839.217 36.4C 838.367 36.4 837.967 35.85 837.967 35.15C 837.917 34.45 838.167 33.6 838.317 33.1L 848.117 0.25C 846.517 1.2 844.517 1.5 842.567 1.5L 840.317 1.5L 840.117 2.3ZM 824.117 32.7C 824.017 27.4 827.317 16.2 833.917 16.2C 836.517 16.2 838.167 19.35 838.167 20.5C 838.167 22 834.617 32.05 833.967 32.95C 832.417 35.1 829.967 36.8 827.567 36.8C 825.267 36.8 824.167 35.1 824.117 32.7ZM 851.3 17.3L 854.5 17.3L 850.25 30.95C 849.95 32 849.6 33 849.6 33.95C 849.6 36.4 851.45 37.3 853.05 37.3C 856.95 37.3 859.9 33.3 860.55 32.2L 859.95 31.8C 859.35 32.7 857.05 36.1 854.4 36.1C 853.55 36.1 853.2 35.4 853.2 34.8C 853.2 34.05 853.65 32.75 854 31.7L 859.2 15.4C 857.05 16.3 854.95 16.5 852.8 16.5L 851.45 16.5L 851.3 17.3ZM 862.45 3.7C 862.45 3.05 862.1 2 860.55 2C 859 2 857.65 4.05 857.65 5.7C 857.65 6.35 858 7.4 859.25 7.4C 861.1 7.4 862.45 5.35 862.45 3.7Z"/>
</defs>
</svg>
