<svg width="1266" height="230" viewBox="0 0 1266 230" version="1.1" xmlns="http://www.w3.org/2000/svg" xmlns:xlink="http://www.w3.org/1999/xlink">
<title>landing-hero-id</title>
<desc>Created using Figma</desc>
<g id="Canvas" transform="translate(1919 -2760)">
<g id="landing-hero-id">
<g id="Vector">
<use xlink:href="#path0_fill" transform="translate(-752.104 2761.27)" fill="#FFFFFF"/>
</g>
<g id="Vector">
<use xlink:href="#path1_fill" transform="translate(-955.759 2761.27)" fill="#FFFFFF"/>
</g>
<g id="Vector">
<use xlink:href="#path2_fill" transform="translate(-1032.97 2761.27)" fill="#FFFFFF"/>
</g>
<g id="Vector">
<use xlink:href="#path3_fill" transform="translate(-1236.62 2761.27)" fill="#FFFFFF"/>
</g>
<g id="Vector">
<use xlink:href="#path4_fill" transform="translate(-1411.1 2760.42)" fill="#FFFFFF"/>
</g>
<g id="Vector">
<use xlink:href="#path5_fill" transform="translate(-1561.8 2761.27)" fill="#FFFFFF"/>
</g>
<g id="Vector">
<use xlink:href="#path6_fill" transform="translate(-1723.32 2761.27)" fill="#FFFFFF"/>
</g>
<g id="Vector">
<use xlink:href="#path7_fill" transform="translate(-1919 2760)" fill="#FFFFFF"/>
</g>
<g id="Melampaui Apa Yang Anda Lihat">
<use xlink:href="#path8_fill" transform="translate(-1913 2939)" fill="#FFFFFF"/>
</g>
</g>
</g>
<defs>
<path id="path0_fill" d="M 21.5076 20.7099L 21.5076 66.3563L 64.523 66.3563C 66.2099 66.3563 67.8967 67.6243 67.8967 69.7376L 67.8967 83.6851C 67.8967 85.7983 66.6316 87.0663 64.523 87.0663L 21.5076 87.0663L 21.5076 130.177L 95.7301 130.177C 97.417 130.177 99.104 131.445 99.104 133.558L 99.104 147.506C 99.104 149.196 97.8387 150.887 95.7301 150.887L 3.37375 150.887C 1.68688 150.887 5.14794e-05 149.619 5.14794e-05 147.506L 5.14794e-05 2.95856C 5.14794e-05 1.26796 1.26513 5.0384e-08 2.95201 5.0384e-08L 95.7301 5.0384e-08C 97.417 5.0384e-08 99.104 1.26796 99.104 2.95856L 99.104 17.3287C 99.104 19.0193 97.8387 20.2873 95.7301 20.2873L 21.5076 20.2873L 21.5076 20.7099Z"/>
<path id="path1_fill" d="M 146.722 3.80387L 77.5605 148.773C 77.1388 150.041 75.8736 151.309 74.1867 151.309L 72.4999 151.309C 70.813 151.309 69.5478 150.041 69.1261 148.773L 0.385922 3.80387C -0.879235 1.69061 1.22939 5.0384e-08 2.91626 5.0384e-08L 21.8936 5.0384e-08C 23.5805 5.0384e-08 24.4239 1.69061 25.2673 3.38122L 73.765 109.044L 122.263 3.38122C 123.106 1.69061 123.95 5.0384e-08 125.636 5.0384e-08L 144.614 5.0384e-08C 146.301 5.0384e-08 147.988 1.69061 146.722 3.80387Z"/>
<path id="path2_fill" d="M 17.7122 5.0384e-08C 19.3991 5.0384e-08 20.6642 1.26796 20.6642 2.95856L 20.6642 147.083C 20.6642 148.773 19.3991 150.464 17.7122 150.464L 3.37372 150.464C 1.68685 150.464 2.57397e-05 149.196 2.57397e-05 147.083L 2.57397e-05 2.95856C 2.57397e-05 1.26796 1.26517 5.0384e-08 2.95204 5.0384e-08L 17.7122 5.0384e-08L 17.7122 5.0384e-08Z"/>
<path id="path3_fill" d="M 146.722 3.80387L 77.5605 148.773C 77.1387 150.041 75.8736 151.309 74.1867 151.309L 72.4998 151.309C 70.813 151.309 69.5478 150.041 69.1261 148.773L 0.385896 3.80387C -0.879261 1.69061 1.22936 5.0384e-08 2.91624 5.0384e-08L 21.8936 5.0384e-08C 23.5805 5.0384e-08 24.4239 1.69061 25.2673 3.38122L 73.765 109.044L 122.263 3.38122C 123.106 1.69061 123.95 5.0384e-08 125.636 5.0384e-08L 144.614 5.0384e-08C 146.301 5.0384e-08 147.988 1.69061 146.722 3.80387Z"/>
<path id="path4_fill" d="M 147.027 151.309L 130.158 151.309C 128.471 151.309 127.628 150.464 126.784 149.196L 114.976 124.682L 34.006 124.682L 22.6196 149.196C 21.7761 150.464 20.9327 151.309 19.2458 151.309L 2.37706 151.309C 0.690185 151.309 -0.574972 149.619 0.268466 147.928L 71.1172 1.69061C 71.539 0.422652 72.8041 6.298e-09 73.6475 6.298e-09L 76.1779 6.298e-09C 77.0213 6.298e-09 77.8648 0.422652 78.7082 1.69061L 149.135 147.928C 149.557 149.619 149.135 151.309 147.027 151.309ZM 105.698 105.24L 74.491 38.884L 43.2838 105.24L 105.698 105.24Z"/>
<path id="path5_fill" d="M 94.0433 133.135L 94.0433 147.506C 94.0433 149.196 92.7782 150.464 91.0913 150.464L 2.53033 150.464C 0.843451 150.464 -1.28698e-05 149.196 -1.28698e-05 147.506L -1.28698e-05 2.95856C -1.28698e-05 1.26796 1.26516 5.0384e-08 2.95204 5.0384e-08L 18.1339 5.0384e-08C 19.8208 5.0384e-08 21.0859 1.26796 21.0859 2.95856L 21.0859 129.754L 90.6695 129.754C 92.7781 129.754 94.0433 131.022 94.0433 133.135Z"/>
<path id="path6_fill" d="M 21.0859 20.7099L 21.0859 66.3563L 64.1013 66.3563C 65.7881 66.3563 67.475 67.6243 67.475 69.7376L 67.475 83.6851C 67.475 85.7983 66.2099 87.0663 64.1013 87.0663L 21.0859 87.0663L 21.0859 130.177L 95.3085 130.177C 96.9953 130.177 98.6822 131.445 98.6822 133.558L 98.6822 147.506C 98.6822 149.196 97.4171 150.887 95.3085 150.887L 3.37375 150.887C 1.68688 150.887 6.43492e-06 149.619 6.43492e-06 147.506L 6.43492e-06 2.95856C 6.43492e-06 1.26796 1.26515 5.0384e-08 2.95203 5.0384e-08L 95.7302 5.0384e-08C 97.417 5.0384e-08 99.1039 1.26796 99.1039 2.95856L 99.1039 17.3287C 99.1039 19.0193 97.8388 20.2873 95.7302 20.2873L 21.0859 20.2873L 21.0859 20.7099Z"/>
<path id="path7_fill" d="M 131.576 129.331C 117.66 144.124 98.6822 153 76.3311 153C 34.5809 153 0 119.61 0 76.9227C 0 34.2348 34.5809 0 76.3311 0C 98.2605 0 118.081 8.87569 131.998 23.6685C 133.685 25.3591 133.685 27.0497 131.998 28.3177L 120.19 38.0387C 118.503 39.3066 117.238 39.3066 115.973 38.0387C 107.96 29.5856 94.0433 20.7099 77.1745 20.7099C 43.0153 20.2873 21.0859 48.605 21.0859 76.9227C 21.0859 105.24 43.0153 132.713 76.7528 132.713C 93.6216 132.713 107.117 124.26 115.129 115.807C 116.816 114.116 118.081 114.116 119.768 114.961L 131.576 124.682C 133.263 125.95 133.263 127.641 131.576 129.331Z"/>
<path id="path8_fill" d="M 248.287 37L 257.387 37L 257.587 36.2C 254.737 36.2 253.887 35.6 253.887 34.65C 253.887 34.25 253.987 33.85 254.087 33.5L 262.387 3.9L 262.487 3.9L 263.887 37L 264.437 37L 286.337 4.5L 286.437 4.6L 277.587 36.2L 273.187 36.2L 272.987 37L 286.587 37L 286.787 36.2L 282.487 36.2L 291.887 2.6L 295.987 2.6L 296.187 1.8L 287.137 1.8L 268.387 29.6L 268.287 29.6L 267.087 1.8L 257.437 1.8L 257.237 2.6L 261.837 2.6L 255.187 26.15C 252.887 34.35 252.737 35.05 251.637 35.8C 251.037 36.2 249.187 36.2 248.487 36.2L 248.287 37ZM 311.887 31.25C 311.037 32.35 307.887 36.8 303.587 36.8C 299.938 36.8 298.887 34.25 298.887 30.95C 298.887 29.7 299.238 27.6 299.738 25.7C 300.938 26.2 302.238 26.45 303.538 26.45C 309.188 26.45 313.887 23.6 313.887 19.75C 313.887 16.6 310.938 15.4 308.438 15.4C 302.188 15.4 294.988 21.4 294.988 29.1C 294.988 35.55 300.137 37.6 302.837 37.6C 308.287 37.6 311.337 33.05 312.387 31.6L 311.887 31.25ZM 310.587 19.25C 310.587 21.3 308.938 25.65 303.538 25.65C 302.038 25.65 300.738 25.2 299.938 24.95C 301.087 21.35 303.087 16.2 307.587 16.2C 309.438 16.2 310.587 17.5 310.587 19.25ZM 319.604 30.1C 319.054 31.9 318.704 33.05 318.704 33.95C 318.704 36.4 320.554 37.3 322.154 37.3C 326.054 37.3 329.004 33.3 329.654 32.2L 329.054 31.8C 328.454 32.7 326.154 36.1 323.504 36.1C 322.654 36.1 322.304 35.4 322.304 34.8C 322.304 34.2 322.604 33.4 322.904 32.4L 332.504 0.25C 330.904 1.2 328.904 1.5 326.954 1.5L 324.704 1.5L 324.504 2.3L 327.904 2.3L 319.604 30.1ZM 338.02 32.8C 338.02 28.95 340.97 16.2 347.37 16.2C 350.47 16.2 351.97 18.85 351.97 20.65C 351.97 21.65 350.97 24 349.72 28.1C 348.32 32.75 345.87 36.8 341.62 36.8C 339.37 36.8 338.02 35.45 338.02 32.8ZM 357.37 16.5L 353.52 16.5L 352.57 19.55L 352.47 19.55C 352.12 18.05 350.82 15.4 347.57 15.4C 341.32 15.4 334.12 22.1 334.12 29.1C 334.12 33.75 336.82 37.6 341.57 37.6C 344.47 37.6 347.27 35.15 348.47 33.1L 348.57 33.1C 348.62 34.65 348.77 37.6 352.17 37.6C 355.37 37.6 357.57 33.5 358.22 32.6L 357.72 32.1C 357.02 33.05 354.82 36.4 353.07 36.4C 352.27 36.4 351.87 35.8 351.87 35C 351.87 34.2 352.17 33.2 352.42 32.4L 357.37 16.5ZM 362.804 37L 366.854 37L 370.054 26.05C 371.054 22.7 375.954 16.2 379.804 16.2C 380.454 16.2 380.904 16.55 380.904 17.25C 380.904 17.95 380.804 18.65 379.604 22.65L 375.404 37L 379.454 37L 382.754 25.8C 383.754 22.45 389.304 16.2 391.754 16.2C 393.104 16.2 393.654 16.85 393.654 17.85C 393.654 19.95 388.904 30.5 388.904 33.6C 388.904 35.85 389.804 37.3 392.154 37.3C 395.804 37.3 398.154 33.55 399.154 32.1L 398.654 31.75C 397.854 32.7 395.804 36.1 393.654 36.1C 392.854 36.1 392.504 35.35 392.504 34.55C 392.504 33.3 397.254 21.6 397.254 19.45C 397.254 17.2 395.754 15.4 392.554 15.4C 389.654 15.4 386.554 18.35 383.954 22L 383.854 22C 384.204 21 384.304 20.05 384.304 18.85C 384.304 16.8 382.704 15.4 380.504 15.4C 377.004 15.4 373.204 18.9 371.204 22.3L 371.104 22.3L 373.154 15.4C 371.004 16.3 368.904 16.5 366.754 16.5L 365.704 16.5L 365.504 17.3L 368.604 17.3L 362.804 37ZM 396.07 50.5L 405.92 50.5L 406.12 49.7L 403.12 49.7L 407.67 33.65L 407.77 33.65C 408.27 36.05 410.42 37.6 413.57 37.6C 420.37 37.6 426.57 30.55 426.57 23.9C 426.57 18.7 422.92 15.4 418.87 15.4C 416.02 15.4 413.47 16.9 411.77 19.3L 411.67 19.3L 412.57 15.4C 411.27 16.4 409.22 16.5 406.67 16.5L 405.57 16.5L 405.37 17.3L 408.37 17.3L 398.97 49.7L 396.27 49.7L 396.07 50.5ZM 422.67 21.25C 422.67 25.8 419.42 36.8 413.07 36.8C 410.72 36.8 408.27 35.3 408.27 32.3C 408.27 32 408.37 31.15 408.67 30.05L 410.32 24.35C 411.57 19.95 414.27 16.2 418.57 16.2C 420.97 16.2 422.67 17.75 422.67 21.25ZM 437.003 32.8C 437.003 28.95 439.953 16.2 446.353 16.2C 449.453 16.2 450.953 18.85 450.953 20.65C 450.953 21.65 449.953 24 448.703 28.1C 447.303 32.75 444.853 36.8 440.603 36.8C 438.353 36.8 437.003 35.45 437.003 32.8ZM 456.353 16.5L 452.503 16.5L 451.553 19.55L 451.453 19.55C 451.103 18.05 449.803 15.4 446.553 15.4C 440.303 15.4 433.103 22.1 433.103 29.1C 433.103 33.75 435.803 37.6 440.553 37.6C 443.453 37.6 446.253 35.15 447.453 33.1L 447.553 33.1C 447.603 34.65 447.753 37.6 451.153 37.6C 454.353 37.6 456.553 33.5 457.203 32.6L 456.703 32.1C 456.003 33.05 453.803 36.4 452.053 36.4C 451.253 36.4 450.853 35.8 450.853 35C 450.853 34.2 451.153 33.2 451.403 32.4L 456.353 16.5ZM 485.536 16.5L 481.486 16.5L 478.436 26C 476.636 31.65 470.836 36.5 467.986 36.5C 466.686 36.5 466.036 35.85 466.036 34.8C 466.036 34.5 466.236 33.65 466.536 32.75L 472.136 15.4C 469.986 16.3 467.886 16.5 465.736 16.5L 464.386 16.5L 464.186 17.3L 467.386 17.3L 463.236 29.9C 462.986 30.75 462.436 32.65 462.436 33.5C 462.436 36.7 464.586 37.3 466.936 37.3C 470.886 37.3 474.036 34.35 477.086 30.35L 477.186 30.35C 476.836 31.55 476.286 33.15 476.286 34.05C 476.286 36.1 477.686 37.3 479.786 37.3C 483.136 37.3 484.836 34.85 486.436 32.3L 485.836 31.95C 484.186 34.4 483.086 36.1 481.286 36.1C 480.336 36.1 479.886 35.35 479.886 34.9C 479.886 34.5 479.986 33.6 480.286 32.75L 485.536 16.5ZM 493.469 17.3L 496.669 17.3L 492.419 30.95C 492.119 32 491.769 33 491.769 33.95C 491.769 36.4 493.619 37.3 495.219 37.3C 499.119 37.3 502.069 33.3 502.719 32.2L 502.119 31.8C 501.519 32.7 499.219 36.1 496.569 36.1C 495.719 36.1 495.369 35.4 495.369 34.8C 495.369 34.05 495.819 32.75 496.169 31.7L 501.369 15.4C 499.219 16.3 497.119 16.5 494.969 16.5L 493.619 16.5L 493.469 17.3ZM 504.619 3.7C 504.619 3.05 504.269 2 502.719 2C 501.169 2 499.819 4.05 499.819 5.7C 499.819 6.35 500.169 7.4 501.419 7.4C 503.269 7.4 504.619 5.35 504.619 3.7ZM 515.596 37L 523.896 37L 524.096 36.2L 522.546 36.2C 520.796 36.2 520.296 35.95 520.296 35.55C 520.296 35.3 520.446 34.95 520.896 34.3L 527.046 24.4L 537.946 24.4L 538.296 36.2L 533.946 36.2L 533.746 37L 545.996 37L 546.146 36.2L 543.146 36.2L 542.046 0.1L 541.346 0.1L 519.546 34.6C 518.596 36.1 517.646 36.2 516.946 36.2L 515.746 36.2L 515.596 37ZM 537.946 23.6L 527.646 23.6L 537.546 7.75L 537.646 7.75L 537.946 23.6ZM 544.962 50.5L 554.812 50.5L 555.012 49.7L 552.012 49.7L 556.562 33.65L 556.662 33.65C 557.162 36.05 559.312 37.6 562.462 37.6C 569.262 37.6 575.462 30.55 575.462 23.9C 575.462 18.7 571.812 15.4 567.762 15.4C 564.912 15.4 562.362 16.9 560.662 19.3L 560.562 19.3L 561.462 15.4C 560.162 16.4 558.112 16.5 555.562 16.5L 554.462 16.5L 554.262 17.3L 557.262 17.3L 547.862 49.7L 545.162 49.7L 544.962 50.5ZM 571.562 21.25C 571.562 25.8 568.312 36.8 561.962 36.8C 559.612 36.8 557.162 35.3 557.162 32.3C 557.162 32 557.262 31.15 557.562 30.05L 559.212 24.35C 560.462 19.95 563.162 16.2 567.462 16.2C 569.862 16.2 571.562 17.75 571.562 21.25ZM 585.895 32.8C 585.895 28.95 588.845 16.2 595.245 16.2C 598.345 16.2 599.845 18.85 599.845 20.65C 599.845 21.65 598.845 24 597.595 28.1C 596.195 32.75 593.745 36.8 589.495 36.8C 587.245 36.8 585.895 35.45 585.895 32.8ZM 605.245 16.5L 601.395 16.5L 600.445 19.55L 600.345 19.55C 599.995 18.05 598.695 15.4 595.445 15.4C 589.195 15.4 581.995 22.1 581.995 29.1C 581.995 33.75 584.695 37.6 589.445 37.6C 592.345 37.6 595.145 35.15 596.345 33.1L 596.445 33.1C 596.495 34.65 596.645 37.6 600.045 37.6C 603.245 37.6 605.445 33.5 606.095 32.6L 605.595 32.1C 604.895 33.05 602.695 36.4 600.945 36.4C 600.145 36.4 599.745 35.8 599.745 35C 599.745 34.2 600.045 33.2 600.295 32.4L 605.245 16.5ZM 635.86 2.6L 639.96 2.6L 640.16 1.8L 627.61 1.8L 627.41 2.6L 631.21 2.6L 632.61 22.15L 628.56 36.2L 624.71 36.2L 624.51 37L 637.76 37L 637.96 36.2L 633.61 36.2L 637.41 22.5L 651.01 3.8C 651.71 2.85 652.31 2.6 653.46 2.6L 653.86 2.6L 654.06 1.8L 646.31 1.8L 646.11 2.6L 646.81 2.6C 648.21 2.6 649.96 2.6 649.96 3.2C 649.96 3.8 649.31 4.7 648.36 6.05L 637.16 21.45L 637.06 21.45L 635.86 2.6ZM 652.505 32.8C 652.505 28.95 655.455 16.2 661.855 16.2C 664.955 16.2 666.455 18.85 666.455 20.65C 666.455 21.65 665.455 24 664.205 28.1C 662.805 32.75 660.355 36.8 656.105 36.8C 653.855 36.8 652.505 35.45 652.505 32.8ZM 671.855 16.5L 668.005 16.5L 667.055 19.55L 666.955 19.55C 666.605 18.05 665.305 15.4 662.055 15.4C 655.805 15.4 648.605 22.1 648.605 29.1C 648.605 33.75 651.305 37.6 656.055 37.6C 658.955 37.6 661.755 35.15 662.955 33.1L 663.055 33.1C 663.105 34.65 663.255 37.6 666.655 37.6C 669.855 37.6 672.055 33.5 672.705 32.6L 672.205 32.1C 671.505 33.05 669.305 36.4 667.555 36.4C 666.755 36.4 666.355 35.8 666.355 35C 666.355 34.2 666.655 33.2 666.905 32.4L 671.855 16.5ZM 677.288 37L 681.288 37L 684.288 26.7C 686.288 19.9 692.438 16.2 694.788 16.2C 696.138 16.2 696.688 16.85 696.688 17.85C 696.688 19.95 691.938 30.5 691.938 33.6C 691.938 35.85 692.838 37.3 695.188 37.3C 698.838 37.3 701.188 33.55 702.188 32.1L 701.688 31.75C 700.888 32.7 698.838 36.1 696.688 36.1C 695.888 36.1 695.538 35.35 695.538 34.55C 695.538 33.3 700.288 21.6 700.288 19.45C 700.288 17.2 698.788 15.4 695.588 15.4C 691.688 15.4 687.888 18.65 685.688 22.3L 685.588 22.3L 687.638 15.4C 685.488 16.3 683.388 16.5 681.238 16.5L 680.188 16.5L 679.988 17.3L 683.088 17.3L 677.288 37ZM 709.021 24.25C 709.021 26.45 710.171 28.55 711.971 29.85C 709.421 30.35 706.571 31.95 706.571 34.9C 706.571 36.8 707.421 37.75 709.221 38.35L 709.221 38.5C 706.421 39.75 703.871 41.7 703.871 45.2C 703.871 48.9 708.371 51 713.221 51C 722.071 51 726.421 44.25 726.421 40.05C 726.421 35.2 722.921 34.8 719.721 34.8C 717.121 34.8 714.571 35 712.121 35C 708.921 35 708.371 34.35 708.371 33.25C 708.371 31.65 710.571 30.6 712.571 30.2C 713.421 30.65 714.921 30.95 716.121 30.95C 721.571 30.95 725.871 26.65 725.871 22.85C 725.871 21.85 725.821 20.8 725.371 19.8C 725.821 18.5 726.971 16.85 727.621 16.85C 727.771 16.85 728.021 16.85 728.021 17.1C 728.021 17.3 727.871 17.45 727.871 17.9C 727.871 19.05 728.471 19.9 729.821 19.9C 731.321 19.9 731.771 18.7 731.771 17.8C 731.771 16.7 731.221 15.4 729.421 15.4C 726.871 15.4 725.471 18.1 725.071 18.95C 723.921 16.75 721.321 15.4 719.021 15.4C 714.321 15.4 709.021 19.1 709.021 24.25ZM 721.971 38.6C 723.071 38.6 724.921 39 724.921 41.35C 724.921 45.05 720.821 50.2 713.921 50.2C 707.871 50.2 705.971 46.85 705.971 44.8C 705.971 40.35 709.871 38.6 710.571 38.6L 721.971 38.6ZM 722.571 19.8C 722.571 20.85 721.071 30.15 716.321 30.15C 714.121 30.15 712.621 28.9 712.621 26.65C 712.621 24.15 714.421 16.2 719.071 16.2C 721.221 16.2 722.571 17.55 722.571 19.8ZM 742.182 37L 750.482 37L 750.682 36.2L 749.132 36.2C 747.382 36.2 746.882 35.95 746.882 35.55C 746.882 35.3 747.032 34.95 747.482 34.3L 753.632 24.4L 764.532 24.4L 764.882 36.2L 760.532 36.2L 760.332 37L 772.582 37L 772.732 36.2L 769.732 36.2L 768.632 0.1L 767.932 0.1L 746.132 34.6C 745.182 36.1 744.232 36.2 743.532 36.2L 742.332 36.2L 742.182 37ZM 764.532 23.6L 754.232 23.6L 764.132 7.75L 764.232 7.75L 764.532 23.6ZM 778.698 37L 782.698 37L 785.698 26.7C 787.698 19.9 793.848 16.2 796.198 16.2C 797.548 16.2 798.098 16.85 798.098 17.85C 798.098 19.95 793.348 30.5 793.348 33.6C 793.348 35.85 794.248 37.3 796.598 37.3C 800.248 37.3 802.598 33.55 803.598 32.1L 803.098 31.75C 802.298 32.7 800.248 36.1 798.098 36.1C 797.298 36.1 796.948 35.35 796.948 34.55C 796.948 33.3 801.698 21.6 801.698 19.45C 801.698 17.2 800.198 15.4 796.998 15.4C 793.098 15.4 789.298 18.65 787.098 22.3L 786.998 22.3L 789.048 15.4C 786.898 16.3 784.798 16.5 782.648 16.5L 781.598 16.5L 781.398 17.3L 784.498 17.3L 778.698 37ZM 828.481 2.3L 831.881 2.3L 827.131 19.45L 827.031 19.45C 826.481 17.9 825.081 15.4 821.381 15.4C 816.281 15.4 808.581 21.5 808.581 29.05C 808.581 34.4 811.681 37.6 815.581 37.6C 819.581 37.6 821.881 34.4 822.931 33L 823.031 33.1C 822.731 35.05 823.581 37.6 825.881 37.6C 827.981 37.6 829.831 36.45 831.031 34.75L 832.731 32.4L 832.131 32.05L 830.931 33.7C 830.281 34.55 828.781 36.4 827.581 36.4C 826.731 36.4 826.331 35.85 826.331 35.15C 826.281 34.45 826.531 33.6 826.681 33.1L 836.481 0.25C 834.881 1.2 832.881 1.5 830.931 1.5L 828.681 1.5L 828.481 2.3ZM 812.481 32.7C 812.381 27.4 815.681 16.2 822.281 16.2C 824.881 16.2 826.531 19.35 826.531 20.5C 826.531 22 822.981 32.05 822.331 32.95C 820.781 35.1 818.331 36.8 815.931 36.8C 813.631 36.8 812.531 35.1 812.481 32.7ZM 841.764 32.8C 841.764 28.95 844.714 16.2 851.114 16.2C 854.214 16.2 855.714 18.85 855.714 20.65C 855.714 21.65 854.714 24 853.464 28.1C 852.064 32.75 849.614 36.8 845.364 36.8C 843.114 36.8 841.764 35.45 841.764 32.8ZM 861.114 16.5L 857.264 16.5L 856.314 19.55L 856.214 19.55C 855.864 18.05 854.564 15.4 851.314 15.4C 845.064 15.4 837.864 22.1 837.864 29.1C 837.864 33.75 840.564 37.6 845.314 37.6C 848.214 37.6 851.014 35.15 852.214 33.1L 852.314 33.1C 852.364 34.65 852.514 37.6 855.914 37.6C 859.114 37.6 861.314 33.5 861.964 32.6L 861.464 32.1C 860.764 33.05 858.564 36.4 856.814 36.4C 856.014 36.4 855.614 35.8 855.614 35C 855.614 34.2 855.914 33.2 856.164 32.4L 861.114 16.5ZM 879.064 37L 906.264 37L 910.314 24.05L 909.564 23.85C 906.814 32.5 902.614 36.2 894.414 36.2L 888.164 36.2L 897.564 2.6L 901.714 2.6L 901.914 1.8L 888.214 1.8L 888.014 2.6L 892.514 2.6L 883.114 36.2L 879.264 36.2L 879.064 37ZM 916.43 17.3L 919.63 17.3L 915.38 30.95C 915.08 32 914.73 33 914.73 33.95C 914.73 36.4 916.58 37.3 918.18 37.3C 922.08 37.3 925.03 33.3 925.68 32.2L 925.08 31.8C 924.48 32.7 922.18 36.1 919.53 36.1C 918.68 36.1 918.33 35.4 918.33 34.8C 918.33 34.05 918.78 32.75 919.13 31.7L 924.33 15.4C 922.18 16.3 920.08 16.5 917.93 16.5L 916.58 16.5L 916.43 17.3ZM 927.58 3.7C 927.58 3.05 927.23 2 925.68 2C 924.13 2 922.78 4.05 922.78 5.7C 922.78 6.35 923.13 7.4 924.38 7.4C 926.23 7.4 927.58 5.35 927.58 3.7ZM 929.446 37L 933.446 37L 936.446 26.7C 938.446 19.9 944.596 16.2 946.946 16.2C 948.296 16.2 948.846 16.85 948.846 17.85C 948.846 19.95 944.096 30.5 944.096 33.6C 944.096 35.85 944.996 37.3 947.346 37.3C 950.996 37.3 953.346 33.55 954.346 32.1L 953.846 31.75C 953.046 32.7 950.996 36.1 948.846 36.1C 948.046 36.1 947.696 35.35 947.696 34.55C 947.696 33.3 952.446 21.6 952.446 19.45C 952.446 17.2 950.946 15.4 947.746 15.4C 943.846 15.4 940.046 18.65 937.846 22.3L 937.746 22.3L 944.196 0.25C 942.596 1.2 940.596 1.5 938.646 1.5L 936.396 1.5L 936.196 2.3L 939.596 2.3L 929.446 37ZM 963.229 32.8C 963.229 28.95 966.179 16.2 972.579 16.2C 975.679 16.2 977.179 18.85 977.179 20.65C 977.179 21.65 976.179 24 974.929 28.1C 973.529 32.75 971.079 36.8 966.829 36.8C 964.579 36.8 963.229 35.45 963.229 32.8ZM 982.579 16.5L 978.729 16.5L 977.779 19.55L 977.679 19.55C 977.329 18.05 976.029 15.4 972.779 15.4C 966.529 15.4 959.329 22.1 959.329 29.1C 959.329 33.75 962.029 37.6 966.779 37.6C 969.679 37.6 972.479 35.15 973.679 33.1L 973.779 33.1C 973.829 34.65 973.979 37.6 977.379 37.6C 980.579 37.6 982.779 33.5 983.429 32.6L 982.929 32.1C 982.229 33.05 980.029 36.4 978.279 36.4C 977.479 36.4 977.079 35.8 977.079 35C 977.079 34.2 977.379 33.2 977.629 32.4L 982.579 16.5ZM 990.263 30.1C 989.812 31.5 989.462 32.75 989.462 33.75C 989.462 36.35 991.163 37.3 993.562 37.3C 997.362 37.3 1000.51 33.7 1002.66 31L 1002.11 30.6C 999.762 34.05 996.212 36.5 994.612 36.5C 993.562 36.5 993.062 35.8 993.062 35.05C 993.062 34.3 993.263 33.35 993.413 32.8L 998.312 17.3L 1004.16 17.3L 1004.41 16.5L 998.562 16.5L 1001.16 8.25C 999.863 9.25 998.312 9.65 996.663 9.65L 994.513 16.5L 990.862 16.5L 990.612 17.3L 994.263 17.3L 990.263 30.1Z"/>
</defs>
</svg>
