<svg width="26" height="26" viewBox="0 0 26 26" version="1.1" xmlns="http://www.w3.org/2000/svg" xmlns:xlink="http://www.w3.org/1999/xlink">
<title>Enter-arrow</title>
<desc>Created using Figma</desc>
<g id="Canvas" transform="translate(-1276 -1451)">
<g id="Enter-arrow">
<g id="Group-submit">
<g id="Vector">
<use xlink:href="#path0_stroke" transform="translate(1278 1453)" fill="#FFFFFF"/>
</g>
<g id="Vector">
<use xlink:href="#path1_stroke" transform="translate(1286.9 1458.95)" fill="#FFFFFF"/>
</g>
</g>
</g>
</g>
<defs>
<path id="path0_stroke" d="M 20.69 11C 20.69 16.3516 16.3516 20.69 11 20.69L 11 23.31C 17.7986 23.31 23.31 17.7986 23.31 11L 20.69 11ZM 11 20.69C 5.64836 20.69 1.31 16.3516 1.31 11L -1.31 11C -1.31 17.7986 4.20138 23.31 11 23.31L 11 20.69ZM 1.31 11C 1.31 5.64836 5.64836 1.31 11 1.31L 11 -1.31C 4.20138 -1.31 -1.31 4.20138 -1.31 11L 1.31 11ZM 11 1.31C 16.3516 1.31 20.69 5.64836 20.69 11L 23.31 11C 23.31 4.20138 17.7986 -1.31 11 -1.31L 11 1.31Z"/>
<path id="path1_stroke" d="M 0.842922 -1.00279C 0.289098 -1.46832 -0.537254 -1.39675 -1.00279 -0.842922C -1.46832 -0.289098 -1.39675 0.537254 -0.842922 1.00279L 0.842922 -1.00279ZM 5.5 4.62319L 6.42631 5.5495C 6.68588 5.28993 6.82463 4.93336 6.80878 4.56661C 6.79293 4.19987 6.62392 3.8566 6.34292 3.6204L 5.5 4.62319ZM -0.92631 9.19688C -1.4379 9.70846 -1.4379 10.5379 -0.92631 11.0495C -0.414723 11.5611 0.414723 11.5611 0.92631 11.0495L -0.92631 9.19688ZM -0.842922 1.00279L 4.65708 5.62597L 6.34292 3.6204L 0.842922 -1.00279L -0.842922 1.00279ZM 4.57369 3.69688L -0.92631 9.19688L 0.92631 11.0495L 6.42631 5.5495L 4.57369 3.69688Z"/>
</defs>
</svg>
