<svg width="69" height="702" viewBox="0 0 69 702" version="1.1" xmlns="http://www.w3.org/2000/svg" xmlns:xlink="http://www.w3.org/1999/xlink">
<title>Group</title>
<desc>Created using Figma</desc>
<g id="Canvas" transform="translate(-2004 -3031)">
<g id="Group">
<g id="follow-us">
<g id="Line 6">
<use xlink:href="#path0_stroke" transform="matrix(6.12186e-17 1 -1 6.12461e-17 2067 3031)" fill="#8FC7E8"/>
</g>
<g id="follow us">
<use xlink:href="#path1_fill" transform="matrix(-0.00658844 -0.999978 0.999978 -0.00658844 1969.01 3729.06)" fill="#A4A9AD"/>
</g>
</g>
</g>
</g>
<defs>
<path id="path0_stroke" d="M 0 1L 661 1L 661 -1L 0 -1L 0 1Z"/>
<path id="path1_fill" d="M 0.23 76.11C 3.60333 74.5767 6.86167 72.8133 10.005 70.82C 13.1483 68.8267 16.1767 66.7183 19.09 64.495C 20.5467 61.735 21.965 58.9367 23.345 56.1C 24.8017 53.2633 26.3733 50.5033 28.06 47.82C 28.6733 46.67 29.3633 45.4433 30.13 44.14C 30.9733 42.76 31.8933 41.495 32.89 40.345C 33.9633 39.1183 35.1133 38.1217 36.34 37.355C 37.5667 36.5117 38.9467 36.09 40.48 36.09C 42.09 36.09 43.0483 36.5117 43.355 37.355C 43.7383 38.1983 43.7383 39.195 43.355 40.345C 43.0483 41.4183 42.55 42.53 41.86 43.68C 41.17 44.7533 40.595 45.5583 40.135 46.095C 38.2183 48.9317 36.11 51.615 33.81 54.145C 31.51 56.675 29.0567 59.0517 26.45 61.275C 25.6067 62.1183 24.725 62.9233 23.805 63.69C 22.885 64.4567 22.0033 65.2233 21.16 65.99L 16.56 74.73C 16.4833 76.9533 16.905 78.4867 17.825 79.33C 18.8217 80.1733 20.2017 80.48 21.965 80.25C 23.0383 80.02 24.0733 79.7517 25.07 79.445C 26.0667 79.0617 27.0633 78.6783 28.06 78.295C 28.75 77.9883 29.555 77.5283 30.475 76.915C 31.395 76.225 32.2383 75.88 33.005 75.88C 33.695 75.88 34.1167 76.2633 34.27 77.03C 34.5 77.72 34.27 78.2183 33.58 78.525L 28.175 81.055C 26.565 81.6683 24.8017 82.2817 22.885 82.895C 20.9683 83.4317 19.1283 83.47 17.365 83.01C 15.9083 82.4733 14.72 81.4383 13.8 79.905C 12.2667 82.895 10.6567 85.8083 8.97 88.645C 7.36 91.5583 5.67333 94.4333 3.91 97.27C 3.68 97.6533 3.22 98.3433 2.53 99.34C 1.91667 100.337 1.22667 101.257 0.46 102.1C -0.23 102.943 -0.958333 103.518 -1.725 103.825C -2.49167 104.132 -3.14333 103.787 -3.68 102.79C -3.98667 102.253 -4.14 101.602 -4.14 100.835C -4.14 100.068 -4.06333 99.2633 -3.91 98.42C -3.75667 97.6533 -3.565 96.8867 -3.335 96.12C -3.105 95.3533 -2.91333 94.7017 -2.76 94.165C -2.22333 92.555 -1.38 90.7533 -0.23 88.76C 0.92 86.7667 2.26167 84.8117 3.795 82.895C 5.405 80.9783 7.09167 79.215 8.855 77.605C 10.695 75.9183 12.535 74.615 14.375 73.695C 14.7583 72.9283 15.1033 72.2 15.41 71.51C 15.7933 70.82 16.1767 70.13 16.56 69.44L 11.73 72.775C 10.35 73.6183 8.93167 74.4617 7.475 75.305C 6.095 76.1483 4.67667 76.9533 3.22 77.72C 2.76 77.95 2.22333 78.2183 1.61 78.525C 0.996667 78.8317 0.46 78.8317 0 78.525C -0.383333 78.2183 -0.536667 77.7967 -0.46 77.26C -0.46 76.7233 -0.23 76.34 0.23 76.11ZM 33.35 50.58C 35.1133 48.5867 36.57 46.6317 37.72 44.715C 38.1033 44.1783 38.4867 43.5267 38.87 42.76C 39.2533 41.9167 39.4833 41.1117 39.56 40.345C 38.7167 40.6517 37.9117 41.15 37.145 41.84C 36.455 42.4533 35.8033 43.0667 35.19 43.68C 33.7333 45.2133 32.3917 46.8233 31.165 48.51C 30.015 50.1967 28.9033 51.9217 27.83 53.685C 27.2167 54.7583 26.6033 55.8317 25.99 56.905C 25.4533 57.9017 24.8783 58.9367 24.265 60.01C 25.875 58.5533 27.4467 57.0583 28.98 55.525C 30.5133 53.9917 31.97 52.3433 33.35 50.58ZM -0.46 97.155C 1.76333 94.7017 3.795 92.0183 5.635 89.105C 7.55167 86.1917 9.35333 83.24 11.04 80.25C 8.20333 82.2433 5.635 84.735 3.335 87.725C 1.11167 90.7917 -0.153333 93.935 -0.46 97.155ZM 43.7422 70.935C 45.2756 70.3217 46.8472 69.785 48.4572 69.325C 50.1439 68.865 51.7539 68.405 53.2872 67.945C 54.2839 67.4083 55.3956 66.9867 56.6222 66.68C 57.8489 66.3733 58.9606 66.5267 59.9572 67.14C 60.5706 67.6 60.8006 68.2133 60.6472 68.98C 61.1839 68.9033 61.7206 69.0567 62.2572 69.44C 63.2539 70.4367 63.5989 71.625 63.2922 73.005C 62.9856 74.385 62.4106 75.7267 61.5672 77.03C 61.8739 77.4133 62.3339 77.7967 62.9472 78.18C 64.1739 78.9467 65.5156 79.2917 66.9722 79.215C 68.4289 79.1383 69.8089 78.9083 71.1122 78.525C 71.4956 78.4483 72.0706 78.2183 72.8372 77.835C 73.6039 77.4517 74.3706 77.1067 75.1372 76.8C 75.9806 76.4167 76.7472 76.1867 77.4372 76.11C 78.1272 75.9567 78.5872 76.11 78.8172 76.57C 79.1239 77.1833 79.0856 77.72 78.7022 78.18C 78.3189 78.5633 77.7822 78.9083 77.0922 79.215C 76.4789 79.445 75.8272 79.675 75.1372 79.905C 74.4472 80.135 73.9872 80.2883 73.7572 80.365C 72.6072 80.7483 71.3806 81.055 70.0772 81.285C 68.8506 81.515 67.6239 81.63 66.3972 81.63C 65.1706 81.63 63.9822 81.4767 62.8322 81.17C 61.6822 80.7867 60.6856 80.1733 59.8422 79.33L 57.3122 81.975C 56.3922 82.8183 55.3572 83.6617 54.2072 84.505C 53.0572 85.3483 51.8306 86.0383 50.5272 86.575C 49.3006 87.1883 47.9972 87.5717 46.6172 87.725C 45.2372 87.8783 43.9339 87.6867 42.7072 87.15C 41.1739 86.46 40.2539 85.5783 39.9472 84.505C 39.7172 83.355 39.8322 82.1667 40.2922 80.94C 40.7522 79.7133 41.4039 78.525 42.2472 77.375C 43.0906 76.225 43.8956 75.2667 44.6622 74.5L 46.8472 72.315C 45.0839 72.9283 43.3589 73.6183 41.6722 74.385C 39.9856 75.1517 38.2989 75.9567 36.6122 76.8C 36.3056 76.9533 35.9222 77.1833 35.4622 77.49C 35.0022 77.72 34.5422 77.95 34.0822 78.18C 33.6222 78.41 33.1622 78.6017 32.7022 78.755C 32.3189 78.8317 31.9739 78.755 31.6672 78.525C 31.1306 78.2183 30.9006 77.7967 30.9772 77.26C 31.0539 76.7233 31.3222 76.34 31.7822 76.11L 43.7422 70.935ZM 47.6522 74.96C 47.3456 75.2667 46.7706 75.8417 45.9272 76.685C 45.1606 77.5283 44.4706 78.41 43.8572 79.33C 43.2439 80.25 42.8606 81.1317 42.7072 81.975C 42.6306 82.7417 43.1289 83.2017 44.2022 83.355C 46.1956 83.6617 48.0739 83.585 49.8372 83.125C 51.6772 82.665 53.3256 81.7833 54.7822 80.48C 55.3956 79.8667 55.9706 79.2917 56.5072 78.755C 57.0439 78.2183 57.5039 77.605 57.8872 76.915C 57.5039 75.9183 57.2739 74.845 57.1972 73.695C 57.1972 72.545 57.5039 71.5483 58.1172 70.705C 55.9706 70.8583 54.0156 71.3183 52.2522 72.085C 50.5656 72.8517 49.0322 73.81 47.6522 74.96ZM 76.8164 76.11C 79.1931 75.0367 81.4931 73.8483 83.7164 72.545C 85.9397 71.2417 88.1631 69.8233 90.3864 68.29C 91.4597 66.1433 92.6481 64.0733 93.9514 62.08C 95.2547 60.0867 96.5197 58.1317 97.7464 56.215C 99.0497 54.4517 100.353 52.6883 101.656 50.925C 102.96 49.085 104.301 47.2833 105.681 45.52C 106.831 43.9867 108.058 42.4533 109.361 40.92C 110.741 39.31 112.313 38.0067 114.076 37.01C 114.92 36.55 115.955 36.2433 117.181 36.09C 118.408 35.86 119.251 36.3967 119.711 37.7C 120.018 38.5433 120.018 39.3867 119.711 40.23C 119.481 40.9967 119.098 41.8017 118.561 42.645C 118.025 43.4117 117.45 44.1783 116.836 44.945C 116.223 45.635 115.725 46.2483 115.341 46.785C 112.275 51.155 108.825 55.2567 104.991 59.09C 101.235 62.8467 97.1714 66.335 92.8014 69.555C 92.4181 70.475 91.9581 71.4717 91.4214 72.545C 90.9614 73.5417 90.5397 74.615 90.1564 75.765C 89.7731 76.915 89.5047 78.065 89.3514 79.215C 89.1981 80.2883 89.2364 81.3233 89.4664 82.32C 90.3097 82.1667 91.0764 82.0517 91.7664 81.975C 92.3797 81.8983 92.9547 81.86 93.4914 81.86C 94.0281 81.7833 94.3731 81.7067 94.5264 81.63C 96.8264 81.17 99.0881 80.5567 101.311 79.79C 103.535 79.0233 105.72 78.18 107.866 77.26C 108.48 77.1067 109.208 76.8 110.051 76.34C 110.895 75.88 111.623 75.8417 112.236 76.225C 113.08 76.8383 113.195 77.4133 112.581 77.95C 111.968 78.41 111.393 78.755 110.856 78.985L 97.5164 83.93C 96.2131 84.39 94.9481 84.8883 93.7214 85.425C 92.4947 85.885 91.2297 86.1533 89.9264 86.23C 88.7764 86.3833 87.8564 86.23 87.1664 85.77C 86.4764 85.2333 85.9781 84.5817 85.6714 83.815C 85.4414 82.9717 85.3647 82.09 85.4414 81.17C 85.5181 80.1733 85.6714 79.2533 85.9014 78.41C 86.4381 76.57 87.1281 74.73 87.9714 72.89C 84.8281 74.96 81.5314 76.8383 78.0814 78.525C 77.3147 78.6783 76.7014 78.4483 76.2414 77.835C 75.7047 77.145 75.8964 76.57 76.8164 76.11ZM 100.161 60.355C 103.765 56.9817 107.061 53.34 110.051 49.43C 111.431 47.82 112.735 45.98 113.961 43.91C 114.115 43.5267 114.345 43.0667 114.651 42.53C 114.958 41.9167 115.226 41.3033 115.456 40.69C 114.383 41.2267 113.348 41.955 112.351 42.875C 111.431 43.795 110.665 44.5617 110.051 45.175C 108.288 46.9383 106.64 48.8167 105.106 50.81C 103.573 52.7267 102.04 54.72 100.506 56.79C 99.6631 58.0167 98.8581 59.2433 98.0914 60.47C 97.3247 61.62 96.5964 62.8083 95.9064 64.035C 96.5964 63.4983 97.2864 62.9233 97.9764 62.31C 98.7431 61.62 99.4714 60.9683 100.161 60.355ZM 110.62 76.11C 112.997 75.0367 115.297 73.8483 117.52 72.545C 119.743 71.2417 121.967 69.8233 124.19 68.29C 125.263 66.1433 126.452 64.0733 127.755 62.08C 129.058 60.0867 130.323 58.1317 131.55 56.215C 132.853 54.4517 134.157 52.6883 135.46 50.925C 136.763 49.085 138.105 47.2833 139.485 45.52C 140.635 43.9867 141.862 42.4533 143.165 40.92C 144.545 39.31 146.117 38.0067 147.88 37.01C 148.723 36.55 149.758 36.2433 150.985 36.09C 152.212 35.86 153.055 36.3967 153.515 37.7C 153.822 38.5433 153.822 39.3867 153.515 40.23C 153.285 40.9967 152.902 41.8017 152.365 42.645C 151.828 43.4117 151.253 44.1783 150.64 44.945C 150.027 45.635 149.528 46.2483 149.145 46.785C 146.078 51.155 142.628 55.2567 138.795 59.09C 135.038 62.8467 130.975 66.335 126.605 69.555C 126.222 70.475 125.762 71.4717 125.225 72.545C 124.765 73.5417 124.343 74.615 123.96 75.765C 123.577 76.915 123.308 78.065 123.155 79.215C 123.002 80.2883 123.04 81.3233 123.27 82.32C 124.113 82.1667 124.88 82.0517 125.57 81.975C 126.183 81.8983 126.758 81.86 127.295 81.86C 127.832 81.7833 128.177 81.7067 128.33 81.63C 130.63 81.17 132.892 80.5567 135.115 79.79C 137.338 79.0233 139.523 78.18 141.67 77.26C 142.283 77.1067 143.012 76.8 143.855 76.34C 144.698 75.88 145.427 75.8417 146.04 76.225C 146.883 76.8383 146.998 77.4133 146.385 77.95C 145.772 78.41 145.197 78.755 144.66 78.985L 131.32 83.93C 130.017 84.39 128.752 84.8883 127.525 85.425C 126.298 85.885 125.033 86.1533 123.73 86.23C 122.58 86.3833 121.66 86.23 120.97 85.77C 120.28 85.2333 119.782 84.5817 119.475 83.815C 119.245 82.9717 119.168 82.09 119.245 81.17C 119.322 80.1733 119.475 79.2533 119.705 78.41C 120.242 76.57 120.932 74.73 121.775 72.89C 118.632 74.96 115.335 76.8383 111.885 78.525C 111.118 78.6783 110.505 78.4483 110.045 77.835C 109.508 77.145 109.7 76.57 110.62 76.11ZM 133.965 60.355C 137.568 56.9817 140.865 53.34 143.855 49.43C 145.235 47.82 146.538 45.98 147.765 43.91C 147.918 43.5267 148.148 43.0667 148.455 42.53C 148.762 41.9167 149.03 41.3033 149.26 40.69C 148.187 41.2267 147.152 41.955 146.155 42.875C 145.235 43.795 144.468 44.5617 143.855 45.175C 142.092 46.9383 140.443 48.8167 138.91 50.81C 137.377 52.7267 135.843 54.72 134.31 56.79C 133.467 58.0167 132.662 59.2433 131.895 60.47C 131.128 61.62 130.4 62.8083 129.71 64.035C 130.4 63.4983 131.09 62.9233 131.78 62.31C 132.547 61.62 133.275 60.9683 133.965 60.355ZM 156.384 70.935C 157.917 70.3217 159.489 69.785 161.099 69.325C 162.785 68.865 164.395 68.405 165.929 67.945C 166.925 67.4083 168.037 66.9867 169.264 66.68C 170.49 66.3733 171.602 66.5267 172.599 67.14C 173.212 67.6 173.442 68.2133 173.289 68.98C 173.825 68.9033 174.362 69.0567 174.899 69.44C 175.895 70.4367 176.24 71.625 175.934 73.005C 175.627 74.385 175.052 75.7267 174.209 77.03C 174.515 77.4133 174.975 77.7967 175.589 78.18C 176.815 78.9467 178.157 79.2917 179.614 79.215C 181.07 79.1383 182.45 78.9083 183.754 78.525C 184.137 78.4483 184.712 78.2183 185.479 77.835C 186.245 77.4517 187.012 77.1067 187.779 76.8C 188.622 76.4167 189.389 76.1867 190.079 76.11C 190.769 75.9567 191.229 76.11 191.459 76.57C 191.765 77.1833 191.727 77.72 191.344 78.18C 190.96 78.5633 190.424 78.9083 189.734 79.215C 189.12 79.445 188.469 79.675 187.779 79.905C 187.089 80.135 186.629 80.2883 186.399 80.365C 185.249 80.7483 184.022 81.055 182.719 81.285C 181.492 81.515 180.265 81.63 179.039 81.63C 177.812 81.63 176.624 81.4767 175.474 81.17C 174.324 80.7867 173.327 80.1733 172.484 79.33L 169.954 81.975C 169.034 82.8183 167.999 83.6617 166.849 84.505C 165.699 85.3483 164.472 86.0383 163.169 86.575C 161.942 87.1883 160.639 87.5717 159.259 87.725C 157.879 87.8783 156.575 87.6867 155.349 87.15C 153.815 86.46 152.895 85.5783 152.589 84.505C 152.359 83.355 152.474 82.1667 152.934 80.94C 153.394 79.7133 154.045 78.525 154.889 77.375C 155.732 76.225 156.537 75.2667 157.304 74.5L 159.489 72.315C 157.725 72.9283 156 73.6183 154.314 74.385C 152.627 75.1517 150.94 75.9567 149.254 76.8C 148.947 76.9533 148.564 77.1833 148.104 77.49C 147.644 77.72 147.184 77.95 146.724 78.18C 146.264 78.41 145.804 78.6017 145.344 78.755C 144.96 78.8317 144.615 78.755 144.309 78.525C 143.772 78.2183 143.542 77.7967 143.619 77.26C 143.695 76.7233 143.964 76.34 144.424 76.11L 156.384 70.935ZM 160.294 74.96C 159.987 75.2667 159.412 75.8417 158.569 76.685C 157.802 77.5283 157.112 78.41 156.499 79.33C 155.885 80.25 155.502 81.1317 155.349 81.975C 155.272 82.7417 155.77 83.2017 156.844 83.355C 158.837 83.6617 160.715 83.585 162.479 83.125C 164.319 82.665 165.967 81.7833 167.424 80.48C 168.037 79.8667 168.612 79.2917 169.149 78.755C 169.685 78.2183 170.145 77.605 170.529 76.915C 170.145 75.9183 169.915 74.845 169.839 73.695C 169.839 72.545 170.145 71.5483 170.759 70.705C 168.612 70.8583 166.657 71.3183 164.894 72.085C 163.207 72.8517 161.674 73.81 160.294 74.96ZM 189.458 76.11C 190.915 75.4967 192.333 74.8833 193.713 74.27C 195.17 73.58 196.665 72.9283 198.198 72.315C 199.655 71.7017 201.188 71.1267 202.798 70.59C 204.408 70.0533 205.865 69.2867 207.168 68.29C 207.781 67.83 208.586 67.5617 209.583 67.485C 210.58 67.4083 211.231 67.9067 211.538 68.98C 211.691 69.9767 211.27 70.8583 210.273 71.625C 209.353 72.315 208.586 72.9283 207.973 73.465C 207.053 74.3083 206.133 75.2283 205.213 76.225C 204.293 77.145 203.45 78.1417 202.683 79.215C 202.376 79.7517 201.878 80.5183 201.188 81.515C 200.575 82.435 200.191 83.3167 200.038 84.16C 202.951 84.0067 205.826 83.0867 208.663 81.4C 211.5 79.7133 213.915 77.7583 215.908 75.535C 216.138 74.9983 216.406 74.4233 216.713 73.81C 217.096 73.1967 217.518 72.6217 217.978 72.085C 218.438 71.4717 218.936 70.9733 219.473 70.59C 220.01 70.2067 220.585 70.015 221.198 70.015C 222.118 70.015 222.731 70.4367 223.038 71.28C 223.421 72.1233 223.306 72.8517 222.693 73.465C 222.156 74.3083 221.466 75.075 220.623 75.765C 219.856 76.455 219.051 77.145 218.208 77.835C 218.055 78.6783 218.016 79.56 218.093 80.48C 218.17 81.4 218.668 81.8983 219.588 81.975C 220.968 82.1283 222.31 81.86 223.613 81.17C 224.916 80.48 226.45 79.5217 228.213 78.295C 227.83 76.8383 227.983 75.3433 228.673 73.81C 229.286 72.5833 230.245 71.395 231.548 70.245C 232.928 69.0183 234.385 68.4433 235.918 68.52C 236.455 68.52 236.953 68.7117 237.413 69.095C 237.873 69.4783 238.18 69.8617 238.333 70.245C 238.41 70.705 238.141 71.3567 237.528 72.2C 236.991 72.9667 236.34 73.81 235.573 74.73C 234.806 75.5733 234.04 76.3783 233.273 77.145C 232.583 77.9117 232.085 78.41 231.778 78.64C 232.391 79.2533 233.235 79.56 234.308 79.56C 235.458 79.56 236.455 79.4833 237.298 79.33C 239.291 79.1767 241.285 78.8317 243.278 78.295C 245.271 77.6817 247.15 76.9533 248.913 76.11C 249.296 75.88 249.641 75.8417 249.948 75.995C 250.255 76.1483 250.485 76.3783 250.638 76.685C 250.791 76.9917 250.83 77.3367 250.753 77.72C 250.753 78.0267 250.561 78.295 250.178 78.525C 249.258 79.0617 248.261 79.4833 247.188 79.79C 246.191 80.02 245.195 80.2883 244.198 80.595C 242.358 81.2083 240.403 81.6683 238.333 81.975C 236.34 82.2817 234.346 82.2433 232.353 81.86C 231.51 81.7833 230.705 81.4 229.938 80.71C 228.328 82.2433 226.641 83.585 224.878 84.735C 223.191 85.8083 221.428 86.2683 219.588 86.115C 217.901 86.0383 216.79 85.3483 216.253 84.045C 215.716 82.7417 215.448 81.3233 215.448 79.79L 212.918 81.63C 211.231 82.78 209.506 83.9683 207.743 85.195C 206.056 86.345 204.178 87.2267 202.108 87.84C 201.418 88.07 200.69 88.185 199.923 88.185C 199.156 88.185 198.466 88.0317 197.853 87.725C 197.24 87.495 196.741 87.0733 196.358 86.46C 196.051 85.8467 196.013 85.0417 196.243 84.045C 196.626 82.8183 197.201 81.7067 197.968 80.71C 198.811 79.6367 199.655 78.6017 200.498 77.605C 201.111 76.8383 201.801 75.995 202.568 75.075C 203.335 74.155 204.025 73.2733 204.638 72.43C 203.718 72.7367 202.76 73.0817 201.763 73.465C 200.766 73.7717 199.885 74.1167 199.118 74.5C 197.815 75.1133 196.55 75.7267 195.323 76.34C 194.096 76.8767 192.87 77.49 191.643 78.18C 191.183 78.3333 190.685 78.4867 190.148 78.64C 189.611 78.7933 189.151 78.5633 188.768 77.95C 188.461 77.1067 188.691 76.4933 189.458 76.11ZM 282.671 76.11C 284.664 75.4967 286.619 74.7683 288.536 73.925C 290.453 73.005 292.369 72.1233 294.286 71.28C 294.746 71.05 295.436 70.6283 296.356 70.015C 297.353 69.325 298.349 68.7117 299.346 68.175C 300.343 67.6383 301.263 67.2933 302.106 67.14C 303.026 66.91 303.716 67.14 304.176 67.83C 304.559 68.4433 304.598 69.0567 304.291 69.67C 304.061 70.2067 303.678 70.7817 303.141 71.395C 302.604 71.9317 302.029 72.4683 301.416 73.005C 300.803 73.465 300.343 73.8483 300.036 74.155C 298.886 75.305 297.774 76.57 296.701 77.95C 295.628 79.33 295.091 80.7867 295.091 82.32C 296.471 82.32 297.928 81.975 299.461 81.285C 300.994 80.595 302.336 80.02 303.486 79.56C 307.166 77.8733 310.808 75.9567 314.411 73.81C 316.404 72.5833 318.206 71.3567 319.816 70.13C 320.506 69.67 321.196 69.67 321.886 70.13C 322.653 70.59 322.959 71.28 322.806 72.2C 322.653 72.89 322.308 73.58 321.771 74.27C 321.311 74.8833 320.889 75.535 320.506 76.225C 320.123 76.8383 319.739 77.6817 319.356 78.755C 319.049 79.8283 319.049 80.7867 319.356 81.63C 320.199 82.09 321.234 82.1667 322.461 81.86C 323.688 81.4767 324.684 81.17 325.451 80.94C 328.748 79.79 331.814 78.4867 334.651 77.03C 335.188 76.8 335.839 76.4933 336.606 76.11C 337.449 75.65 338.063 75.8033 338.446 76.57C 338.829 77.26 338.753 77.7967 338.216 78.18C 337.756 78.4867 337.258 78.755 336.721 78.985L 329.131 82.55C 327.521 83.24 325.758 84.045 323.841 84.965C 321.924 85.8083 320.008 86 318.091 85.54C 316.711 85.1567 315.906 84.39 315.676 83.24C 315.523 82.0133 315.638 80.8633 316.021 79.79L 317.746 75.65C 315.753 76.57 313.798 77.5283 311.881 78.525C 310.041 79.5217 308.124 80.4417 306.131 81.285C 305.288 81.745 304.291 82.32 303.141 83.01C 301.991 83.6233 300.764 84.2367 299.461 84.85C 298.234 85.3867 297.008 85.77 295.781 86C 294.554 86.3067 293.481 86.2683 292.561 85.885C 291.641 85.5783 291.143 85.0033 291.066 84.16C 291.066 83.24 291.296 82.205 291.756 81.055C 292.216 79.905 292.868 78.6783 293.711 77.375C 294.554 76.0717 295.436 74.8067 296.356 73.58L 293.596 74.845C 290.453 75.995 288.191 76.8767 286.811 77.49C 285.431 78.1033 284.358 78.4867 283.591 78.64C 283.131 78.7933 282.786 78.755 282.556 78.525C 282.249 78.295 282.058 78.0267 281.981 77.72C 281.828 77.4133 281.828 77.1067 281.981 76.8C 282.058 76.4933 282.288 76.2633 282.671 76.11ZM 336.459 76.225C 336.996 75.9183 337.954 75.3817 339.334 74.615C 340.791 73.7717 342.363 72.9283 344.049 72.085C 345.813 71.2417 347.576 70.475 349.339 69.785C 351.103 69.0183 352.636 68.5967 353.939 68.52C 354.399 68.3667 354.859 68.405 355.319 68.635C 355.856 68.7883 356.239 69.0183 356.469 69.325C 356.929 70.0917 356.968 70.705 356.584 71.165C 356.201 71.5483 355.703 71.8933 355.089 72.2C 354.476 72.5067 353.786 72.775 353.019 73.005C 352.329 73.1583 351.869 73.3883 351.639 73.695C 351.256 74.155 351.333 74.5767 351.869 74.96C 352.483 75.3433 353.211 75.65 354.054 75.88C 354.898 76.11 355.741 76.34 356.584 76.57C 357.428 76.7233 357.964 76.8767 358.194 77.03C 359.728 77.8733 360.609 78.7933 360.839 79.79C 361.146 80.71 360.993 81.6683 360.379 82.665L 363.484 81.055L 372.684 76.225C 373.221 75.9183 373.681 75.9183 374.064 76.225C 374.524 76.455 374.754 76.8767 374.754 77.49C 374.754 78.1033 374.409 78.5633 373.719 78.87C 373.106 79.1 372.531 79.33 371.994 79.56C 370.154 80.4033 368.276 81.3233 366.359 82.32C 364.519 83.24 362.679 84.1983 360.839 85.195C 358.616 86.2683 356.469 87.2267 354.399 88.07C 352.406 88.9133 350.336 89.335 348.189 89.335C 346.656 89.335 345.276 88.7983 344.049 87.725C 342.899 86.6517 342.324 85.425 342.324 84.045C 342.248 83.355 342.401 82.8183 342.784 82.435C 343.168 81.975 343.628 81.7067 344.164 81.63C 344.701 81.4767 345.161 81.5533 345.544 81.86C 346.004 82.1667 346.273 82.665 346.349 83.355C 346.503 84.8883 347.154 85.77 348.304 86C 349.531 86.3067 350.949 86.2683 352.559 85.885C 353.633 85.5017 354.591 85.0417 355.434 84.505C 356.354 83.8917 357.006 83.3167 357.389 82.78C 358.386 81.7067 358.654 80.8633 358.194 80.25C 357.734 79.6367 356.929 79.1383 355.779 78.755C 354.706 78.3717 353.556 78.065 352.329 77.835C 351.103 77.5283 350.259 77.1833 349.799 76.8C 349.109 76.1867 348.688 75.5733 348.534 74.96C 348.458 74.3467 348.496 73.7333 348.649 73.12C 347.499 73.58 346.349 74.0783 345.199 74.615C 344.126 75.075 343.129 75.4967 342.209 75.88C 341.519 76.2633 340.676 76.8383 339.679 77.605C 338.759 78.295 337.916 78.64 337.149 78.64C 336.766 78.7167 336.459 78.6783 336.229 78.525C 335.923 78.295 335.769 78.065 335.769 77.835C 335.693 77.5283 335.731 77.2217 335.884 76.915C 335.961 76.6083 336.153 76.3783 336.459 76.225Z"/>
</defs>
</svg>
