<svg width="1266" height="230" viewBox="0 0 1266 230" version="1.1" xmlns="http://www.w3.org/2000/svg" xmlns:xlink="http://www.w3.org/1999/xlink">
<title>landing-hero-en</title>
<desc>Created using Figma</desc>
<g id="Canvas" transform="translate(1925 -772)">
<g id="landing-hero-en">
<g id="Vector">
<use xlink:href="#path0_fill" transform="translate(-758.104 773.268)" fill="#FFFFFF"/>
</g>
<g id="Vector">
<use xlink:href="#path1_fill" transform="translate(-961.759 773.268)" fill="#FFFFFF"/>
</g>
<g id="Vector">
<use xlink:href="#path2_fill" transform="translate(-1038.97 773.268)" fill="#FFFFFF"/>
</g>
<g id="Vector">
<use xlink:href="#path3_fill" transform="translate(-1242.62 773.268)" fill="#FFFFFF"/>
</g>
<g id="Vector">
<use xlink:href="#path4_fill" transform="translate(-1417.1 772.423)" fill="#FFFFFF"/>
</g>
<g id="Vector">
<use xlink:href="#path5_fill" transform="translate(-1567.8 773.268)" fill="#FFFFFF"/>
</g>
<g id="Vector">
<use xlink:href="#path6_fill" transform="translate(-1729.32 773.268)" fill="#FFFFFF"/>
</g>
<g id="Vector">
<use xlink:href="#path7_fill" transform="translate(-1925 772)" fill="#FFFFFF"/>
</g>
<g id="go beyond what you see">
<use xlink:href="#path8_fill" transform="translate(-1919 951)" fill="#FFFFFF"/>
</g>
</g>
</g>
<defs>
<path id="path0_fill" d="M 21.5076 20.7099L 21.5076 66.3563L 64.523 66.3563C 66.2099 66.3563 67.8967 67.6243 67.8967 69.7376L 67.8967 83.6851C 67.8967 85.7983 66.6316 87.0663 64.523 87.0663L 21.5076 87.0663L 21.5076 130.177L 95.7301 130.177C 97.417 130.177 99.104 131.445 99.104 133.558L 99.104 147.506C 99.104 149.196 97.8387 150.887 95.7301 150.887L 3.37375 150.887C 1.68688 150.887 5.14794e-05 149.619 5.14794e-05 147.506L 5.14794e-05 2.95856C 5.14794e-05 1.26796 1.26513 5.0384e-08 2.95201 5.0384e-08L 95.7301 5.0384e-08C 97.417 5.0384e-08 99.104 1.26796 99.104 2.95856L 99.104 17.3287C 99.104 19.0193 97.8387 20.2873 95.7301 20.2873L 21.5076 20.2873L 21.5076 20.7099Z"/>
<path id="path1_fill" d="M 146.722 3.80387L 77.5605 148.773C 77.1388 150.041 75.8736 151.309 74.1867 151.309L 72.4999 151.309C 70.813 151.309 69.5478 150.041 69.1261 148.773L 0.385922 3.80387C -0.879235 1.69061 1.22939 5.0384e-08 2.91626 5.0384e-08L 21.8936 5.0384e-08C 23.5805 5.0384e-08 24.4239 1.69061 25.2673 3.38122L 73.765 109.044L 122.263 3.38122C 123.106 1.69061 123.95 5.0384e-08 125.636 5.0384e-08L 144.614 5.0384e-08C 146.301 5.0384e-08 147.988 1.69061 146.722 3.80387Z"/>
<path id="path2_fill" d="M 17.7122 5.0384e-08C 19.3991 5.0384e-08 20.6642 1.26796 20.6642 2.95856L 20.6642 147.083C 20.6642 148.773 19.3991 150.464 17.7122 150.464L 3.37372 150.464C 1.68685 150.464 2.57397e-05 149.196 2.57397e-05 147.083L 2.57397e-05 2.95856C 2.57397e-05 1.26796 1.26517 5.0384e-08 2.95204 5.0384e-08L 17.7122 5.0384e-08L 17.7122 5.0384e-08Z"/>
<path id="path3_fill" d="M 146.722 3.80387L 77.5605 148.773C 77.1387 150.041 75.8736 151.309 74.1867 151.309L 72.4998 151.309C 70.813 151.309 69.5478 150.041 69.1261 148.773L 0.385896 3.80387C -0.879261 1.69061 1.22936 5.0384e-08 2.91624 5.0384e-08L 21.8936 5.0384e-08C 23.5805 5.0384e-08 24.4239 1.69061 25.2673 3.38122L 73.765 109.044L 122.263 3.38122C 123.106 1.69061 123.95 5.0384e-08 125.636 5.0384e-08L 144.614 5.0384e-08C 146.301 5.0384e-08 147.988 1.69061 146.722 3.80387Z"/>
<path id="path4_fill" d="M 147.027 151.309L 130.158 151.309C 128.471 151.309 127.628 150.464 126.784 149.196L 114.976 124.682L 34.006 124.682L 22.6196 149.196C 21.7761 150.464 20.9327 151.309 19.2458 151.309L 2.37706 151.309C 0.690185 151.309 -0.574972 149.619 0.268466 147.928L 71.1172 1.69061C 71.539 0.422652 72.8041 6.298e-09 73.6475 6.298e-09L 76.1779 6.298e-09C 77.0213 6.298e-09 77.8648 0.422652 78.7082 1.69061L 149.135 147.928C 149.557 149.619 149.135 151.309 147.027 151.309ZM 105.698 105.24L 74.491 38.884L 43.2838 105.24L 105.698 105.24Z"/>
<path id="path5_fill" d="M 94.0433 133.135L 94.0433 147.506C 94.0433 149.196 92.7782 150.464 91.0913 150.464L 2.53033 150.464C 0.843451 150.464 -1.28698e-05 149.196 -1.28698e-05 147.506L -1.28698e-05 2.95856C -1.28698e-05 1.26796 1.26516 5.0384e-08 2.95204 5.0384e-08L 18.1339 5.0384e-08C 19.8208 5.0384e-08 21.0859 1.26796 21.0859 2.95856L 21.0859 129.754L 90.6695 129.754C 92.7781 129.754 94.0433 131.022 94.0433 133.135Z"/>
<path id="path6_fill" d="M 21.0859 20.7099L 21.0859 66.3563L 64.1013 66.3563C 65.7881 66.3563 67.475 67.6243 67.475 69.7376L 67.475 83.6851C 67.475 85.7983 66.2099 87.0663 64.1013 87.0663L 21.0859 87.0663L 21.0859 130.177L 95.3085 130.177C 96.9953 130.177 98.6822 131.445 98.6822 133.558L 98.6822 147.506C 98.6822 149.196 97.4171 150.887 95.3085 150.887L 3.37375 150.887C 1.68688 150.887 6.43492e-06 149.619 6.43492e-06 147.506L 6.43492e-06 2.95856C 6.43492e-06 1.26796 1.26515 5.0384e-08 2.95203 5.0384e-08L 95.7302 5.0384e-08C 97.417 5.0384e-08 99.1039 1.26796 99.1039 2.95856L 99.1039 17.3287C 99.1039 19.0193 97.8388 20.2873 95.7302 20.2873L 21.0859 20.2873L 21.0859 20.7099Z"/>
<path id="path7_fill" d="M 131.576 129.331C 117.66 144.124 98.6822 153 76.3311 153C 34.5809 153 0 119.61 0 76.9227C 0 34.2348 34.5809 0 76.3311 0C 98.2605 0 118.081 8.87569 131.998 23.6685C 133.685 25.3591 133.685 27.0497 131.998 28.3177L 120.19 38.0387C 118.503 39.3066 117.238 39.3066 115.973 38.0387C 107.96 29.5856 94.0433 20.7099 77.1745 20.7099C 43.0153 20.2873 21.0859 48.605 21.0859 76.9227C 21.0859 105.24 43.0153 132.713 76.7528 132.713C 93.6216 132.713 107.117 124.26 115.129 115.807C 116.816 114.116 118.081 114.116 119.768 114.961L 131.576 124.682C 133.263 125.95 133.263 127.641 131.576 129.331Z"/>
<path id="path8_fill" d="M 366.767 24.25C 366.767 26.45 367.917 28.55 369.717 29.85C 367.167 30.35 364.317 31.95 364.317 34.9C 364.317 36.8 365.167 37.75 366.967 38.35L 366.967 38.5C 364.167 39.75 361.617 41.7 361.617 45.2C 361.617 48.9 366.117 51 370.967 51C 379.817 51 384.167 44.25 384.167 40.05C 384.167 35.2 380.667 34.8 377.467 34.8C 374.867 34.8 372.317 35 369.867 35C 366.667 35 366.117 34.35 366.117 33.25C 366.117 31.65 368.317 30.6 370.317 30.2C 371.167 30.65 372.667 30.95 373.867 30.95C 379.317 30.95 383.617 26.65 383.617 22.85C 383.617 21.85 383.567 20.8 383.117 19.8C 383.567 18.5 384.717 16.85 385.367 16.85C 385.517 16.85 385.767 16.85 385.767 17.1C 385.767 17.3 385.617 17.45 385.617 17.9C 385.617 19.05 386.217 19.9 387.567 19.9C 389.067 19.9 389.517 18.7 389.517 17.8C 389.517 16.7 388.967 15.4 387.167 15.4C 384.617 15.4 383.217 18.1 382.817 18.95C 381.667 16.75 379.067 15.4 376.767 15.4C 372.067 15.4 366.767 19.1 366.767 24.25ZM 379.717 38.6C 380.817 38.6 382.667 39 382.667 41.35C 382.667 45.05 378.567 50.2 371.667 50.2C 365.617 50.2 363.717 46.85 363.717 44.8C 363.717 40.35 367.617 38.6 368.317 38.6L 379.717 38.6ZM 380.317 19.8C 380.317 20.85 378.817 30.15 374.067 30.15C 371.867 30.15 370.367 28.9 370.367 26.65C 370.367 24.15 372.167 16.2 376.817 16.2C 378.967 16.2 380.317 17.55 380.317 19.8ZM 391.417 28.85C 391.417 33.7 394.017 37.6 399.517 37.6C 405.517 37.6 412.067 31.55 412.067 23.45C 412.067 18.4 407.917 15.4 404.417 15.4C 397.017 15.4 391.417 22.6 391.417 28.85ZM 404.117 16.2C 406.967 16.2 408.467 17.75 408.467 20.2C 408.467 23.1 405.767 31.6 404.467 33.8C 404.017 34.5 402.467 36.8 399.367 36.8C 396.517 36.8 395.017 34.85 395.017 32.45C 395.017 30.1 397.717 21.45 398.767 19.65C 399.867 17.75 401.567 16.2 404.117 16.2ZM 435.583 26.65C 435.233 27.9 434.833 29.65 434.833 31.2C 434.833 35.2 438.483 37.6 442.533 37.6C 452.033 37.6 456.783 27.6 456.783 23.45C 456.783 17.55 453.633 15.4 449.833 15.4C 446.933 15.4 443.433 17.05 441.583 19.8L 441.483 19.7L 447.183 0.249999C 445.583 1.2 443.583 1.5 441.633 1.5L 439.383 1.5L 439.183 2.3L 442.583 2.3L 435.583 26.65ZM 452.883 20.5C 452.883 22.5 450.733 36.8 442.983 36.8C 439.683 36.8 438.333 34.3 438.333 32.95C 438.333 31.1 439.583 22.95 442.733 19.4C 444.433 17.5 446.883 16.2 449.233 16.2C 452.183 16.2 452.883 18.1 452.883 20.5ZM 479.516 31.25C 478.666 32.35 475.516 36.8 471.216 36.8C 467.566 36.8 466.516 34.25 466.516 30.95C 466.516 29.7 466.866 27.6 467.366 25.7C 468.566 26.2 469.866 26.45 471.166 26.45C 476.816 26.45 481.516 23.6 481.516 19.75C 481.516 16.6 478.566 15.4 476.066 15.4C 469.816 15.4 462.616 21.4 462.616 29.1C 462.616 35.55 467.766 37.6 470.466 37.6C 475.916 37.6 478.966 33.05 480.016 31.6L 479.516 31.25ZM 478.216 19.25C 478.216 21.3 476.566 25.65 471.166 25.65C 469.666 25.65 468.366 25.2 467.566 24.95C 468.716 21.35 470.716 16.2 475.216 16.2C 477.066 16.2 478.216 17.5 478.216 19.25ZM 497.383 32.35L 497.283 32.35L 495.783 20.75C 495.483 18.3 495.083 15.4 492.483 15.4C 488.383 15.4 485.783 21.05 485.133 22.15L 485.833 22.4C 486.433 21.45 488.383 17.5 490.083 17.5C 491.033 17.5 491.283 18.95 491.433 19.95L 493.883 37.9C 492.233 41 487.583 47.85 483.683 47.85C 483.133 47.85 482.833 47.65 482.833 47.35C 482.833 46.8 483.683 46.6 483.683 45.35C 483.683 43.75 482.733 43.1 481.583 43.1C 480.283 43.1 479.183 44.2 479.183 45.65C 479.183 47.55 480.683 48.7 482.783 48.7C 488.883 48.7 493.483 40.7 497.683 33.1L 503.433 22.7C 505.783 18.45 507.283 16.9 507.683 16.9C 507.833 16.9 507.883 17 507.883 17.15C 507.883 17.6 507.583 17.95 507.583 18.45C 507.583 19.55 508.633 20.2 509.583 20.2C 510.833 20.2 511.783 19.25 511.783 17.95C 511.783 16.15 510.783 15.4 509.383 15.4C 506.783 15.4 505.233 18.05 502.733 22.6L 497.383 32.35ZM 512.833 28.85C 512.833 33.7 515.433 37.6 520.933 37.6C 526.933 37.6 533.483 31.55 533.483 23.45C 533.483 18.4 529.333 15.4 525.833 15.4C 518.433 15.4 512.833 22.6 512.833 28.85ZM 525.533 16.2C 528.383 16.2 529.883 17.75 529.883 20.2C 529.883 23.1 527.183 31.6 525.883 33.8C 525.433 34.5 523.883 36.8 520.783 36.8C 517.933 36.8 516.433 34.85 516.433 32.45C 516.433 30.1 519.133 21.45 520.183 19.65C 521.283 17.75 522.983 16.2 525.533 16.2ZM 538.733 37L 542.733 37L 545.733 26.7C 547.733 19.9 553.883 16.2 556.233 16.2C 557.583 16.2 558.133 16.85 558.133 17.85C 558.133 19.95 553.383 30.5 553.383 33.6C 553.383 35.85 554.283 37.3 556.633 37.3C 560.283 37.3 562.633 33.55 563.633 32.1L 563.133 31.75C 562.333 32.7 560.283 36.1 558.133 36.1C 557.333 36.1 556.983 35.35 556.983 34.55C 556.983 33.3 561.733 21.6 561.733 19.45C 561.733 17.2 560.233 15.4 557.033 15.4C 553.133 15.4 549.333 18.65 547.133 22.3L 547.033 22.3L 549.083 15.4C 546.933 16.3 544.833 16.5 542.683 16.5L 541.633 16.5L 541.433 17.3L 544.533 17.3L 538.733 37ZM 588.516 2.3L 591.916 2.3L 587.166 19.45L 587.066 19.45C 586.516 17.9 585.116 15.4 581.416 15.4C 576.316 15.4 568.616 21.5 568.616 29.05C 568.616 34.4 571.716 37.6 575.616 37.6C 579.616 37.6 581.916 34.4 582.966 33L 583.066 33.1C 582.766 35.05 583.616 37.6 585.916 37.6C 588.016 37.6 589.866 36.45 591.066 34.75L 592.766 32.4L 592.166 32.05L 590.966 33.7C 590.316 34.55 588.816 36.4 587.616 36.4C 586.766 36.4 586.366 35.85 586.366 35.15C 586.316 34.45 586.566 33.6 586.716 33.1L 596.516 0.249999C 594.916 1.2 592.916 1.5 590.966 1.5L 588.716 1.5L 588.516 2.3ZM 572.516 32.7C 572.416 27.4 575.716 16.2 582.316 16.2C 584.916 16.2 586.566 19.35 586.566 20.5C 586.566 22 583.016 32.05 582.366 32.95C 580.816 35.1 578.366 36.8 575.966 36.8C 573.666 36.8 572.566 35.1 572.516 32.7ZM 628.316 28.05C 628.266 28.25 623.316 36.5 619.116 36.5C 618.216 36.5 617.266 35.95 617.266 35C 617.266 34.3 617.566 33.5 618.066 31.85L 623.166 15.4C 621.016 16.3 618.916 16.5 616.766 16.5L 615.466 16.5L 615.266 17.3L 618.366 17.3L 614.266 30.8C 614.116 31.25 613.666 33.2 613.666 33.85C 613.666 36.1 615.766 37.3 617.816 37.3C 622.616 37.3 625.616 33.4 627.466 30.65L 627.566 30.75C 627.216 31.6 627.016 32.65 627.016 33.6C 627.016 36.6 629.266 37.3 631.716 37.3C 639.116 37.3 646.366 24.5 646.366 19.05C 646.366 17.3 645.566 15.4 643.616 15.4C 642.116 15.4 641.166 16.45 641.166 17.95C 641.166 20.9 644.566 19.55 644.566 22.15C 644.566 26.1 637.716 36.5 632.416 36.5C 631.266 36.5 630.616 35.85 630.616 34.7C 630.616 34.55 630.716 34.1 630.866 33.5L 635.916 16.5L 631.966 16.5L 628.316 28.05ZM 650.3 37L 654.3 37L 657.3 26.7C 659.3 19.9 665.45 16.2 667.8 16.2C 669.15 16.2 669.7 16.85 669.7 17.85C 669.7 19.95 664.95 30.5 664.95 33.6C 664.95 35.85 665.85 37.3 668.2 37.3C 671.85 37.3 674.2 33.55 675.2 32.1L 674.7 31.75C 673.9 32.7 671.85 36.1 669.7 36.1C 668.9 36.1 668.55 35.35 668.55 34.55C 668.55 33.3 673.3 21.6 673.3 19.45C 673.3 17.2 671.8 15.4 668.6 15.4C 664.7 15.4 660.9 18.65 658.7 22.3L 658.6 22.3L 665.05 0.249999C 663.45 1.2 661.45 1.5 659.5 1.5L 657.25 1.5L 657.05 2.3L 660.45 2.3L 650.3 37ZM 684.083 32.8C 684.083 28.95 687.033 16.2 693.433 16.2C 696.533 16.2 698.033 18.85 698.033 20.65C 698.033 21.65 697.033 24 695.783 28.1C 694.383 32.75 691.933 36.8 687.683 36.8C 685.433 36.8 684.083 35.45 684.083 32.8ZM 703.433 16.5L 699.583 16.5L 698.633 19.55L 698.533 19.55C 698.183 18.05 696.883 15.4 693.633 15.4C 687.383 15.4 680.183 22.1 680.183 29.1C 680.183 33.75 682.883 37.6 687.633 37.6C 690.533 37.6 693.333 35.15 694.533 33.1L 694.633 33.1C 694.683 34.65 694.833 37.6 698.233 37.6C 701.433 37.6 703.633 33.5 704.283 32.6L 703.783 32.1C 703.083 33.05 700.883 36.4 699.133 36.4C 698.333 36.4 697.933 35.8 697.933 35C 697.933 34.2 698.233 33.2 698.483 32.4L 703.433 16.5ZM 711.116 30.1C 710.666 31.5 710.316 32.75 710.316 33.75C 710.316 36.35 712.016 37.3 714.416 37.3C 718.216 37.3 721.366 33.7 723.516 31L 722.966 30.6C 720.616 34.05 717.066 36.5 715.466 36.5C 714.416 36.5 713.916 35.8 713.916 35.05C 713.916 34.3 714.116 33.35 714.266 32.8L 719.166 17.3L 725.016 17.3L 725.266 16.5L 719.416 16.5L 722.016 8.25C 720.716 9.25 719.166 9.65 717.516 9.65L 715.366 16.5L 711.716 16.5L 711.466 17.3L 715.116 17.3L 711.116 30.1ZM 754.082 32.35L 753.982 32.35L 752.482 20.75C 752.182 18.3 751.782 15.4 749.182 15.4C 745.082 15.4 742.482 21.05 741.832 22.15L 742.532 22.4C 743.132 21.45 745.082 17.5 746.782 17.5C 747.732 17.5 747.982 18.95 748.132 19.95L 750.582 37.9C 748.932 41 744.282 47.85 740.382 47.85C 739.832 47.85 739.532 47.65 739.532 47.35C 739.532 46.8 740.382 46.6 740.382 45.35C 740.382 43.75 739.432 43.1 738.282 43.1C 736.982 43.1 735.882 44.2 735.882 45.65C 735.882 47.55 737.382 48.7 739.482 48.7C 745.582 48.7 750.182 40.7 754.382 33.1L 760.132 22.7C 762.482 18.45 763.982 16.9 764.382 16.9C 764.532 16.9 764.582 17 764.582 17.15C 764.582 17.6 764.282 17.95 764.282 18.45C 764.282 19.55 765.332 20.2 766.282 20.2C 767.532 20.2 768.482 19.25 768.482 17.95C 768.482 16.15 767.482 15.4 766.082 15.4C 763.482 15.4 761.932 18.05 759.432 22.6L 754.082 32.35ZM 769.532 28.85C 769.532 33.7 772.132 37.6 777.632 37.6C 783.632 37.6 790.182 31.55 790.182 23.45C 790.182 18.4 786.032 15.4 782.532 15.4C 775.132 15.4 769.532 22.6 769.532 28.85ZM 782.232 16.2C 785.082 16.2 786.582 17.75 786.582 20.2C 786.582 23.1 783.882 31.6 782.582 33.8C 782.132 34.5 780.582 36.8 777.482 36.8C 774.632 36.8 773.132 34.85 773.132 32.45C 773.132 30.1 775.832 21.45 776.882 19.65C 777.982 17.75 779.682 16.2 782.232 16.2ZM 819.182 16.5L 815.132 16.5L 812.082 26C 810.282 31.65 804.482 36.5 801.632 36.5C 800.332 36.5 799.682 35.85 799.682 34.8C 799.682 34.5 799.882 33.65 800.182 32.75L 805.782 15.4C 803.632 16.3 801.532 16.5 799.382 16.5L 798.032 16.5L 797.832 17.3L 801.032 17.3L 796.882 29.9C 796.632 30.75 796.082 32.65 796.082 33.5C 796.082 36.7 798.232 37.3 800.582 37.3C 804.532 37.3 807.682 34.35 810.732 30.35L 810.832 30.35C 810.482 31.55 809.932 33.15 809.932 34.05C 809.932 36.1 811.332 37.3 813.432 37.3C 816.782 37.3 818.482 34.85 820.082 32.3L 819.482 31.95C 817.832 34.4 816.732 36.1 814.932 36.1C 813.982 36.1 813.532 35.35 813.532 34.9C 813.532 34.5 813.632 33.6 813.932 32.75L 819.182 16.5ZM 844.332 22.3C 844.332 27.6 850.532 28.45 850.532 32.65C 850.532 35.4 848.382 36.8 845.832 36.8C 842.882 36.8 842.132 35.65 842.132 34.95C 842.132 33.45 844.582 34.15 844.582 31.65C 844.582 30.75 843.832 29.55 842.332 29.55C 840.832 29.55 839.782 31 839.782 32.55C 839.782 34.35 841.232 37.6 845.682 37.6C 851.432 37.6 854.132 34 854.132 31C 854.132 24.55 847.332 24.7 847.332 20.45C 847.332 17.1 849.582 16.2 851.582 16.2C 853.232 16.2 853.732 16.65 853.732 17.25C 853.032 17.7 852.082 18.35 852.082 19.7C 852.082 20.75 852.732 21.8 854.182 21.8C 855.482 21.8 856.582 21 856.582 19.45C 856.582 17.2 854.882 15.4 851.782 15.4C 847.232 15.4 844.332 19.7 844.332 22.3ZM 878.565 31.25C 877.715 32.35 874.565 36.8 870.265 36.8C 866.615 36.8 865.565 34.25 865.565 30.95C 865.565 29.7 865.915 27.6 866.415 25.7C 867.615 26.2 868.915 26.45 870.215 26.45C 875.865 26.45 880.565 23.6 880.565 19.75C 880.565 16.6 877.615 15.4 875.115 15.4C 868.865 15.4 861.665 21.4 861.665 29.1C 861.665 35.55 866.815 37.6 869.515 37.6C 874.965 37.6 878.015 33.05 879.065 31.6L 878.565 31.25ZM 877.265 19.25C 877.265 21.3 875.615 25.65 870.215 25.65C 868.715 25.65 867.415 25.2 866.615 24.95C 867.765 21.35 869.765 16.2 874.265 16.2C 876.115 16.2 877.265 17.5 877.265 19.25ZM 902.282 31.25C 901.432 32.35 898.282 36.8 893.982 36.8C 890.332 36.8 889.282 34.25 889.282 30.95C 889.282 29.7 889.632 27.6 890.132 25.7C 891.332 26.2 892.632 26.45 893.932 26.45C 899.582 26.45 904.282 23.6 904.282 19.75C 904.282 16.6 901.332 15.4 898.832 15.4C 892.582 15.4 885.382 21.4 885.382 29.1C 885.382 35.55 890.532 37.6 893.232 37.6C 898.682 37.6 901.732 33.05 902.782 31.6L 902.282 31.25ZM 900.982 19.25C 900.982 21.3 899.332 25.65 893.932 25.65C 892.432 25.65 891.132 25.2 890.332 24.95C 891.482 21.35 893.482 16.2 897.982 16.2C 899.832 16.2 900.982 17.5 900.982 19.25Z"/>
</defs>
</svg>
