<svg width="1266" height="230" viewBox="0 0 1266 230" version="1.1" xmlns="http://www.w3.org/2000/svg" xmlns:xlink="http://www.w3.org/1999/xlink">
<title>landing-hero-fr</title>
<desc>Created using Figma</desc>
<g id="Canvas" transform="translate(1919 -1766)">
<g id="landing-hero-fr">
<g id="Vector">
<use xlink:href="#path0_fill" transform="translate(-752.104 1767.27)" fill="#FFFFFF"/>
</g>
<g id="Vector">
<use xlink:href="#path1_fill" transform="translate(-955.759 1767.27)" fill="#FFFFFF"/>
</g>
<g id="Vector">
<use xlink:href="#path2_fill" transform="translate(-1032.97 1767.27)" fill="#FFFFFF"/>
</g>
<g id="Vector">
<use xlink:href="#path3_fill" transform="translate(-1236.62 1767.27)" fill="#FFFFFF"/>
</g>
<g id="Vector">
<use xlink:href="#path4_fill" transform="translate(-1411.1 1766.42)" fill="#FFFFFF"/>
</g>
<g id="Vector">
<use xlink:href="#path5_fill" transform="translate(-1561.8 1767.27)" fill="#FFFFFF"/>
</g>
<g id="Vector">
<use xlink:href="#path6_fill" transform="translate(-1723.32 1767.27)" fill="#FFFFFF"/>
</g>
<g id="Vector">
<use xlink:href="#path7_fill" transform="translate(-1919 1766)" fill="#FFFFFF"/>
</g>
<g id="Au-del&#195;&#160; de l&#226;&#128;&#153;apparence">
<use xlink:href="#path8_fill" transform="translate(-1913 1945)" fill="#FFFFFF"/>
</g>
</g>
</g>
<defs>
<path id="path0_fill" d="M 21.5076 20.7099L 21.5076 66.3563L 64.523 66.3563C 66.2099 66.3563 67.8967 67.6243 67.8967 69.7376L 67.8967 83.6851C 67.8967 85.7983 66.6316 87.0663 64.523 87.0663L 21.5076 87.0663L 21.5076 130.177L 95.7301 130.177C 97.417 130.177 99.104 131.445 99.104 133.558L 99.104 147.506C 99.104 149.196 97.8387 150.887 95.7301 150.887L 3.37375 150.887C 1.68688 150.887 5.14794e-05 149.619 5.14794e-05 147.506L 5.14794e-05 2.95856C 5.14794e-05 1.26796 1.26513 5.0384e-08 2.95201 5.0384e-08L 95.7301 5.0384e-08C 97.417 5.0384e-08 99.104 1.26796 99.104 2.95856L 99.104 17.3287C 99.104 19.0193 97.8387 20.2873 95.7301 20.2873L 21.5076 20.2873L 21.5076 20.7099Z"/>
<path id="path1_fill" d="M 146.722 3.80387L 77.5605 148.773C 77.1388 150.041 75.8736 151.309 74.1867 151.309L 72.4999 151.309C 70.813 151.309 69.5478 150.041 69.1261 148.773L 0.385922 3.80387C -0.879235 1.69061 1.22939 5.0384e-08 2.91626 5.0384e-08L 21.8936 5.0384e-08C 23.5805 5.0384e-08 24.4239 1.69061 25.2673 3.38122L 73.765 109.044L 122.263 3.38122C 123.106 1.69061 123.95 5.0384e-08 125.636 5.0384e-08L 144.614 5.0384e-08C 146.301 5.0384e-08 147.988 1.69061 146.722 3.80387Z"/>
<path id="path2_fill" d="M 17.7122 5.0384e-08C 19.3991 5.0384e-08 20.6642 1.26796 20.6642 2.95856L 20.6642 147.083C 20.6642 148.773 19.3991 150.464 17.7122 150.464L 3.37372 150.464C 1.68685 150.464 2.57397e-05 149.196 2.57397e-05 147.083L 2.57397e-05 2.95856C 2.57397e-05 1.26796 1.26517 5.0384e-08 2.95204 5.0384e-08L 17.7122 5.0384e-08L 17.7122 5.0384e-08Z"/>
<path id="path3_fill" d="M 146.722 3.80387L 77.5605 148.773C 77.1387 150.041 75.8736 151.309 74.1867 151.309L 72.4998 151.309C 70.813 151.309 69.5478 150.041 69.1261 148.773L 0.385896 3.80387C -0.879261 1.69061 1.22936 5.0384e-08 2.91624 5.0384e-08L 21.8936 5.0384e-08C 23.5805 5.0384e-08 24.4239 1.69061 25.2673 3.38122L 73.765 109.044L 122.263 3.38122C 123.106 1.69061 123.95 5.0384e-08 125.636 5.0384e-08L 144.614 5.0384e-08C 146.301 5.0384e-08 147.988 1.69061 146.722 3.80387Z"/>
<path id="path4_fill" d="M 147.027 151.309L 130.158 151.309C 128.471 151.309 127.628 150.464 126.784 149.196L 114.976 124.682L 34.006 124.682L 22.6196 149.196C 21.7761 150.464 20.9327 151.309 19.2458 151.309L 2.37706 151.309C 0.690185 151.309 -0.574972 149.619 0.268466 147.928L 71.1172 1.69061C 71.539 0.422652 72.8041 6.298e-09 73.6475 6.298e-09L 76.1779 6.298e-09C 77.0213 6.298e-09 77.8648 0.422652 78.7082 1.69061L 149.135 147.928C 149.557 149.619 149.135 151.309 147.027 151.309ZM 105.698 105.24L 74.491 38.884L 43.2838 105.24L 105.698 105.24Z"/>
<path id="path5_fill" d="M 94.0433 133.135L 94.0433 147.506C 94.0433 149.196 92.7782 150.464 91.0913 150.464L 2.53033 150.464C 0.843451 150.464 -1.28698e-05 149.196 -1.28698e-05 147.506L -1.28698e-05 2.95856C -1.28698e-05 1.26796 1.26516 5.0384e-08 2.95204 5.0384e-08L 18.1339 5.0384e-08C 19.8208 5.0384e-08 21.0859 1.26796 21.0859 2.95856L 21.0859 129.754L 90.6695 129.754C 92.7781 129.754 94.0433 131.022 94.0433 133.135Z"/>
<path id="path6_fill" d="M 21.0859 20.7099L 21.0859 66.3563L 64.1013 66.3563C 65.7881 66.3563 67.475 67.6243 67.475 69.7376L 67.475 83.6851C 67.475 85.7983 66.2099 87.0663 64.1013 87.0663L 21.0859 87.0663L 21.0859 130.177L 95.3085 130.177C 96.9953 130.177 98.6822 131.445 98.6822 133.558L 98.6822 147.506C 98.6822 149.196 97.4171 150.887 95.3085 150.887L 3.37375 150.887C 1.68688 150.887 6.43492e-06 149.619 6.43492e-06 147.506L 6.43492e-06 2.95856C 6.43492e-06 1.26796 1.26515 5.0384e-08 2.95203 5.0384e-08L 95.7302 5.0384e-08C 97.417 5.0384e-08 99.1039 1.26796 99.1039 2.95856L 99.1039 17.3287C 99.1039 19.0193 97.8388 20.2873 95.7302 20.2873L 21.0859 20.2873L 21.0859 20.7099Z"/>
<path id="path7_fill" d="M 131.576 129.331C 117.66 144.124 98.6822 153 76.3311 153C 34.5809 153 0 119.61 0 76.9227C 0 34.2348 34.5809 0 76.3311 0C 98.2605 0 118.081 8.87569 131.998 23.6685C 133.685 25.3591 133.685 27.0497 131.998 28.3177L 120.19 38.0387C 118.503 39.3066 117.238 39.3066 115.973 38.0387C 107.96 29.5856 94.0433 20.7099 77.1745 20.7099C 43.0153 20.2873 21.0859 48.605 21.0859 76.9227C 21.0859 105.24 43.0153 132.713 76.7528 132.713C 93.6216 132.713 107.117 124.26 115.129 115.807C 116.816 114.116 118.081 114.116 119.768 114.961L 131.576 124.682C 133.263 125.95 133.263 127.641 131.576 129.331Z"/>
<path id="path8_fill" d="M 358.116 37L 366.416 37L 366.616 36.2L 365.066 36.2C 363.316 36.2 362.816 35.95 362.816 35.55C 362.816 35.3 362.966 34.95 363.416 34.3L 369.566 24.4L 380.466 24.4L 380.816 36.2L 376.466 36.2L 376.266 37L 388.516 37L 388.666 36.2L 385.666 36.2L 384.566 0.1L 383.866 0.1L 362.066 34.6C 361.116 36.1 360.166 36.2 359.466 36.2L 358.266 36.2L 358.116 37ZM 380.466 23.6L 370.166 23.6L 380.066 7.75L 380.166 7.75L 380.466 23.6ZM 417.504 16.5L 413.454 16.5L 410.404 26C 408.604 31.65 402.804 36.5 399.954 36.5C 398.654 36.5 398.004 35.85 398.004 34.8C 398.004 34.5 398.204 33.65 398.504 32.75L 404.104 15.4C 401.954 16.3 399.854 16.5 397.704 16.5L 396.354 16.5L 396.154 17.3L 399.354 17.3L 395.204 29.9C 394.954 30.75 394.404 32.65 394.404 33.5C 394.404 36.7 396.554 37.3 398.904 37.3C 402.854 37.3 406.004 34.35 409.054 30.35L 409.154 30.35C 408.804 31.55 408.254 33.15 408.254 34.05C 408.254 36.1 409.654 37.3 411.754 37.3C 415.104 37.3 416.804 34.85 418.404 32.3L 417.804 31.95C 416.154 34.4 415.054 36.1 413.254 36.1C 412.304 36.1 411.854 35.35 411.854 34.9C 411.854 34.5 411.954 33.6 412.254 32.75L 417.504 16.5ZM 436.737 26.3L 437.537 23.6L 425.637 23.6L 424.837 26.3L 436.737 26.3ZM 464.471 2.3L 467.871 2.3L 463.121 19.45L 463.021 19.45C 462.471 17.9 461.071 15.4 457.371 15.4C 452.271 15.4 444.571 21.5 444.571 29.05C 444.571 34.4 447.671 37.6 451.571 37.6C 455.571 37.6 457.871 34.4 458.921 33L 459.021 33.1C 458.721 35.05 459.571 37.6 461.871 37.6C 463.971 37.6 465.821 36.45 467.021 34.75L 468.721 32.4L 468.121 32.05L 466.921 33.7C 466.271 34.55 464.771 36.4 463.571 36.4C 462.721 36.4 462.321 35.85 462.321 35.15C 462.271 34.45 462.521 33.6 462.671 33.1L 472.471 0.25C 470.871 1.2 468.871 1.5 466.921 1.5L 464.671 1.5L 464.471 2.3ZM 448.471 32.7C 448.371 27.4 451.671 16.2 458.271 16.2C 460.871 16.2 462.521 19.35 462.521 20.5C 462.521 22 458.971 32.05 458.321 32.95C 456.771 35.1 454.321 36.8 451.921 36.8C 449.621 36.8 448.521 35.1 448.471 32.7ZM 490.754 31.25C 489.904 32.35 486.754 36.8 482.454 36.8C 478.804 36.8 477.754 34.25 477.754 30.95C 477.754 29.7 478.104 27.6 478.604 25.7C 479.804 26.2 481.104 26.45 482.404 26.45C 488.054 26.45 492.754 23.6 492.754 19.75C 492.754 16.6 489.804 15.4 487.304 15.4C 481.054 15.4 473.854 21.4 473.854 29.1C 473.854 35.55 479.004 37.6 481.704 37.6C 487.154 37.6 490.204 33.05 491.254 31.6L 490.754 31.25ZM 489.454 19.25C 489.454 21.3 487.804 25.65 482.404 25.65C 480.904 25.65 479.604 25.2 478.804 24.95C 479.954 21.35 481.954 16.2 486.454 16.2C 488.304 16.2 489.454 17.5 489.454 19.25ZM 498.471 30.1C 497.921 31.9 497.571 33.05 497.571 33.95C 497.571 36.4 499.421 37.3 501.021 37.3C 504.921 37.3 507.871 33.3 508.521 32.2L 507.921 31.8C 507.321 32.7 505.021 36.1 502.371 36.1C 501.521 36.1 501.171 35.4 501.171 34.8C 501.171 34.2 501.471 33.4 501.771 32.4L 511.371 0.25C 509.771 1.2 507.771 1.5 505.821 1.5L 503.571 1.5L 503.371 2.3L 506.771 2.3L 498.471 30.1ZM 516.887 32.8C 516.887 28.95 519.837 16.2 526.237 16.2C 529.337 16.2 530.837 18.85 530.837 20.65C 530.837 21.65 529.837 24 528.587 28.1C 527.187 32.75 524.737 36.8 520.487 36.8C 518.237 36.8 516.887 35.45 516.887 32.8ZM 536.237 16.5L 532.387 16.5L 531.437 19.55L 531.337 19.55C 530.987 18.05 529.687 15.4 526.437 15.4C 520.187 15.4 512.987 22.1 512.987 29.1C 512.987 33.75 515.687 37.6 520.437 37.6C 523.337 37.6 526.137 35.15 527.337 33.1L 527.437 33.1C 527.487 34.65 527.637 37.6 531.037 37.6C 534.237 37.6 536.437 33.5 537.087 32.6L 536.587 32.1C 535.887 33.05 533.687 36.4 531.937 36.4C 531.137 36.4 530.737 35.8 530.737 35C 530.737 34.2 531.037 33.2 531.287 32.4L 536.237 16.5ZM 529.987 9.4L 531.437 9.4L 525.437 1.8C 524.987 1.2 524.587 0.95 523.737 0.95C 522.937 0.95 522.237 1.8 522.237 2.55C 522.237 3.25 522.787 3.7 523.187 4.1L 529.987 9.4ZM 577.586 2.3L 580.986 2.3L 576.236 19.45L 576.136 19.45C 575.586 17.9 574.186 15.4 570.486 15.4C 565.386 15.4 557.686 21.5 557.686 29.05C 557.686 34.4 560.786 37.6 564.686 37.6C 568.686 37.6 570.986 34.4 572.036 33L 572.136 33.1C 571.836 35.05 572.686 37.6 574.986 37.6C 577.086 37.6 578.936 36.45 580.136 34.75L 581.836 32.4L 581.236 32.05L 580.036 33.7C 579.386 34.55 577.886 36.4 576.686 36.4C 575.836 36.4 575.436 35.85 575.436 35.15C 575.386 34.45 575.636 33.6 575.786 33.1L 585.586 0.25C 583.986 1.2 581.986 1.5 580.036 1.5L 577.786 1.5L 577.586 2.3ZM 561.586 32.7C 561.486 27.4 564.786 16.2 571.386 16.2C 573.986 16.2 575.636 19.35 575.636 20.5C 575.636 22 572.086 32.05 571.436 32.95C 569.886 35.1 567.436 36.8 565.036 36.8C 562.736 36.8 561.636 35.1 561.586 32.7ZM 603.869 31.25C 603.019 32.35 599.869 36.8 595.569 36.8C 591.919 36.8 590.869 34.25 590.869 30.95C 590.869 29.7 591.219 27.6 591.719 25.7C 592.919 26.2 594.219 26.45 595.519 26.45C 601.169 26.45 605.869 23.6 605.869 19.75C 605.869 16.6 602.919 15.4 600.419 15.4C 594.169 15.4 586.969 21.4 586.969 29.1C 586.969 35.55 592.119 37.6 594.819 37.6C 600.269 37.6 603.319 33.05 604.369 31.6L 603.869 31.25ZM 602.569 19.25C 602.569 21.3 600.919 25.65 595.519 25.65C 594.019 25.65 592.719 25.2 591.919 24.95C 593.069 21.35 595.069 16.2 599.569 16.2C 601.419 16.2 602.569 17.5 602.569 19.25ZM 627.002 30.1C 626.452 31.9 626.102 33.05 626.102 33.95C 626.102 36.4 627.952 37.3 629.552 37.3C 633.452 37.3 636.402 33.3 637.052 32.2L 636.452 31.8C 635.852 32.7 633.552 36.1 630.902 36.1C 630.052 36.1 629.702 35.4 629.702 34.8C 629.702 34.2 630.002 33.4 630.302 32.4L 639.902 0.25C 638.302 1.2 636.302 1.5 634.352 1.5L 632.102 1.5L 631.902 2.3L 635.302 2.3L 627.002 30.1ZM 647.468 16C 648.618 15.15 655.418 11.7 655.418 5.45C 655.418 3 654.018 1 651.468 1C 649.868 1 648.618 2.25 648.618 3.95C 648.618 5.7 649.768 6.7 651.368 6.7C 652.868 6.7 653.218 6.1 653.618 6.1C 653.918 6.1 653.918 7 653.918 7.3C 653.918 11.6 648.068 14.8 647.118 15.5L 647.468 16ZM 660.834 32.8C 660.834 28.95 663.784 16.2 670.184 16.2C 673.284 16.2 674.784 18.85 674.784 20.65C 674.784 21.65 673.784 24 672.534 28.1C 671.134 32.75 668.684 36.8 664.434 36.8C 662.184 36.8 660.834 35.45 660.834 32.8ZM 680.184 16.5L 676.334 16.5L 675.384 19.55L 675.284 19.55C 674.934 18.05 673.634 15.4 670.384 15.4C 664.134 15.4 656.934 22.1 656.934 29.1C 656.934 33.75 659.634 37.6 664.384 37.6C 667.284 37.6 670.084 35.15 671.284 33.1L 671.384 33.1C 671.434 34.65 671.584 37.6 674.984 37.6C 678.184 37.6 680.384 33.5 681.034 32.6L 680.534 32.1C 679.834 33.05 677.634 36.4 675.884 36.4C 675.084 36.4 674.684 35.8 674.684 35C 674.684 34.2 674.984 33.2 675.234 32.4L 680.184 16.5ZM 678.467 50.5L 688.317 50.5L 688.517 49.7L 685.517 49.7L 690.067 33.65L 690.167 33.65C 690.667 36.05 692.817 37.6 695.967 37.6C 702.767 37.6 708.967 30.55 708.967 23.9C 708.967 18.7 705.317 15.4 701.267 15.4C 698.417 15.4 695.867 16.9 694.167 19.3L 694.067 19.3L 694.967 15.4C 693.667 16.4 691.617 16.5 689.067 16.5L 687.967 16.5L 687.767 17.3L 690.767 17.3L 681.367 49.7L 678.667 49.7L 678.467 50.5ZM 705.067 21.25C 705.067 25.8 701.817 36.8 695.467 36.8C 693.117 36.8 690.667 35.3 690.667 32.3C 690.667 32 690.767 31.15 691.067 30.05L 692.717 24.35C 693.967 19.95 696.667 16.2 700.967 16.2C 703.367 16.2 705.067 17.75 705.067 21.25ZM 707.75 50.5L 717.6 50.5L 717.8 49.7L 714.8 49.7L 719.35 33.65L 719.45 33.65C 719.95 36.05 722.1 37.6 725.25 37.6C 732.05 37.6 738.25 30.55 738.25 23.9C 738.25 18.7 734.6 15.4 730.55 15.4C 727.7 15.4 725.15 16.9 723.45 19.3L 723.35 19.3L 724.25 15.4C 722.95 16.4 720.9 16.5 718.35 16.5L 717.25 16.5L 717.05 17.3L 720.05 17.3L 710.65 49.7L 707.95 49.7L 707.75 50.5ZM 734.35 21.25C 734.35 25.8 731.1 36.8 724.75 36.8C 722.4 36.8 719.95 35.3 719.95 32.3C 719.95 32 720.05 31.15 720.35 30.05L 722 24.35C 723.25 19.95 725.95 16.2 730.25 16.2C 732.65 16.2 734.35 17.75 734.35 21.25ZM 748.683 32.8C 748.683 28.95 751.633 16.2 758.033 16.2C 761.133 16.2 762.633 18.85 762.633 20.65C 762.633 21.65 761.633 24 760.383 28.1C 758.983 32.75 756.533 36.8 752.283 36.8C 750.033 36.8 748.683 35.45 748.683 32.8ZM 768.033 16.5L 764.183 16.5L 763.233 19.55L 763.133 19.55C 762.783 18.05 761.483 15.4 758.233 15.4C 751.983 15.4 744.783 22.1 744.783 29.1C 744.783 33.75 747.483 37.6 752.233 37.6C 755.133 37.6 757.933 35.15 759.133 33.1L 759.233 33.1C 759.283 34.65 759.433 37.6 762.833 37.6C 766.033 37.6 768.233 33.5 768.883 32.6L 768.383 32.1C 767.683 33.05 765.483 36.4 763.733 36.4C 762.933 36.4 762.533 35.8 762.533 35C 762.533 34.2 762.833 33.2 763.083 32.4L 768.033 16.5ZM 773.817 37L 777.717 37L 781.367 24.6C 782.067 22.25 786.217 16.9 788.567 16.9C 789.017 16.9 789.217 17.05 789.217 17.4C 789.217 17.65 788.967 17.9 788.967 18.85C 788.967 19.75 789.417 20.7 790.867 20.7C 792.117 20.7 793.467 19.85 793.467 18.2C 793.467 16.9 792.467 15.7 790.267 15.7C 787.117 15.7 783.567 19.25 782.217 21.7L 782.117 21.6L 784.167 15.4C 782.817 16.4 780.767 16.5 778.217 16.5L 776.367 16.5L 776.167 17.3L 779.617 17.3L 773.817 37ZM 811.9 31.25C 811.05 32.35 807.9 36.8 803.6 36.8C 799.95 36.8 798.9 34.25 798.9 30.95C 798.9 29.7 799.25 27.6 799.75 25.7C 800.95 26.2 802.25 26.45 803.55 26.45C 809.2 26.45 813.9 23.6 813.9 19.75C 813.9 16.6 810.95 15.4 808.45 15.4C 802.2 15.4 795 21.4 795 29.1C 795 35.55 800.15 37.6 802.85 37.6C 808.3 37.6 811.35 33.05 812.4 31.6L 811.9 31.25ZM 810.6 19.25C 810.6 21.3 808.95 25.65 803.55 25.65C 802.05 25.65 800.75 25.2 799.95 24.95C 801.1 21.35 803.1 16.2 807.6 16.2C 809.45 16.2 810.6 17.5 810.6 19.25ZM 818.117 37L 822.117 37L 825.117 26.7C 827.117 19.9 833.267 16.2 835.617 16.2C 836.967 16.2 837.517 16.85 837.517 17.85C 837.517 19.95 832.767 30.5 832.767 33.6C 832.767 35.85 833.667 37.3 836.017 37.3C 839.667 37.3 842.017 33.55 843.017 32.1L 842.517 31.75C 841.717 32.7 839.667 36.1 837.517 36.1C 836.717 36.1 836.367 35.35 836.367 34.55C 836.367 33.3 841.117 21.6 841.117 19.45C 841.117 17.2 839.617 15.4 836.417 15.4C 832.517 15.4 828.717 18.65 826.517 22.3L 826.417 22.3L 828.467 15.4C 826.317 16.3 824.217 16.5 822.067 16.5L 821.017 16.5L 820.817 17.3L 823.917 17.3L 818.117 37ZM 865.2 29.35C 864.75 30.4 861 36.8 856.05 36.8C 853.3 36.8 852.2 34.8 852.2 32.3C 852.2 28.6 854.2 16.2 861.25 16.2C 862.75 16.2 863 16.55 863 17C 863 17.35 862.45 17.85 862.45 19.2C 862.45 20.75 863.35 21.55 864.65 21.55C 866.05 21.55 866.95 20.65 866.95 19C 866.95 17.05 864.85 15.4 861.45 15.4C 854.7 15.4 848 22.4 848 29.1C 848 35.55 853.15 37.6 855.85 37.6C 861.55 37.6 865.25 31.2 865.9 29.6L 865.2 29.35ZM 888.617 31.25C 887.767 32.35 884.617 36.8 880.317 36.8C 876.667 36.8 875.617 34.25 875.617 30.95C 875.617 29.7 875.967 27.6 876.467 25.7C 877.667 26.2 878.967 26.45 880.267 26.45C 885.917 26.45 890.617 23.6 890.617 19.75C 890.617 16.6 887.667 15.4 885.167 15.4C 878.917 15.4 871.717 21.4 871.717 29.1C 871.717 35.55 876.867 37.6 879.567 37.6C 885.017 37.6 888.067 33.05 889.117 31.6L 888.617 31.25ZM 887.317 19.25C 887.317 21.3 885.667 25.65 880.267 25.65C 878.767 25.65 877.467 25.2 876.667 24.95C 877.817 21.35 879.817 16.2 884.317 16.2C 886.167 16.2 887.317 17.5 887.317 19.25Z"/>
</defs>
</svg>
