<svg width="1266" height="230" viewBox="0 0 1266 230" version="1.1" xmlns="http://www.w3.org/2000/svg" xmlns:xlink="http://www.w3.org/1999/xlink">
<title>landing-hero-de</title>
<desc>Created using Figma</desc>
<g id="Canvas" transform="translate(1918 -4220)">
<g id="landing-hero-de">
<g id="Vector">
<use xlink:href="#path0_fill" transform="translate(-751.104 4221.27)" fill="#FFFFFF"/>
</g>
<g id="Vector">
<use xlink:href="#path1_fill" transform="translate(-954.759 4221.27)" fill="#FFFFFF"/>
</g>
<g id="Vector">
<use xlink:href="#path2_fill" transform="translate(-1031.97 4221.27)" fill="#FFFFFF"/>
</g>
<g id="Vector">
<use xlink:href="#path3_fill" transform="translate(-1235.62 4221.27)" fill="#FFFFFF"/>
</g>
<g id="Vector">
<use xlink:href="#path4_fill" transform="translate(-1410.1 4220.42)" fill="#FFFFFF"/>
</g>
<g id="Vector">
<use xlink:href="#path5_fill" transform="translate(-1560.8 4221.27)" fill="#FFFFFF"/>
</g>
<g id="Vector">
<use xlink:href="#path6_fill" transform="translate(-1722.32 4221.27)" fill="#FFFFFF"/>
</g>
<g id="Vector">
<use xlink:href="#path7_fill" transform="translate(-1918 4220)" fill="#FFFFFF"/>
</g>
<g id="Pflege, die unter die Haut geht">
<use xlink:href="#path8_fill" transform="translate(-1912 4399)" fill="#FFFFFF"/>
</g>
</g>
</g>
<defs>
<path id="path0_fill" d="M 21.5076 20.7099L 21.5076 66.3563L 64.523 66.3563C 66.2099 66.3563 67.8967 67.6243 67.8967 69.7376L 67.8967 83.6851C 67.8967 85.7983 66.6316 87.0663 64.523 87.0663L 21.5076 87.0663L 21.5076 130.177L 95.7301 130.177C 97.417 130.177 99.104 131.445 99.104 133.558L 99.104 147.506C 99.104 149.196 97.8387 150.887 95.7301 150.887L 3.37375 150.887C 1.68688 150.887 5.14794e-05 149.619 5.14794e-05 147.506L 5.14794e-05 2.95856C 5.14794e-05 1.26796 1.26513 5.0384e-08 2.95201 5.0384e-08L 95.7301 5.0384e-08C 97.417 5.0384e-08 99.104 1.26796 99.104 2.95856L 99.104 17.3287C 99.104 19.0193 97.8387 20.2873 95.7301 20.2873L 21.5076 20.2873L 21.5076 20.7099Z"/>
<path id="path1_fill" d="M 146.722 3.80387L 77.5605 148.773C 77.1388 150.041 75.8736 151.309 74.1867 151.309L 72.4999 151.309C 70.813 151.309 69.5478 150.041 69.1261 148.773L 0.385922 3.80387C -0.879235 1.69061 1.22939 5.0384e-08 2.91626 5.0384e-08L 21.8936 5.0384e-08C 23.5805 5.0384e-08 24.4239 1.69061 25.2673 3.38122L 73.765 109.044L 122.263 3.38122C 123.106 1.69061 123.95 5.0384e-08 125.636 5.0384e-08L 144.614 5.0384e-08C 146.301 5.0384e-08 147.988 1.69061 146.722 3.80387Z"/>
<path id="path2_fill" d="M 17.7122 5.0384e-08C 19.3991 5.0384e-08 20.6642 1.26796 20.6642 2.95856L 20.6642 147.083C 20.6642 148.773 19.3991 150.464 17.7122 150.464L 3.37372 150.464C 1.68685 150.464 2.57397e-05 149.196 2.57397e-05 147.083L 2.57397e-05 2.95856C 2.57397e-05 1.26796 1.26517 5.0384e-08 2.95204 5.0384e-08L 17.7122 5.0384e-08L 17.7122 5.0384e-08Z"/>
<path id="path3_fill" d="M 146.722 3.80387L 77.5605 148.773C 77.1387 150.041 75.8736 151.309 74.1867 151.309L 72.4998 151.309C 70.813 151.309 69.5478 150.041 69.1261 148.773L 0.385896 3.80387C -0.879261 1.69061 1.22936 5.0384e-08 2.91624 5.0384e-08L 21.8936 5.0384e-08C 23.5805 5.0384e-08 24.4239 1.69061 25.2673 3.38122L 73.765 109.044L 122.263 3.38122C 123.106 1.69061 123.95 5.0384e-08 125.636 5.0384e-08L 144.614 5.0384e-08C 146.301 5.0384e-08 147.988 1.69061 146.722 3.80387Z"/>
<path id="path4_fill" d="M 147.027 151.309L 130.158 151.309C 128.471 151.309 127.628 150.464 126.784 149.196L 114.976 124.682L 34.006 124.682L 22.6196 149.196C 21.7761 150.464 20.9327 151.309 19.2458 151.309L 2.37706 151.309C 0.690185 151.309 -0.574972 149.619 0.268466 147.928L 71.1172 1.69061C 71.539 0.422652 72.8041 6.298e-09 73.6475 6.298e-09L 76.1779 6.298e-09C 77.0213 6.298e-09 77.8648 0.422652 78.7082 1.69061L 149.135 147.928C 149.557 149.619 149.135 151.309 147.027 151.309ZM 105.698 105.24L 74.491 38.884L 43.2838 105.24L 105.698 105.24Z"/>
<path id="path5_fill" d="M 94.0433 133.135L 94.0433 147.506C 94.0433 149.196 92.7782 150.464 91.0913 150.464L 2.53033 150.464C 0.843451 150.464 -1.28698e-05 149.196 -1.28698e-05 147.506L -1.28698e-05 2.95856C -1.28698e-05 1.26796 1.26516 5.0384e-08 2.95204 5.0384e-08L 18.1339 5.0384e-08C 19.8208 5.0384e-08 21.0859 1.26796 21.0859 2.95856L 21.0859 129.754L 90.6695 129.754C 92.7781 129.754 94.0433 131.022 94.0433 133.135Z"/>
<path id="path6_fill" d="M 21.0859 20.7099L 21.0859 66.3563L 64.1013 66.3563C 65.7881 66.3563 67.475 67.6243 67.475 69.7376L 67.475 83.6851C 67.475 85.7983 66.2099 87.0663 64.1013 87.0663L 21.0859 87.0663L 21.0859 130.177L 95.3085 130.177C 96.9953 130.177 98.6822 131.445 98.6822 133.558L 98.6822 147.506C 98.6822 149.196 97.4171 150.887 95.3085 150.887L 3.37375 150.887C 1.68688 150.887 6.43492e-06 149.619 6.43492e-06 147.506L 6.43492e-06 2.95856C 6.43492e-06 1.26796 1.26515 5.0384e-08 2.95203 5.0384e-08L 95.7302 5.0384e-08C 97.417 5.0384e-08 99.1039 1.26796 99.1039 2.95856L 99.1039 17.3287C 99.1039 19.0193 97.8388 20.2873 95.7302 20.2873L 21.0859 20.2873L 21.0859 20.7099Z"/>
<path id="path7_fill" d="M 131.576 129.331C 117.66 144.124 98.6822 153 76.3311 153C 34.5809 153 0 119.61 0 76.9227C 0 34.2348 34.5809 0 76.3311 0C 98.2605 0 118.081 8.87569 131.998 23.6685C 133.685 25.3591 133.685 27.0497 131.998 28.3177L 120.19 38.0387C 118.503 39.3066 117.238 39.3066 115.973 38.0387C 107.96 29.5856 94.0433 20.7099 77.1745 20.7099C 43.0153 20.2873 21.0859 48.605 21.0859 76.9227C 21.0859 105.24 43.0153 132.713 76.7528 132.713C 93.6216 132.713 107.117 124.26 115.129 115.807C 116.816 114.116 118.081 114.116 119.768 114.961L 131.576 124.682C 133.263 125.95 133.263 127.641 131.576 129.331Z"/>
<path id="path8_fill" d="M 276.786 37L 290.586 37L 290.736 36.2L 285.886 36.2L 290.236 20.7L 296.336 20.7C 302.736 20.7 310.436 17.7 310.436 9.7C 310.436 3.9 305.986 1.8 300.736 1.8L 285.936 1.8L 285.736 2.6L 290.236 2.6L 280.836 36.2L 276.986 36.2L 276.786 37ZM 295.286 2.6L 299.536 2.6C 303.536 2.6 305.036 4.2 305.036 8.15C 305.036 12.8 302.736 19.9 295.536 19.9L 290.436 19.9L 295.286 2.6ZM 312.503 17.3L 316.903 17.3C 314.353 26.6 312.203 38.8 310.453 44.2C 309.103 48.35 307.153 49.1 306.303 49.1C 305.853 49.1 305.553 48.95 305.553 48.6C 305.553 48 306.503 48 306.503 46.55C 306.503 45.35 305.603 44.5 304.253 44.5C 303.103 44.5 302.003 45.5 302.003 47C 302.003 48.4 303.303 49.9 305.003 49.9C 308.153 49.9 310.153 48.55 313.553 41.65C 315.803 37.1 318.053 27.5 321.003 17.3L 326.253 17.3L 326.403 16.5L 321.153 16.5C 323.253 9.05 323.953 0.7 332.753 0.7C 334.053 0.7 335.053 1.25 335.053 2.05C 335.053 3.4 332.203 2.3 332.203 5.25C 332.203 6.05 332.753 6.65 333.403 7.1L 326.553 30.1C 326.003 31.9 325.653 33.05 325.653 33.95C 325.653 36.4 327.503 37.3 329.103 37.3C 333.003 37.3 335.953 33.3 336.603 32.2L 336.003 31.8C 335.403 32.7 333.103 36.1 330.753 36.1C 329.603 36.1 329.253 35.4 329.253 34.8C 329.253 34.2 329.553 33.4 329.853 32.4L 339.453 -0.1C 338.803 0.45 337.653 1.05 336.653 1.05C 336.153 1.05 335.753 0.75 335.203 0.45C 334.603 0.2 333.903 -0.1 332.653 -0.1C 323.753 -0.1 319.153 8.5 317.103 16.5L 312.703 16.5L 312.503 17.3ZM 358.536 31.25C 357.686 32.35 354.536 36.8 350.236 36.8C 346.586 36.8 345.536 34.25 345.536 30.95C 345.536 29.7 345.886 27.6 346.386 25.7C 347.586 26.2 348.886 26.45 350.186 26.45C 355.836 26.45 360.536 23.6 360.536 19.75C 360.536 16.6 357.586 15.4 355.086 15.4C 348.836 15.4 341.636 21.4 341.636 29.1C 341.636 35.55 346.786 37.6 349.486 37.6C 354.936 37.6 357.986 33.05 359.036 31.6L 358.536 31.25ZM 357.236 19.25C 357.236 21.3 355.586 25.65 350.186 25.65C 348.686 25.65 347.386 25.2 346.586 24.95C 347.736 21.35 349.736 16.2 354.236 16.2C 356.086 16.2 357.236 17.5 357.236 19.25ZM 366.324 24.25C 366.324 26.45 367.474 28.55 369.274 29.85C 366.724 30.35 363.874 31.95 363.874 34.9C 363.874 36.8 364.724 37.75 366.524 38.35L 366.524 38.5C 363.724 39.75 361.174 41.7 361.174 45.2C 361.174 48.9 365.674 51 370.524 51C 379.374 51 383.724 44.25 383.724 40.05C 383.724 35.2 380.224 34.8 377.024 34.8C 374.424 34.8 371.874 35 369.424 35C 366.224 35 365.674 34.35 365.674 33.25C 365.674 31.65 367.874 30.6 369.874 30.2C 370.724 30.65 372.224 30.95 373.424 30.95C 378.874 30.95 383.174 26.65 383.174 22.85C 383.174 21.85 383.124 20.8 382.674 19.8C 383.124 18.5 384.274 16.85 384.924 16.85C 385.074 16.85 385.324 16.85 385.324 17.1C 385.324 17.3 385.174 17.45 385.174 17.9C 385.174 19.05 385.774 19.9 387.124 19.9C 388.624 19.9 389.074 18.7 389.074 17.8C 389.074 16.7 388.524 15.4 386.724 15.4C 384.174 15.4 382.774 18.1 382.374 18.95C 381.224 16.75 378.624 15.4 376.324 15.4C 371.624 15.4 366.324 19.1 366.324 24.25ZM 379.274 38.6C 380.374 38.6 382.224 39 382.224 41.35C 382.224 45.05 378.124 50.2 371.224 50.2C 365.174 50.2 363.274 46.85 363.274 44.8C 363.274 40.35 367.174 38.6 367.874 38.6L 379.274 38.6ZM 379.874 19.8C 379.874 20.85 378.374 30.15 373.624 30.15C 371.424 30.15 369.924 28.9 369.924 26.65C 369.924 24.15 371.724 16.2 376.374 16.2C 378.524 16.2 379.874 17.55 379.874 19.8ZM 407.874 31.25C 407.024 32.35 403.874 36.8 399.574 36.8C 395.924 36.8 394.874 34.25 394.874 30.95C 394.874 29.7 395.224 27.6 395.724 25.7C 396.924 26.2 398.224 26.45 399.524 26.45C 405.174 26.45 409.874 23.6 409.874 19.75C 409.874 16.6 406.924 15.4 404.424 15.4C 398.174 15.4 390.974 21.4 390.974 29.1C 390.974 35.55 396.124 37.6 398.824 37.6C 404.274 37.6 407.324 33.05 408.374 31.6L 407.874 31.25ZM 406.574 19.25C 406.574 21.3 404.924 25.65 399.524 25.65C 398.024 25.65 396.724 25.2 395.924 24.95C 397.074 21.35 399.074 16.2 403.574 16.2C 405.424 16.2 406.574 17.5 406.574 19.25ZM 413.491 46.6C 414.641 45.75 421.441 42.3 421.441 36.05C 421.441 33.6 420.041 31.6 417.491 31.6C 415.891 31.6 414.641 32.85 414.641 34.55C 414.641 36.3 415.791 37.3 417.391 37.3C 418.891 37.3 419.241 36.7 419.641 36.7C 419.941 36.7 419.941 37.6 419.941 37.9C 419.941 42.2 414.091 45.4 413.141 46.1L 413.491 46.6ZM 463.567 2.3L 466.967 2.3L 462.217 19.45L 462.117 19.45C 461.567 17.9 460.167 15.4 456.467 15.4C 451.367 15.4 443.667 21.5 443.667 29.05C 443.667 34.4 446.767 37.6 450.667 37.6C 454.667 37.6 456.967 34.4 458.017 33L 458.117 33.1C 457.817 35.05 458.667 37.6 460.967 37.6C 463.067 37.6 464.917 36.45 466.117 34.75L 467.817 32.4L 467.217 32.05L 466.017 33.7C 465.367 34.55 463.867 36.4 462.667 36.4C 461.817 36.4 461.417 35.85 461.417 35.15C 461.367 34.45 461.617 33.6 461.767 33.1L 471.567 0.25C 469.967 1.2 467.967 1.5 466.017 1.5L 463.767 1.5L 463.567 2.3ZM 447.567 32.7C 447.467 27.4 450.767 16.2 457.367 16.2C 459.967 16.2 461.617 19.35 461.617 20.5C 461.617 22 458.067 32.05 457.417 32.95C 455.867 35.1 453.417 36.8 451.017 36.8C 448.717 36.8 447.617 35.1 447.567 32.7ZM 474.75 17.3L 477.95 17.3L 473.7 30.95C 473.4 32 473.05 33 473.05 33.95C 473.05 36.4 474.9 37.3 476.5 37.3C 480.4 37.3 483.35 33.3 484 32.2L 483.4 31.8C 482.8 32.7 480.5 36.1 477.85 36.1C 477 36.1 476.65 35.4 476.65 34.8C 476.65 34.05 477.1 32.75 477.45 31.7L 482.65 15.4C 480.5 16.3 478.4 16.5 476.25 16.5L 474.9 16.5L 474.75 17.3ZM 485.9 3.7C 485.9 3.05 485.55 2 484 2C 482.45 2 481.1 4.05 481.1 5.7C 481.1 6.35 481.45 7.4 482.7 7.4C 484.55 7.4 485.9 5.35 485.9 3.7ZM 505.266 31.25C 504.416 32.35 501.266 36.8 496.966 36.8C 493.316 36.8 492.266 34.25 492.266 30.95C 492.266 29.7 492.616 27.6 493.116 25.7C 494.316 26.2 495.616 26.45 496.916 26.45C 502.566 26.45 507.266 23.6 507.266 19.75C 507.266 16.6 504.316 15.4 501.816 15.4C 495.566 15.4 488.366 21.4 488.366 29.1C 488.366 35.55 493.516 37.6 496.216 37.6C 501.666 37.6 504.716 33.05 505.766 31.6L 505.266 31.25ZM 503.966 19.25C 503.966 21.3 502.316 25.65 496.916 25.65C 495.416 25.65 494.116 25.2 493.316 24.95C 494.466 21.35 496.466 16.2 500.966 16.2C 502.816 16.2 503.966 17.5 503.966 19.25ZM 550.649 16.5L 546.599 16.5L 543.549 26C 541.749 31.65 535.949 36.5 533.099 36.5C 531.799 36.5 531.149 35.85 531.149 34.8C 531.149 34.5 531.349 33.65 531.649 32.75L 537.249 15.4C 535.099 16.3 532.999 16.5 530.849 16.5L 529.499 16.5L 529.299 17.3L 532.499 17.3L 528.349 29.9C 528.099 30.75 527.549 32.65 527.549 33.5C 527.549 36.7 529.699 37.3 532.049 37.3C 535.999 37.3 539.149 34.35 542.199 30.35L 542.299 30.35C 541.949 31.55 541.399 33.15 541.399 34.05C 541.399 36.1 542.799 37.3 544.899 37.3C 548.249 37.3 549.949 34.85 551.549 32.3L 550.949 31.95C 549.299 34.4 548.199 36.1 546.399 36.1C 545.449 36.1 544.999 35.35 544.999 34.9C 544.999 34.5 545.099 33.6 545.399 32.75L 550.649 16.5ZM 556.182 37L 560.182 37L 563.182 26.7C 565.182 19.9 571.332 16.2 573.682 16.2C 575.032 16.2 575.582 16.85 575.582 17.85C 575.582 19.95 570.832 30.5 570.832 33.6C 570.832 35.85 571.732 37.3 574.082 37.3C 577.732 37.3 580.082 33.55 581.082 32.1L 580.582 31.75C 579.782 32.7 577.732 36.1 575.582 36.1C 574.782 36.1 574.432 35.35 574.432 34.55C 574.432 33.3 579.182 21.6 579.182 19.45C 579.182 17.2 577.682 15.4 574.482 15.4C 570.582 15.4 566.782 18.65 564.582 22.3L 564.482 22.3L 566.532 15.4C 564.382 16.3 562.282 16.5 560.132 16.5L 559.082 16.5L 558.882 17.3L 561.982 17.3L 556.182 37ZM 587.716 30.1C 587.266 31.5 586.916 32.75 586.916 33.75C 586.916 36.35 588.616 37.3 591.016 37.3C 594.816 37.3 597.966 33.7 600.116 31L 599.566 30.6C 597.216 34.05 593.666 36.5 592.066 36.5C 591.016 36.5 590.516 35.8 590.516 35.05C 590.516 34.3 590.716 33.35 590.866 32.8L 595.766 17.3L 601.616 17.3L 601.866 16.5L 596.016 16.5L 598.616 8.25C 597.316 9.25 595.766 9.65 594.116 9.65L 591.966 16.5L 588.316 16.5L 588.066 17.3L 591.716 17.3L 587.716 30.1ZM 621.116 31.25C 620.266 32.35 617.116 36.8 612.816 36.8C 609.166 36.8 608.116 34.25 608.116 30.95C 608.116 29.7 608.466 27.6 608.966 25.7C 610.166 26.2 611.466 26.45 612.766 26.45C 618.416 26.45 623.116 23.6 623.116 19.75C 623.116 16.6 620.166 15.4 617.666 15.4C 611.416 15.4 604.216 21.4 604.216 29.1C 604.216 35.55 609.366 37.6 612.066 37.6C 617.516 37.6 620.566 33.05 621.616 31.6L 621.116 31.25ZM 619.816 19.25C 619.816 21.3 618.166 25.65 612.766 25.65C 611.266 25.65 609.966 25.2 609.166 24.95C 610.316 21.35 612.316 16.2 616.816 16.2C 618.666 16.2 619.816 17.5 619.816 19.25ZM 627.683 37L 631.583 37L 635.233 24.6C 635.933 22.25 640.083 16.9 642.433 16.9C 642.883 16.9 643.083 17.05 643.083 17.4C 643.083 17.65 642.833 17.9 642.833 18.85C 642.833 19.75 643.283 20.7 644.733 20.7C 645.983 20.7 647.333 19.85 647.333 18.2C 647.333 16.9 646.333 15.7 644.133 15.7C 640.983 15.7 637.433 19.25 636.083 21.7L 635.983 21.6L 638.033 15.4C 636.683 16.4 634.633 16.5 632.083 16.5L 630.233 16.5L 630.033 17.3L 633.483 17.3L 627.683 37ZM 684.182 2.3L 687.582 2.3L 682.832 19.45L 682.732 19.45C 682.182 17.9 680.782 15.4 677.082 15.4C 671.982 15.4 664.282 21.5 664.282 29.05C 664.282 34.4 667.382 37.6 671.282 37.6C 675.282 37.6 677.582 34.4 678.632 33L 678.732 33.1C 678.432 35.05 679.282 37.6 681.582 37.6C 683.682 37.6 685.532 36.45 686.732 34.75L 688.432 32.4L 687.832 32.05L 686.632 33.7C 685.982 34.55 684.482 36.4 683.282 36.4C 682.432 36.4 682.032 35.85 682.032 35.15C 681.982 34.45 682.232 33.6 682.382 33.1L 692.182 0.25C 690.582 1.2 688.582 1.5 686.632 1.5L 684.382 1.5L 684.182 2.3ZM 668.182 32.7C 668.082 27.4 671.382 16.2 677.982 16.2C 680.582 16.2 682.232 19.35 682.232 20.5C 682.232 22 678.682 32.05 678.032 32.95C 676.482 35.1 674.032 36.8 671.632 36.8C 669.332 36.8 668.232 35.1 668.182 32.7ZM 695.366 17.3L 698.566 17.3L 694.316 30.95C 694.016 32 693.666 33 693.666 33.95C 693.666 36.4 695.516 37.3 697.116 37.3C 701.016 37.3 703.966 33.3 704.616 32.2L 704.016 31.8C 703.416 32.7 701.116 36.1 698.466 36.1C 697.616 36.1 697.266 35.4 697.266 34.8C 697.266 34.05 697.716 32.75 698.066 31.7L 703.266 15.4C 701.116 16.3 699.016 16.5 696.866 16.5L 695.516 16.5L 695.366 17.3ZM 706.516 3.7C 706.516 3.05 706.166 2 704.616 2C 703.066 2 701.716 4.05 701.716 5.7C 701.716 6.35 702.066 7.4 703.316 7.4C 705.166 7.4 706.516 5.35 706.516 3.7ZM 725.882 31.25C 725.032 32.35 721.882 36.8 717.582 36.8C 713.932 36.8 712.882 34.25 712.882 30.95C 712.882 29.7 713.232 27.6 713.732 25.7C 714.932 26.2 716.232 26.45 717.532 26.45C 723.182 26.45 727.882 23.6 727.882 19.75C 727.882 16.6 724.932 15.4 722.432 15.4C 716.182 15.4 708.982 21.4 708.982 29.1C 708.982 35.55 714.132 37.6 716.832 37.6C 722.282 37.6 725.332 33.05 726.382 31.6L 725.882 31.25ZM 724.582 19.25C 724.582 21.3 722.932 25.65 717.532 25.65C 716.032 25.65 714.732 25.2 713.932 24.95C 715.082 21.35 717.082 16.2 721.582 16.2C 723.432 16.2 724.582 17.5 724.582 19.25ZM 744.614 37L 757.864 37L 758.064 36.2L 753.714 36.2L 758.464 19.3L 775.664 19.3L 770.914 36.2L 766.764 36.2L 766.564 37L 780.264 37L 780.464 36.2L 775.964 36.2L 785.364 2.6L 789.214 2.6L 789.414 1.8L 776.164 1.8L 775.964 2.6L 780.314 2.6L 775.864 18.5L 758.664 18.5L 763.114 2.6L 767.264 2.6L 767.464 1.8L 753.764 1.8L 753.564 2.6L 758.064 2.6L 748.664 36.2L 744.814 36.2L 744.614 37ZM 792.43 32.8C 792.43 28.95 795.38 16.2 801.78 16.2C 804.88 16.2 806.38 18.85 806.38 20.65C 806.38 21.65 805.38 24 804.13 28.1C 802.73 32.75 800.28 36.8 796.03 36.8C 793.78 36.8 792.43 35.45 792.43 32.8ZM 811.78 16.5L 807.93 16.5L 806.98 19.55L 806.88 19.55C 806.53 18.05 805.23 15.4 801.98 15.4C 795.73 15.4 788.53 22.1 788.53 29.1C 788.53 33.75 791.23 37.6 795.98 37.6C 798.88 37.6 801.68 35.15 802.88 33.1L 802.98 33.1C 803.03 34.65 803.18 37.6 806.58 37.6C 809.78 37.6 811.98 33.5 812.63 32.6L 812.13 32.1C 811.43 33.05 809.23 36.4 807.48 36.4C 806.68 36.4 806.28 35.8 806.28 35C 806.28 34.2 806.58 33.2 806.83 32.4L 811.78 16.5ZM 840.964 16.5L 836.914 16.5L 833.864 26C 832.064 31.65 826.264 36.5 823.414 36.5C 822.114 36.5 821.464 35.85 821.464 34.8C 821.464 34.5 821.664 33.65 821.964 32.75L 827.564 15.4C 825.414 16.3 823.314 16.5 821.164 16.5L 819.814 16.5L 819.614 17.3L 822.814 17.3L 818.664 29.9C 818.414 30.75 817.864 32.65 817.864 33.5C 817.864 36.7 820.014 37.3 822.364 37.3C 826.314 37.3 829.464 34.35 832.514 30.35L 832.614 30.35C 832.264 31.55 831.714 33.15 831.714 34.05C 831.714 36.1 833.114 37.3 835.214 37.3C 838.564 37.3 840.264 34.85 841.864 32.3L 841.264 31.95C 839.614 34.4 838.514 36.1 836.714 36.1C 835.764 36.1 835.314 35.35 835.314 34.9C 835.314 34.5 835.414 33.6 835.714 32.75L 840.964 16.5ZM 848.747 30.1C 848.297 31.5 847.947 32.75 847.947 33.75C 847.947 36.35 849.647 37.3 852.047 37.3C 855.847 37.3 858.997 33.7 861.147 31L 860.597 30.6C 858.247 34.05 854.697 36.5 853.097 36.5C 852.047 36.5 851.547 35.8 851.547 35.05C 851.547 34.3 851.747 33.35 851.897 32.8L 856.797 17.3L 862.647 17.3L 862.897 16.5L 857.047 16.5L 859.647 8.25C 858.347 9.25 856.797 9.65 855.147 9.65L 852.997 16.5L 849.347 16.5L 849.097 17.3L 852.747 17.3L 848.747 30.1ZM 882.513 24.25C 882.513 26.45 883.663 28.55 885.463 29.85C 882.913 30.35 880.063 31.95 880.063 34.9C 880.063 36.8 880.913 37.75 882.713 38.35L 882.713 38.5C 879.913 39.75 877.363 41.7 877.363 45.2C 877.363 48.9 881.863 51 886.713 51C 895.563 51 899.913 44.25 899.913 40.05C 899.913 35.2 896.413 34.8 893.213 34.8C 890.613 34.8 888.063 35 885.613 35C 882.413 35 881.863 34.35 881.863 33.25C 881.863 31.65 884.063 30.6 886.063 30.2C 886.913 30.65 888.413 30.95 889.613 30.95C 895.063 30.95 899.363 26.65 899.363 22.85C 899.363 21.85 899.313 20.8 898.863 19.8C 899.313 18.5 900.463 16.85 901.113 16.85C 901.263 16.85 901.513 16.85 901.513 17.1C 901.513 17.3 901.363 17.45 901.363 17.9C 901.363 19.05 901.963 19.9 903.313 19.9C 904.813 19.9 905.263 18.7 905.263 17.8C 905.263 16.7 904.713 15.4 902.913 15.4C 900.363 15.4 898.963 18.1 898.563 18.95C 897.413 16.75 894.813 15.4 892.513 15.4C 887.813 15.4 882.513 19.1 882.513 24.25ZM 895.463 38.6C 896.563 38.6 898.413 39 898.413 41.35C 898.413 45.05 894.313 50.2 887.413 50.2C 881.363 50.2 879.463 46.85 879.463 44.8C 879.463 40.35 883.363 38.6 884.063 38.6L 895.463 38.6ZM 896.063 19.8C 896.063 20.85 894.563 30.15 889.813 30.15C 887.613 30.15 886.113 28.9 886.113 26.65C 886.113 24.15 887.913 16.2 892.563 16.2C 894.713 16.2 896.063 17.55 896.063 19.8ZM 924.063 31.25C 923.213 32.35 920.063 36.8 915.763 36.8C 912.113 36.8 911.063 34.25 911.063 30.95C 911.063 29.7 911.413 27.6 911.913 25.7C 913.113 26.2 914.413 26.45 915.713 26.45C 921.363 26.45 926.063 23.6 926.063 19.75C 926.063 16.6 923.113 15.4 920.613 15.4C 914.363 15.4 907.163 21.4 907.163 29.1C 907.163 35.55 912.313 37.6 915.013 37.6C 920.463 37.6 923.513 33.05 924.563 31.6L 924.063 31.25ZM 922.763 19.25C 922.763 21.3 921.113 25.65 915.713 25.65C 914.213 25.65 912.913 25.2 912.113 24.95C 913.263 21.35 915.263 16.2 919.763 16.2C 921.613 16.2 922.763 17.5 922.763 19.25ZM 930.28 37L 934.28 37L 937.28 26.7C 939.28 19.9 945.43 16.2 947.78 16.2C 949.13 16.2 949.68 16.85 949.68 17.85C 949.68 19.95 944.93 30.5 944.93 33.6C 944.93 35.85 945.83 37.3 948.18 37.3C 951.83 37.3 954.18 33.55 955.18 32.1L 954.68 31.75C 953.88 32.7 951.83 36.1 949.68 36.1C 948.88 36.1 948.53 35.35 948.53 34.55C 948.53 33.3 953.28 21.6 953.28 19.45C 953.28 17.2 951.78 15.4 948.58 15.4C 944.68 15.4 940.88 18.65 938.68 22.3L 938.58 22.3L 945.03 0.25C 943.43 1.2 941.43 1.5 939.48 1.5L 937.23 1.5L 937.03 2.3L 940.43 2.3L 930.28 37ZM 961.813 30.1C 961.363 31.5 961.013 32.75 961.013 33.75C 961.013 36.35 962.713 37.3 965.113 37.3C 968.913 37.3 972.063 33.7 974.213 31L 973.663 30.6C 971.313 34.05 967.763 36.5 966.163 36.5C 965.113 36.5 964.613 35.8 964.613 35.05C 964.613 34.3 964.813 33.35 964.963 32.8L 969.863 17.3L 975.713 17.3L 975.963 16.5L 970.113 16.5L 972.713 8.25C 971.413 9.25 969.863 9.65 968.213 9.65L 966.063 16.5L 962.413 16.5L 962.163 17.3L 965.813 17.3L 961.813 30.1Z"/>
</defs>
</svg>
