<svg width="1266" height="230" viewBox="0 0 1266 230" version="1.1" xmlns="http://www.w3.org/2000/svg" xmlns:xlink="http://www.w3.org/1999/xlink">
<title>landing-hero-sp</title>
<desc>Created using Figma</desc>
<g id="Canvas" transform="translate(1919 -1269)">
<g id="landing-hero-sp">
<g id="Vector">
<use xlink:href="#path0_fill" transform="translate(-752.104 1270.27)" fill="#FFFFFF"/>
</g>
<g id="Vector">
<use xlink:href="#path1_fill" transform="translate(-955.759 1270.27)" fill="#FFFFFF"/>
</g>
<g id="Vector">
<use xlink:href="#path2_fill" transform="translate(-1032.97 1270.27)" fill="#FFFFFF"/>
</g>
<g id="Vector">
<use xlink:href="#path3_fill" transform="translate(-1236.62 1270.27)" fill="#FFFFFF"/>
</g>
<g id="Vector">
<use xlink:href="#path4_fill" transform="translate(-1411.1 1269.42)" fill="#FFFFFF"/>
</g>
<g id="Vector">
<use xlink:href="#path5_fill" transform="translate(-1561.8 1270.27)" fill="#FFFFFF"/>
</g>
<g id="Vector">
<use xlink:href="#path6_fill" transform="translate(-1723.32 1270.27)" fill="#FFFFFF"/>
</g>
<g id="Vector">
<use xlink:href="#path7_fill" transform="translate(-1919 1269)" fill="#FFFFFF"/>
</g>
<g id="Vaya m&#195;&#161;s all&#195;&#161; de lo que est&#195;&#161; a simple vista">
<use xlink:href="#path8_fill" transform="translate(-1913 1448)" fill="#FFFFFF"/>
</g>
</g>
</g>
<defs>
<path id="path0_fill" d="M 21.5076 20.7099L 21.5076 66.3563L 64.523 66.3563C 66.2099 66.3563 67.8967 67.6243 67.8967 69.7376L 67.8967 83.6851C 67.8967 85.7983 66.6316 87.0663 64.523 87.0663L 21.5076 87.0663L 21.5076 130.177L 95.7301 130.177C 97.417 130.177 99.104 131.445 99.104 133.558L 99.104 147.506C 99.104 149.196 97.8387 150.887 95.7301 150.887L 3.37375 150.887C 1.68688 150.887 5.14794e-05 149.619 5.14794e-05 147.506L 5.14794e-05 2.95856C 5.14794e-05 1.26796 1.26513 5.0384e-08 2.95201 5.0384e-08L 95.7301 5.0384e-08C 97.417 5.0384e-08 99.104 1.26796 99.104 2.95856L 99.104 17.3287C 99.104 19.0193 97.8387 20.2873 95.7301 20.2873L 21.5076 20.2873L 21.5076 20.7099Z"/>
<path id="path1_fill" d="M 146.722 3.80387L 77.5605 148.773C 77.1388 150.041 75.8736 151.309 74.1867 151.309L 72.4999 151.309C 70.813 151.309 69.5478 150.041 69.1261 148.773L 0.385922 3.80387C -0.879235 1.69061 1.22939 5.0384e-08 2.91626 5.0384e-08L 21.8936 5.0384e-08C 23.5805 5.0384e-08 24.4239 1.69061 25.2673 3.38122L 73.765 109.044L 122.263 3.38122C 123.106 1.69061 123.95 5.0384e-08 125.636 5.0384e-08L 144.614 5.0384e-08C 146.301 5.0384e-08 147.988 1.69061 146.722 3.80387Z"/>
<path id="path2_fill" d="M 17.7122 5.0384e-08C 19.3991 5.0384e-08 20.6642 1.26796 20.6642 2.95856L 20.6642 147.083C 20.6642 148.773 19.3991 150.464 17.7122 150.464L 3.37372 150.464C 1.68685 150.464 2.57397e-05 149.196 2.57397e-05 147.083L 2.57397e-05 2.95856C 2.57397e-05 1.26796 1.26517 5.0384e-08 2.95204 5.0384e-08L 17.7122 5.0384e-08L 17.7122 5.0384e-08Z"/>
<path id="path3_fill" d="M 146.722 3.80387L 77.5605 148.773C 77.1387 150.041 75.8736 151.309 74.1867 151.309L 72.4998 151.309C 70.813 151.309 69.5478 150.041 69.1261 148.773L 0.385896 3.80387C -0.879261 1.69061 1.22936 5.0384e-08 2.91624 5.0384e-08L 21.8936 5.0384e-08C 23.5805 5.0384e-08 24.4239 1.69061 25.2673 3.38122L 73.765 109.044L 122.263 3.38122C 123.106 1.69061 123.95 5.0384e-08 125.636 5.0384e-08L 144.614 5.0384e-08C 146.301 5.0384e-08 147.988 1.69061 146.722 3.80387Z"/>
<path id="path4_fill" d="M 147.027 151.309L 130.158 151.309C 128.471 151.309 127.628 150.464 126.784 149.196L 114.976 124.682L 34.006 124.682L 22.6196 149.196C 21.7761 150.464 20.9327 151.309 19.2458 151.309L 2.37706 151.309C 0.690185 151.309 -0.574972 149.619 0.268466 147.928L 71.1172 1.69061C 71.539 0.422652 72.8041 6.298e-09 73.6475 6.298e-09L 76.1779 6.298e-09C 77.0213 6.298e-09 77.8648 0.422652 78.7082 1.69061L 149.135 147.928C 149.557 149.619 149.135 151.309 147.027 151.309ZM 105.698 105.24L 74.491 38.884L 43.2838 105.24L 105.698 105.24Z"/>
<path id="path5_fill" d="M 94.0433 133.135L 94.0433 147.506C 94.0433 149.196 92.7782 150.464 91.0913 150.464L 2.53033 150.464C 0.843451 150.464 -1.28698e-05 149.196 -1.28698e-05 147.506L -1.28698e-05 2.95856C -1.28698e-05 1.26796 1.26516 5.0384e-08 2.95204 5.0384e-08L 18.1339 5.0384e-08C 19.8208 5.0384e-08 21.0859 1.26796 21.0859 2.95856L 21.0859 129.754L 90.6695 129.754C 92.7781 129.754 94.0433 131.022 94.0433 133.135Z"/>
<path id="path6_fill" d="M 21.0859 20.7099L 21.0859 66.3563L 64.1013 66.3563C 65.7881 66.3563 67.475 67.6243 67.475 69.7376L 67.475 83.6851C 67.475 85.7983 66.2099 87.0663 64.1013 87.0663L 21.0859 87.0663L 21.0859 130.177L 95.3085 130.177C 96.9953 130.177 98.6822 131.445 98.6822 133.558L 98.6822 147.506C 98.6822 149.196 97.4171 150.887 95.3085 150.887L 3.37375 150.887C 1.68688 150.887 6.43492e-06 149.619 6.43492e-06 147.506L 6.43492e-06 2.95856C 6.43492e-06 1.26796 1.26515 5.0384e-08 2.95203 5.0384e-08L 95.7302 5.0384e-08C 97.417 5.0384e-08 99.1039 1.26796 99.1039 2.95856L 99.1039 17.3287C 99.1039 19.0193 97.8388 20.2873 95.7302 20.2873L 21.0859 20.2873L 21.0859 20.7099Z"/>
<path id="path7_fill" d="M 131.576 129.331C 117.66 144.124 98.6822 153 76.3311 153C 34.5809 153 0 119.61 0 76.9227C 0 34.2348 34.5809 0 76.3311 0C 98.2605 0 118.081 8.87569 131.998 23.6685C 133.685 25.3591 133.685 27.0497 131.998 28.3177L 120.19 38.0387C 118.503 39.3066 117.238 39.3066 115.973 38.0387C 107.96 29.5856 94.0433 20.7099 77.1745 20.7099C 43.0153 20.2873 21.0859 48.605 21.0859 76.9227C 21.0859 105.24 43.0153 132.713 76.7528 132.713C 93.6216 132.713 107.117 124.26 115.129 115.807C 116.816 114.116 118.081 114.116 119.768 114.961L 131.576 124.682C 133.263 125.95 133.263 127.641 131.576 129.331Z"/>
<path id="path8_fill" d="M 142.92 37.1L 143.67 37.3L 168.62 3.8C 169.42 2.75 169.67 2.6 171.22 2.6L 171.42 1.8L 164.42 1.8L 164.22 2.6C 165.62 2.6 167.57 2.7 167.57 3.45C 167.57 4 167.22 4.45 166.72 5.1L 149.27 28.7L 149.17 28.5L 153.42 2.6L 158.67 2.6L 158.82 1.8L 144.97 1.8L 144.77 2.6L 148.57 2.6L 142.92 37.1ZM 169.369 32.8C 169.369 28.95 172.319 16.2 178.719 16.2C 181.819 16.2 183.319 18.85 183.319 20.65C 183.319 21.65 182.319 24 181.069 28.1C 179.669 32.75 177.219 36.8 172.969 36.8C 170.719 36.8 169.369 35.45 169.369 32.8ZM 188.719 16.5L 184.869 16.5L 183.919 19.55L 183.819 19.55C 183.469 18.05 182.169 15.4 178.919 15.4C 172.669 15.4 165.469 22.1 165.469 29.1C 165.469 33.75 168.169 37.6 172.919 37.6C 175.819 37.6 178.619 35.15 179.819 33.1L 179.919 33.1C 179.969 34.65 180.119 37.6 183.519 37.6C 186.719 37.6 188.919 33.5 189.569 32.6L 189.069 32.1C 188.369 33.05 186.169 36.4 184.419 36.4C 183.619 36.4 183.219 35.8 183.219 35C 183.219 34.2 183.519 33.2 183.769 32.4L 188.719 16.5ZM 204.923 32.35L 204.823 32.35L 203.323 20.75C 203.023 18.3 202.623 15.4 200.023 15.4C 195.923 15.4 193.323 21.05 192.673 22.15L 193.373 22.4C 193.973 21.45 195.923 17.5 197.623 17.5C 198.573 17.5 198.823 18.95 198.973 19.95L 201.423 37.9C 199.773 41 195.123 47.85 191.223 47.85C 190.673 47.85 190.373 47.65 190.373 47.35C 190.373 46.8 191.223 46.6 191.223 45.35C 191.223 43.75 190.273 43.1 189.123 43.1C 187.823 43.1 186.723 44.2 186.723 45.65C 186.723 47.55 188.223 48.7 190.323 48.7C 196.423 48.7 201.023 40.7 205.223 33.1L 210.973 22.7C 213.323 18.45 214.823 16.9 215.223 16.9C 215.373 16.9 215.423 17 215.423 17.15C 215.423 17.6 215.123 17.95 215.123 18.45C 215.123 19.55 216.173 20.2 217.123 20.2C 218.373 20.2 219.323 19.25 219.323 17.95C 219.323 16.15 218.323 15.4 216.923 15.4C 214.323 15.4 212.773 18.05 210.273 22.6L 204.923 32.35ZM 224.273 32.8C 224.273 28.95 227.223 16.2 233.623 16.2C 236.723 16.2 238.223 18.85 238.223 20.65C 238.223 21.65 237.223 24 235.973 28.1C 234.573 32.75 232.123 36.8 227.873 36.8C 225.623 36.8 224.273 35.45 224.273 32.8ZM 243.623 16.5L 239.773 16.5L 238.823 19.55L 238.723 19.55C 238.373 18.05 237.073 15.4 233.823 15.4C 227.573 15.4 220.373 22.1 220.373 29.1C 220.373 33.75 223.073 37.6 227.823 37.6C 230.723 37.6 233.523 35.15 234.723 33.1L 234.823 33.1C 234.873 34.65 235.023 37.6 238.423 37.6C 241.623 37.6 243.823 33.5 244.473 32.6L 243.973 32.1C 243.273 33.05 241.073 36.4 239.323 36.4C 238.523 36.4 238.123 35.8 238.123 35C 238.123 34.2 238.423 33.2 238.673 32.4L 243.623 16.5ZM 264.472 37L 268.522 37L 271.722 26.05C 272.722 22.7 277.622 16.2 281.472 16.2C 282.122 16.2 282.572 16.55 282.572 17.25C 282.572 17.95 282.472 18.65 281.272 22.65L 277.072 37L 281.122 37L 284.422 25.8C 285.422 22.45 290.972 16.2 293.422 16.2C 294.772 16.2 295.322 16.85 295.322 17.85C 295.322 19.95 290.572 30.5 290.572 33.6C 290.572 35.85 291.472 37.3 293.822 37.3C 297.472 37.3 299.822 33.55 300.822 32.1L 300.322 31.75C 299.522 32.7 297.472 36.1 295.322 36.1C 294.522 36.1 294.172 35.35 294.172 34.55C 294.172 33.3 298.922 21.6 298.922 19.45C 298.922 17.2 297.422 15.4 294.222 15.4C 291.322 15.4 288.222 18.35 285.622 22L 285.522 22C 285.872 21 285.972 20.05 285.972 18.85C 285.972 16.8 284.372 15.4 282.172 15.4C 278.672 15.4 274.872 18.9 272.872 22.3L 272.772 22.3L 274.822 15.4C 272.672 16.3 270.572 16.5 268.422 16.5L 267.372 16.5L 267.172 17.3L 270.272 17.3L 264.472 37ZM 309.388 32.8C 309.388 28.95 312.338 16.2 318.738 16.2C 321.838 16.2 323.338 18.85 323.338 20.65C 323.338 21.65 322.338 24 321.088 28.1C 319.688 32.75 317.238 36.8 312.988 36.8C 310.738 36.8 309.388 35.45 309.388 32.8ZM 328.738 16.5L 324.888 16.5L 323.938 19.55L 323.838 19.55C 323.488 18.05 322.188 15.4 318.938 15.4C 312.688 15.4 305.488 22.1 305.488 29.1C 305.488 33.75 308.188 37.6 312.938 37.6C 315.838 37.6 318.638 35.15 319.838 33.1L 319.938 33.1C 319.988 34.65 320.138 37.6 323.538 37.6C 326.738 37.6 328.938 33.5 329.588 32.6L 329.088 32.1C 328.388 33.05 326.188 36.4 324.438 36.4C 323.638 36.4 323.238 35.8 323.238 35C 323.238 34.2 323.538 33.2 323.788 32.4L 328.738 16.5ZM 318.038 9.4L 319.588 9.4L 327.288 4.6C 327.888 4.25 328.938 3.55 328.938 2.6C 328.938 1.6 328.238 0.95 327.388 0.95C 326.488 0.95 325.438 2 324.638 2.8L 318.038 9.4ZM 338.372 22.3C 338.372 27.6 344.572 28.45 344.572 32.65C 344.572 35.4 342.422 36.8 339.872 36.8C 336.922 36.8 336.172 35.65 336.172 34.95C 336.172 33.45 338.622 34.15 338.622 31.65C 338.622 30.75 337.872 29.55 336.372 29.55C 334.872 29.55 333.822 31 333.822 32.55C 333.822 34.35 335.272 37.6 339.722 37.6C 345.472 37.6 348.172 34 348.172 31C 348.172 24.55 341.372 24.7 341.372 20.45C 341.372 17.1 343.622 16.2 345.622 16.2C 347.272 16.2 347.772 16.65 347.772 17.25C 347.072 17.7 346.122 18.35 346.122 19.7C 346.122 20.75 346.772 21.8 348.222 21.8C 349.522 21.8 350.622 21 350.622 19.45C 350.622 17.2 348.922 15.4 345.822 15.4C 341.272 15.4 338.372 19.7 338.372 22.3ZM 375.021 32.8C 375.021 28.95 377.971 16.2 384.371 16.2C 387.471 16.2 388.971 18.85 388.971 20.65C 388.971 21.65 387.971 24 386.721 28.1C 385.321 32.75 382.871 36.8 378.621 36.8C 376.371 36.8 375.021 35.45 375.021 32.8ZM 394.371 16.5L 390.521 16.5L 389.571 19.55L 389.471 19.55C 389.121 18.05 387.821 15.4 384.571 15.4C 378.321 15.4 371.121 22.1 371.121 29.1C 371.121 33.75 373.821 37.6 378.571 37.6C 381.471 37.6 384.271 35.15 385.471 33.1L 385.571 33.1C 385.621 34.65 385.771 37.6 389.171 37.6C 392.371 37.6 394.571 33.5 395.221 32.6L 394.721 32.1C 394.021 33.05 391.821 36.4 390.071 36.4C 389.271 36.4 388.871 35.8 388.871 35C 388.871 34.2 389.171 33.2 389.421 32.4L 394.371 16.5ZM 401.304 30.1C 400.754 31.9 400.404 33.05 400.404 33.95C 400.404 36.4 402.254 37.3 403.854 37.3C 407.754 37.3 410.704 33.3 411.354 32.2L 410.754 31.8C 410.154 32.7 407.854 36.1 405.204 36.1C 404.354 36.1 404.004 35.4 404.004 34.8C 404.004 34.2 404.304 33.4 404.604 32.4L 414.204 0.25C 412.604 1.2 410.604 1.5 408.654 1.5L 406.404 1.5L 406.204 2.3L 409.604 2.3L 401.304 30.1ZM 416.721 30.1C 416.171 31.9 415.821 33.05 415.821 33.95C 415.821 36.4 417.671 37.3 419.271 37.3C 423.171 37.3 426.121 33.3 426.771 32.2L 426.171 31.8C 425.571 32.7 423.271 36.1 420.621 36.1C 419.771 36.1 419.421 35.4 419.421 34.8C 419.421 34.2 419.721 33.4 420.021 32.4L 429.621 0.25C 428.021 1.2 426.021 1.5 424.071 1.5L 421.821 1.5L 421.621 2.3L 425.021 2.3L 416.721 30.1ZM 435.137 32.8C 435.137 28.95 438.087 16.2 444.487 16.2C 447.587 16.2 449.087 18.85 449.087 20.65C 449.087 21.65 448.087 24 446.837 28.1C 445.437 32.75 442.987 36.8 438.737 36.8C 436.487 36.8 435.137 35.45 435.137 32.8ZM 454.487 16.5L 450.637 16.5L 449.687 19.55L 449.587 19.55C 449.237 18.05 447.937 15.4 444.687 15.4C 438.437 15.4 431.237 22.1 431.237 29.1C 431.237 33.75 433.937 37.6 438.687 37.6C 441.587 37.6 444.387 35.15 445.587 33.1L 445.687 33.1C 445.737 34.65 445.887 37.6 449.287 37.6C 452.487 37.6 454.687 33.5 455.337 32.6L 454.837 32.1C 454.137 33.05 451.937 36.4 450.187 36.4C 449.387 36.4 448.987 35.8 448.987 35C 448.987 34.2 449.287 33.2 449.537 32.4L 454.487 16.5ZM 443.787 9.4L 445.337 9.4L 453.037 4.6C 453.637 4.25 454.687 3.55 454.687 2.6C 454.687 1.6 453.987 0.95 453.137 0.95C 452.237 0.95 451.187 2 450.387 2.8L 443.787 9.4ZM 495.836 2.3L 499.236 2.3L 494.486 19.45L 494.386 19.45C 493.836 17.9 492.436 15.4 488.736 15.4C 483.636 15.4 475.936 21.5 475.936 29.05C 475.936 34.4 479.036 37.6 482.936 37.6C 486.936 37.6 489.236 34.4 490.286 33L 490.386 33.1C 490.086 35.05 490.936 37.6 493.236 37.6C 495.336 37.6 497.186 36.45 498.386 34.75L 500.086 32.4L 499.486 32.05L 498.286 33.7C 497.636 34.55 496.136 36.4 494.936 36.4C 494.086 36.4 493.686 35.85 493.686 35.15C 493.636 34.45 493.886 33.6 494.036 33.1L 503.836 0.25C 502.236 1.2 500.236 1.5 498.286 1.5L 496.036 1.5L 495.836 2.3ZM 479.836 32.7C 479.736 27.4 483.036 16.2 489.636 16.2C 492.236 16.2 493.886 19.35 493.886 20.5C 493.886 22 490.336 32.05 489.686 32.95C 488.136 35.1 485.686 36.8 483.286 36.8C 480.986 36.8 479.886 35.1 479.836 32.7ZM 522.119 31.25C 521.269 32.35 518.119 36.8 513.819 36.8C 510.169 36.8 509.119 34.25 509.119 30.95C 509.119 29.7 509.469 27.6 509.969 25.7C 511.169 26.2 512.469 26.45 513.769 26.45C 519.419 26.45 524.119 23.6 524.119 19.75C 524.119 16.6 521.169 15.4 518.669 15.4C 512.419 15.4 505.219 21.4 505.219 29.1C 505.219 35.55 510.369 37.6 513.069 37.6C 518.519 37.6 521.569 33.05 522.619 31.6L 522.119 31.25ZM 520.819 19.25C 520.819 21.3 519.169 25.65 513.769 25.65C 512.269 25.65 510.969 25.2 510.169 24.95C 511.319 21.35 513.319 16.2 517.819 16.2C 519.669 16.2 520.819 17.5 520.819 19.25ZM 545.252 30.1C 544.702 31.9 544.352 33.05 544.352 33.95C 544.352 36.4 546.202 37.3 547.802 37.3C 551.702 37.3 554.652 33.3 555.302 32.2L 554.702 31.8C 554.102 32.7 551.802 36.1 549.152 36.1C 548.302 36.1 547.952 35.4 547.952 34.8C 547.952 34.2 548.252 33.4 548.552 32.4L 558.152 0.25C 556.552 1.2 554.552 1.5 552.602 1.5L 550.352 1.5L 550.152 2.3L 553.552 2.3L 545.252 30.1ZM 559.768 28.85C 559.768 33.7 562.368 37.6 567.868 37.6C 573.868 37.6 580.418 31.55 580.418 23.45C 580.418 18.4 576.268 15.4 572.768 15.4C 565.368 15.4 559.768 22.6 559.768 28.85ZM 572.468 16.2C 575.318 16.2 576.818 17.75 576.818 20.2C 576.818 23.1 574.118 31.6 572.818 33.8C 572.368 34.5 570.818 36.8 567.718 36.8C 564.868 36.8 563.368 34.85 563.368 32.45C 563.368 30.1 566.068 21.45 567.118 19.65C 568.218 17.75 569.918 16.2 572.468 16.2ZM 607.684 50.5L 617.734 50.5L 617.934 49.7L 614.934 49.7L 624.984 16.5L 621.084 16.5L 620.234 19.35L 620.134 19.35C 619.584 17.9 618.484 15.4 614.634 15.4C 609.184 15.4 601.684 21.5 601.684 29.05C 601.684 34.4 604.784 37.6 608.684 37.6C 611.584 37.6 614.484 35.1 615.684 33.65L 615.784 33.75L 610.884 49.7L 607.884 49.7L 607.684 50.5ZM 605.584 32.7C 605.434 28 608.634 16.2 614.934 16.2C 618.984 16.2 619.634 19.95 619.634 20.65C 619.634 22 616.084 32.05 615.434 32.95C 613.884 35.1 611.434 36.8 609.034 36.8C 606.734 36.8 605.634 35.1 605.584 32.7ZM 654.117 16.5L 650.067 16.5L 647.017 26C 645.217 31.65 639.417 36.5 636.567 36.5C 635.267 36.5 634.617 35.85 634.617 34.8C 634.617 34.5 634.817 33.65 635.117 32.75L 640.717 15.4C 638.567 16.3 636.467 16.5 634.317 16.5L 632.967 16.5L 632.767 17.3L 635.967 17.3L 631.817 29.9C 631.567 30.75 631.017 32.65 631.017 33.5C 631.017 36.7 633.167 37.3 635.517 37.3C 639.467 37.3 642.617 34.35 645.667 30.35L 645.767 30.35C 645.417 31.55 644.867 33.15 644.867 34.05C 644.867 36.1 646.267 37.3 648.367 37.3C 651.717 37.3 653.417 34.85 655.017 32.3L 654.417 31.95C 652.767 34.4 651.667 36.1 649.867 36.1C 648.917 36.1 648.467 35.35 648.467 34.9C 648.467 34.5 648.567 33.6 648.867 32.75L 654.117 16.5ZM 677.15 31.25C 676.3 32.35 673.15 36.8 668.85 36.8C 665.2 36.8 664.15 34.25 664.15 30.95C 664.15 29.7 664.5 27.6 665 25.7C 666.2 26.2 667.5 26.45 668.8 26.45C 674.45 26.45 679.15 23.6 679.15 19.75C 679.15 16.6 676.2 15.4 673.7 15.4C 667.45 15.4 660.25 21.4 660.25 29.1C 660.25 35.55 665.4 37.6 668.1 37.6C 673.55 37.6 676.6 33.05 677.65 31.6L 677.15 31.25ZM 675.85 19.25C 675.85 21.3 674.2 25.65 668.8 25.65C 667.3 25.65 666 25.2 665.2 24.95C 666.35 21.35 668.35 16.2 672.85 16.2C 674.7 16.2 675.85 17.5 675.85 19.25ZM 716.283 31.25C 715.433 32.35 712.283 36.8 707.983 36.8C 704.333 36.8 703.283 34.25 703.283 30.95C 703.283 29.7 703.633 27.6 704.133 25.7C 705.333 26.2 706.633 26.45 707.933 26.45C 713.583 26.45 718.283 23.6 718.283 19.75C 718.283 16.6 715.333 15.4 712.833 15.4C 706.583 15.4 699.383 21.4 699.383 29.1C 699.383 35.55 704.533 37.6 707.233 37.6C 712.683 37.6 715.733 33.05 716.783 31.6L 716.283 31.25ZM 714.983 19.25C 714.983 21.3 713.333 25.65 707.933 25.65C 706.433 25.65 705.133 25.2 704.333 24.95C 705.483 21.35 707.483 16.2 711.983 16.2C 713.833 16.2 714.983 17.5 714.983 19.25ZM 726.7 22.3C 726.7 27.6 732.9 28.45 732.9 32.65C 732.9 35.4 730.75 36.8 728.2 36.8C 725.25 36.8 724.5 35.65 724.5 34.95C 724.5 33.45 726.95 34.15 726.95 31.65C 726.95 30.75 726.2 29.55 724.7 29.55C 723.2 29.55 722.15 31 722.15 32.55C 722.15 34.35 723.6 37.6 728.05 37.6C 733.8 37.6 736.5 34 736.5 31C 736.5 24.55 729.7 24.7 729.7 20.45C 729.7 17.1 731.95 16.2 733.95 16.2C 735.6 16.2 736.1 16.65 736.1 17.25C 735.4 17.7 734.45 18.35 734.45 19.7C 734.45 20.75 735.1 21.8 736.55 21.8C 737.85 21.8 738.95 21 738.95 19.45C 738.95 17.2 737.25 15.4 734.15 15.4C 729.6 15.4 726.7 19.7 726.7 22.3ZM 745.683 30.1C 745.233 31.5 744.883 32.75 744.883 33.75C 744.883 36.35 746.583 37.3 748.983 37.3C 752.783 37.3 755.933 33.7 758.083 31L 757.533 30.6C 755.183 34.05 751.633 36.5 750.033 36.5C 748.983 36.5 748.483 35.8 748.483 35.05C 748.483 34.3 748.683 33.35 748.833 32.8L 753.733 17.3L 759.583 17.3L 759.833 16.5L 753.983 16.5L 756.583 8.25C 755.283 9.25 753.733 9.65 752.083 9.65L 749.933 16.5L 746.283 16.5L 746.033 17.3L 749.683 17.3L 745.683 30.1ZM 766.084 32.8C 766.084 28.95 769.034 16.2 775.434 16.2C 778.534 16.2 780.034 18.85 780.034 20.65C 780.034 21.65 779.034 24 777.784 28.1C 776.384 32.75 773.934 36.8 769.684 36.8C 767.434 36.8 766.084 35.45 766.084 32.8ZM 785.434 16.5L 781.584 16.5L 780.634 19.55L 780.534 19.55C 780.184 18.05 778.884 15.4 775.634 15.4C 769.384 15.4 762.184 22.1 762.184 29.1C 762.184 33.75 764.884 37.6 769.634 37.6C 772.534 37.6 775.334 35.15 776.534 33.1L 776.634 33.1C 776.684 34.65 776.834 37.6 780.234 37.6C 783.434 37.6 785.634 33.5 786.284 32.6L 785.784 32.1C 785.084 33.05 782.884 36.4 781.134 36.4C 780.334 36.4 779.934 35.8 779.934 35C 779.934 34.2 780.234 33.2 780.484 32.4L 785.434 16.5ZM 774.734 9.4L 776.284 9.4L 783.984 4.6C 784.584 4.25 785.634 3.55 785.634 2.6C 785.634 1.6 784.934 0.95 784.084 0.95C 783.184 0.95 782.134 2 781.334 2.8L 774.734 9.4ZM 810.783 32.8C 810.783 28.95 813.733 16.2 820.133 16.2C 823.233 16.2 824.733 18.85 824.733 20.65C 824.733 21.65 823.733 24 822.483 28.1C 821.083 32.75 818.633 36.8 814.383 36.8C 812.133 36.8 810.783 35.45 810.783 32.8ZM 830.133 16.5L 826.283 16.5L 825.333 19.55L 825.233 19.55C 824.883 18.05 823.583 15.4 820.333 15.4C 814.083 15.4 806.883 22.1 806.883 29.1C 806.883 33.75 809.583 37.6 814.333 37.6C 817.233 37.6 820.033 35.15 821.233 33.1L 821.333 33.1C 821.383 34.65 821.533 37.6 824.933 37.6C 828.133 37.6 830.333 33.5 830.983 32.6L 830.483 32.1C 829.783 33.05 827.583 36.4 825.833 36.4C 825.033 36.4 824.633 35.8 824.633 35C 824.633 34.2 824.933 33.2 825.183 32.4L 830.133 16.5ZM 855.182 22.3C 855.182 27.6 861.382 28.45 861.382 32.65C 861.382 35.4 859.232 36.8 856.682 36.8C 853.732 36.8 852.982 35.65 852.982 34.95C 852.982 33.45 855.432 34.15 855.432 31.65C 855.432 30.75 854.682 29.55 853.182 29.55C 851.682 29.55 850.632 31 850.632 32.55C 850.632 34.35 852.082 37.6 856.532 37.6C 862.282 37.6 864.982 34 864.982 31C 864.982 24.55 858.182 24.7 858.182 20.45C 858.182 17.1 860.432 16.2 862.432 16.2C 864.082 16.2 864.582 16.65 864.582 17.25C 863.882 17.7 862.932 18.35 862.932 19.7C 862.932 20.75 863.582 21.8 865.032 21.8C 866.332 21.8 867.432 21 867.432 19.45C 867.432 17.2 865.732 15.4 862.632 15.4C 858.082 15.4 855.182 19.7 855.182 22.3ZM 874.316 17.3L 877.516 17.3L 873.266 30.95C 872.966 32 872.616 33 872.616 33.95C 872.616 36.4 874.466 37.3 876.066 37.3C 879.966 37.3 882.916 33.3 883.566 32.2L 882.966 31.8C 882.366 32.7 880.066 36.1 877.416 36.1C 876.566 36.1 876.216 35.4 876.216 34.8C 876.216 34.05 876.666 32.75 877.016 31.7L 882.216 15.4C 880.066 16.3 877.966 16.5 875.816 16.5L 874.466 16.5L 874.316 17.3ZM 885.466 3.7C 885.466 3.05 885.116 2 883.566 2C 882.016 2 880.666 4.05 880.666 5.7C 880.666 6.35 881.016 7.4 882.266 7.4C 884.116 7.4 885.466 5.35 885.466 3.7ZM 887.332 37L 891.382 37L 894.582 26.05C 895.582 22.7 900.482 16.2 904.332 16.2C 904.982 16.2 905.432 16.55 905.432 17.25C 905.432 17.95 905.332 18.65 904.132 22.65L 899.932 37L 903.982 37L 907.282 25.8C 908.282 22.45 913.832 16.2 916.282 16.2C 917.632 16.2 918.182 16.85 918.182 17.85C 918.182 19.95 913.432 30.5 913.432 33.6C 913.432 35.85 914.332 37.3 916.682 37.3C 920.332 37.3 922.682 33.55 923.682 32.1L 923.182 31.75C 922.382 32.7 920.332 36.1 918.182 36.1C 917.382 36.1 917.032 35.35 917.032 34.55C 917.032 33.3 921.782 21.6 921.782 19.45C 921.782 17.2 920.282 15.4 917.082 15.4C 914.182 15.4 911.082 18.35 908.482 22L 908.382 22C 908.732 21 908.832 20.05 908.832 18.85C 908.832 16.8 907.232 15.4 905.032 15.4C 901.532 15.4 897.732 18.9 895.732 22.3L 895.632 22.3L 897.682 15.4C 895.532 16.3 893.432 16.5 891.282 16.5L 890.232 16.5L 890.032 17.3L 893.132 17.3L 887.332 37ZM 920.598 50.5L 930.448 50.5L 930.648 49.7L 927.648 49.7L 932.198 33.65L 932.298 33.65C 932.798 36.05 934.948 37.6 938.098 37.6C 944.898 37.6 951.098 30.55 951.098 23.9C 951.098 18.7 947.448 15.4 943.398 15.4C 940.548 15.4 937.998 16.9 936.298 19.3L 936.198 19.3L 937.098 15.4C 935.798 16.4 933.748 16.5 931.198 16.5L 930.098 16.5L 929.898 17.3L 932.898 17.3L 923.498 49.7L 920.798 49.7L 920.598 50.5ZM 947.198 21.25C 947.198 25.8 943.948 36.8 937.598 36.8C 935.248 36.8 932.798 35.3 932.798 32.3C 932.798 32 932.898 31.15 933.198 30.05L 934.848 24.35C 936.098 19.95 938.798 16.2 943.098 16.2C 945.498 16.2 947.198 17.75 947.198 21.25ZM 958.531 30.1C 957.981 31.9 957.631 33.05 957.631 33.95C 957.631 36.4 959.481 37.3 961.081 37.3C 964.981 37.3 967.931 33.3 968.581 32.2L 967.981 31.8C 967.381 32.7 965.081 36.1 962.431 36.1C 961.581 36.1 961.231 35.4 961.231 34.8C 961.231 34.2 961.531 33.4 961.831 32.4L 971.431 0.25C 969.831 1.2 967.831 1.5 965.881 1.5L 963.631 1.5L 963.431 2.3L 966.831 2.3L 958.531 30.1ZM 989.947 31.25C 989.097 32.35 985.947 36.8 981.647 36.8C 977.997 36.8 976.947 34.25 976.947 30.95C 976.947 29.7 977.297 27.6 977.797 25.7C 978.997 26.2 980.297 26.45 981.597 26.45C 987.247 26.45 991.947 23.6 991.947 19.75C 991.947 16.6 988.997 15.4 986.497 15.4C 980.247 15.4 973.047 21.4 973.047 29.1C 973.047 35.55 978.197 37.6 980.897 37.6C 986.347 37.6 989.397 33.05 990.447 31.6L 989.947 31.25ZM 988.647 19.25C 988.647 21.3 986.997 25.65 981.597 25.65C 980.097 25.65 978.797 25.2 977.997 24.95C 979.147 21.35 981.147 16.2 985.647 16.2C 987.497 16.2 988.647 17.5 988.647 19.25ZM 1013.13 30.8C 1012.98 31.25 1012.53 33.2 1012.53 33.85C 1012.53 36.1 1014.63 37.3 1016.68 37.3C 1024.08 37.3 1031.33 24.5 1031.33 19.05C 1031.33 17.3 1030.53 15.4 1028.58 15.4C 1027.08 15.4 1026.13 16.45 1026.13 17.95C 1026.13 20.9 1029.53 19.55 1029.53 22.15C 1029.53 26.05 1023.18 36.1 1018.13 36.1C 1016.98 36.1 1016.43 35.6 1016.43 34.45C 1016.43 33.9 1016.53 33.1 1016.93 31.85L 1022.03 15.4C 1019.88 16.3 1017.78 16.5 1015.63 16.5L 1014.33 16.5L 1014.13 17.3L 1017.23 17.3L 1013.13 30.8ZM 1037.7 17.3L 1040.9 17.3L 1036.65 30.95C 1036.35 32 1036 33 1036 33.95C 1036 36.4 1037.85 37.3 1039.45 37.3C 1043.35 37.3 1046.3 33.3 1046.95 32.2L 1046.35 31.8C 1045.75 32.7 1043.45 36.1 1040.8 36.1C 1039.95 36.1 1039.6 35.4 1039.6 34.8C 1039.6 34.05 1040.05 32.75 1040.4 31.7L 1045.6 15.4C 1043.45 16.3 1041.35 16.5 1039.2 16.5L 1037.85 16.5L 1037.7 17.3ZM 1048.85 3.7C 1048.85 3.05 1048.5 2 1046.95 2C 1045.4 2 1044.05 4.05 1044.05 5.7C 1044.05 6.35 1044.4 7.4 1045.65 7.4C 1047.5 7.4 1048.85 5.35 1048.85 3.7ZM 1054.91 22.3C 1054.91 27.6 1061.11 28.45 1061.11 32.65C 1061.11 35.4 1058.96 36.8 1056.41 36.8C 1053.46 36.8 1052.71 35.65 1052.71 34.95C 1052.71 33.45 1055.16 34.15 1055.16 31.65C 1055.16 30.75 1054.41 29.55 1052.91 29.55C 1051.41 29.55 1050.36 31 1050.36 32.55C 1050.36 34.35 1051.81 37.6 1056.26 37.6C 1062.01 37.6 1064.71 34 1064.71 31C 1064.71 24.55 1057.91 24.7 1057.91 20.45C 1057.91 17.1 1060.16 16.2 1062.16 16.2C 1063.81 16.2 1064.31 16.65 1064.31 17.25C 1063.61 17.7 1062.66 18.35 1062.66 19.7C 1062.66 20.75 1063.31 21.8 1064.76 21.8C 1066.06 21.8 1067.16 21 1067.16 19.45C 1067.16 17.2 1065.46 15.4 1062.36 15.4C 1057.81 15.4 1054.91 19.7 1054.91 22.3ZM 1073.9 30.1C 1073.45 31.5 1073.1 32.75 1073.1 33.75C 1073.1 36.35 1074.8 37.3 1077.2 37.3C 1081 37.3 1084.15 33.7 1086.3 31L 1085.75 30.6C 1083.4 34.05 1079.85 36.5 1078.25 36.5C 1077.2 36.5 1076.7 35.8 1076.7 35.05C 1076.7 34.3 1076.9 33.35 1077.05 32.8L 1081.95 17.3L 1087.8 17.3L 1088.05 16.5L 1082.2 16.5L 1084.8 8.25C 1083.5 9.25 1081.95 9.65 1080.3 9.65L 1078.15 16.5L 1074.5 16.5L 1074.25 17.3L 1077.9 17.3L 1073.9 30.1ZM 1094.3 32.8C 1094.3 28.95 1097.25 16.2 1103.65 16.2C 1106.75 16.2 1108.25 18.85 1108.25 20.65C 1108.25 21.65 1107.25 24 1106 28.1C 1104.6 32.75 1102.15 36.8 1097.9 36.8C 1095.65 36.8 1094.3 35.45 1094.3 32.8ZM 1113.65 16.5L 1109.8 16.5L 1108.85 19.55L 1108.75 19.55C 1108.4 18.05 1107.1 15.4 1103.85 15.4C 1097.6 15.4 1090.4 22.1 1090.4 29.1C 1090.4 33.75 1093.1 37.6 1097.85 37.6C 1100.75 37.6 1103.55 35.15 1104.75 33.1L 1104.85 33.1C 1104.9 34.65 1105.05 37.6 1108.45 37.6C 1111.65 37.6 1113.85 33.5 1114.5 32.6L 1114 32.1C 1113.3 33.05 1111.1 36.4 1109.35 36.4C 1108.55 36.4 1108.15 35.8 1108.15 35C 1108.15 34.2 1108.45 33.2 1108.7 32.4L 1113.65 16.5Z"/>
</defs>
</svg>
