<svg width="1266" height="235" viewBox="0 0 1266 235" version="1.1" xmlns="http://www.w3.org/2000/svg" xmlns:xlink="http://www.w3.org/1999/xlink">
<title>landing-hero-chs</title>
<desc>Created using Figma</desc>
<g id="Canvas" transform="translate(1913 -3754)">
<g id="landing-hero-chs">
<g id="Vector">
<use xlink:href="#path0_fill" transform="translate(-746.104 3755.27)" fill="#FFFFFF"/>
</g>
<g id="Vector">
<use xlink:href="#path1_fill" transform="translate(-949.759 3755.27)" fill="#FFFFFF"/>
</g>
<g id="Vector">
<use xlink:href="#path2_fill" transform="translate(-1026.97 3755.27)" fill="#FFFFFF"/>
</g>
<g id="Vector">
<use xlink:href="#path3_fill" transform="translate(-1230.62 3755.27)" fill="#FFFFFF"/>
</g>
<g id="Vector">
<use xlink:href="#path4_fill" transform="translate(-1405.1 3754.42)" fill="#FFFFFF"/>
</g>
<g id="Vector">
<use xlink:href="#path5_fill" transform="translate(-1555.8 3755.27)" fill="#FFFFFF"/>
</g>
<g id="Vector">
<use xlink:href="#path6_fill" transform="translate(-1717.32 3755.27)" fill="#FFFFFF"/>
</g>
<g id="Vector">
<use xlink:href="#path7_fill" transform="translate(-1913 3754)" fill="#FFFFFF"/>
</g>
<g id="&#231;&#190;&#142;&#228;&#184;&#189;&#228;&#187;&#142;&#231;&#156;&#139;&#228;&#184;&#141;&#232;&#167;&#129;&#231;&#154;&#132;&#228;&#189;&#147;&#229;&#134;&#133;&#229;&#188;&#128;&#229;&#167;&#139;">
<use xlink:href="#path8_fill" transform="translate(-1907 3927)" fill="#FFFFFF"/>
</g>
</g>
</g>
<defs>
    <path id="path0_fill" d="M 21.5076 20.7099L 21.5076 66.3563L 64.523 66.3563C 66.2099 66.3563 67.8967 67.6243 67.8967 69.7376L 67.8967 83.6851C 67.8967 85.7983 66.6316 87.0663 64.523 87.0663L 21.5076 87.0663L 21.5076 130.177L 95.7301 130.177C 97.417 130.177 99.104 131.445 99.104 133.558L 99.104 147.506C 99.104 149.196 97.8387 150.887 95.7301 150.887L 3.37375 150.887C 1.68688 150.887 5.14794e-05 149.619 5.14794e-05 147.506L 5.14794e-05 2.95856C 5.14794e-05 1.26796 1.26513 5.0384e-08 2.95201 5.0384e-08L 95.7301 5.0384e-08C 97.417 5.0384e-08 99.104 1.26796 99.104 2.95856L 99.104 17.3287C 99.104 19.0193 97.8387 20.2873 95.7301 20.2873L 21.5076 20.2873L 21.5076 20.7099Z"/>
    <path id="path1_fill" d="M 146.722 3.80387L 77.5605 148.773C 77.1388 150.041 75.8736 151.309 74.1867 151.309L 72.4999 151.309C 70.813 151.309 69.5478 150.041 69.1261 148.773L 0.385922 3.80387C -0.879235 1.69061 1.22939 5.0384e-08 2.91626 5.0384e-08L 21.8936 5.0384e-08C 23.5805 5.0384e-08 24.4239 1.69061 25.2673 3.38122L 73.765 109.044L 122.263 3.38122C 123.106 1.69061 123.95 5.0384e-08 125.636 5.0384e-08L 144.614 5.0384e-08C 146.301 5.0384e-08 147.988 1.69061 146.722 3.80387Z"/>
    <path id="path2_fill" d="M 17.7122 5.0384e-08C 19.3991 5.0384e-08 20.6642 1.26796 20.6642 2.95856L 20.6642 147.083C 20.6642 148.773 19.3991 150.464 17.7122 150.464L 3.37372 150.464C 1.68685 150.464 2.57397e-05 149.196 2.57397e-05 147.083L 2.57397e-05 2.95856C 2.57397e-05 1.26796 1.26517 5.0384e-08 2.95204 5.0384e-08L 17.7122 5.0384e-08L 17.7122 5.0384e-08Z"/>
    <path id="path3_fill" d="M 146.722 3.80387L 77.5605 148.773C 77.1387 150.041 75.8736 151.309 74.1867 151.309L 72.4998 151.309C 70.813 151.309 69.5478 150.041 69.1261 148.773L 0.385896 3.80387C -0.879261 1.69061 1.22936 5.0384e-08 2.91624 5.0384e-08L 21.8936 5.0384e-08C 23.5805 5.0384e-08 24.4239 1.69061 25.2673 3.38122L 73.765 109.044L 122.263 3.38122C 123.106 1.69061 123.95 5.0384e-08 125.636 5.0384e-08L 144.614 5.0384e-08C 146.301 5.0384e-08 147.988 1.69061 146.722 3.80387Z"/>
    <path id="path4_fill" d="M 147.027 151.309L 130.158 151.309C 128.471 151.309 127.628 150.464 126.784 149.196L 114.976 124.682L 34.006 124.682L 22.6196 149.196C 21.7761 150.464 20.9327 151.309 19.2458 151.309L 2.37706 151.309C 0.690185 151.309 -0.574972 149.619 0.268466 147.928L 71.1172 1.69061C 71.539 0.422652 72.8041 6.298e-09 73.6475 6.298e-09L 76.1779 6.298e-09C 77.0213 6.298e-09 77.8648 0.422652 78.7082 1.69061L 149.135 147.928C 149.557 149.619 149.135 151.309 147.027 151.309ZM 105.698 105.24L 74.491 38.884L 43.2838 105.24L 105.698 105.24Z"/>
    <path id="path5_fill" d="M 94.0433 133.135L 94.0433 147.506C 94.0433 149.196 92.7782 150.464 91.0913 150.464L 2.53033 150.464C 0.843451 150.464 -1.28698e-05 149.196 -1.28698e-05 147.506L -1.28698e-05 2.95856C -1.28698e-05 1.26796 1.26516 5.0384e-08 2.95204 5.0384e-08L 18.1339 5.0384e-08C 19.8208 5.0384e-08 21.0859 1.26796 21.0859 2.95856L 21.0859 129.754L 90.6695 129.754C 92.7781 129.754 94.0433 131.022 94.0433 133.135Z"/>
    <path id="path6_fill" d="M 21.0859 20.7099L 21.0859 66.3563L 64.1013 66.3563C 65.7881 66.3563 67.475 67.6243 67.475 69.7376L 67.475 83.6851C 67.475 85.7983 66.2099 87.0663 64.1013 87.0663L 21.0859 87.0663L 21.0859 130.177L 95.3085 130.177C 96.9953 130.177 98.6822 131.445 98.6822 133.558L 98.6822 147.506C 98.6822 149.196 97.4171 150.887 95.3085 150.887L 3.37375 150.887C 1.68688 150.887 6.43492e-06 149.619 6.43492e-06 147.506L 6.43492e-06 2.95856C 6.43492e-06 1.26796 1.26515 5.0384e-08 2.95203 5.0384e-08L 95.7302 5.0384e-08C 97.417 5.0384e-08 99.1039 1.26796 99.1039 2.95856L 99.1039 17.3287C 99.1039 19.0193 97.8388 20.2873 95.7302 20.2873L 21.0859 20.2873L 21.0859 20.7099Z"/>
    <path id="path7_fill" d="M 131.576 129.331C 117.66 144.124 98.6822 153 76.3311 153C 34.5809 153 0 119.61 0 76.9227C 0 34.2348 34.5809 0 76.3311 0C 98.2605 0 118.081 8.87569 131.998 23.6685C 133.685 25.3591 133.685 27.0497 131.998 28.3177L 120.19 38.0387C 118.503 39.3066 117.238 39.3066 115.973 38.0387C 107.96 29.5856 94.0433 20.7099 77.1745 20.7099C 43.0153 20.2873 21.0859 48.605 21.0859 76.9227C 21.0859 105.24 43.0153 132.713 76.7528 132.713C 93.6216 132.713 107.117 124.26 115.129 115.807C 116.816 114.116 118.081 114.116 119.768 114.961L 131.576 124.682C 133.263 125.95 133.263 127.641 131.576 129.331Z"/>
    <path id="path8_fill" d="M 369.55 50.5C 376.75 53.55 385.7 58.4 390.1 61.9L 391.25 59.85C 386.75 56.4 377.9 51.65 370.65 48.7L 369.55 50.5ZM 370.4 38.4L 370.4 33.2L 386.85 33.2L 386.85 31.05L 370.4 31.05L 370.4 26.05L 389.3 26.05L 389.3 23.8L 377.9 23.8C 379.35 21.85 381.05 19.4 382.35 17.25L 380 16.25C 378.9 18.5 376.85 21.65 375.25 23.8L 360.95 23.8L 362.7 22.9C 361.85 21.05 359.9 18.3 358 16.25L 355.95 17.2C 357.75 19.2 359.55 21.9 360.45 23.8L 349.3 23.8L 349.3 26.05L 367.95 26.05L 367.95 31.05L 352 31.05L 352 33.2L 367.95 33.2L 367.95 38.4L 347.35 38.4L 347.35 40.6L 367.8 40.6C 367.6 42.3 367.3 43.8 366.95 45.25L 348.45 45.25L 348.45 47.45L 366.3 47.45C 363.95 53.6 358.9 57.45 346.75 59.35C 347.15 59.9 347.75 60.9 348 61.5C 361.1 59.25 366.45 54.8 368.9 47.45L 390.95 47.45L 390.95 45.25L 369.5 45.25C 369.85 43.8 370.1 42.25 370.3 40.6L 391.4 40.6L 391.4 38.4L 370.4 38.4ZM 442.35 18.45L 422.65 18.45L 422.65 20.4L 442.35 20.4L 442.35 18.45ZM 440.65 31.95L 440.65 23.1L 423.95 23.1L 423.95 32.05L 426.15 32.05L 426.15 24.9L 438.4 24.9L 438.4 31.95L 440.65 31.95ZM 429.2 27.05C 430.75 28.35 432.45 30.25 433.3 31.55L 434.75 30.3C 434 28.95 432.2 27.15 430.6 25.95L 429.2 27.05ZM 419.85 18.45L 400.2 18.45L 400.2 20.4L 419.85 20.4L 419.85 18.45ZM 418.5 31.95L 418.5 23.1L 402.2 23.1L 402.2 32.05L 404.4 32.05L 404.4 24.9L 416.25 24.9L 416.25 31.95L 418.5 31.95ZM 407.35 26.95C 408.8 28.35 410.35 30.25 411.1 31.55L 412.65 30.35C 411.9 29.05 410.3 27.2 408.85 25.95L 407.35 26.95ZM 404.25 40.65L 413.9 40.65L 413.9 45.2L 404.2 45.2C 404.25 44.15 404.25 43.15 404.25 42.25L 404.25 40.65ZM 413.9 35.4L 413.9 38.75L 404.25 38.75L 404.25 35.4L 413.9 35.4ZM 426.25 38.75L 416.15 38.75L 416.15 35.4L 426.25 35.4L 426.25 38.75ZM 438.5 40.65L 438.5 45.2L 428.45 45.2L 428.45 40.65L 438.5 40.65ZM 416.15 45.2L 416.15 40.65L 426.25 40.65L 426.25 45.2L 416.15 45.2ZM 429.9 58.8C 427.5 58.8 427.15 58.5 427.15 57.35L 427.15 53L 440.35 53L 440.35 51.1L 427.15 51.1L 427.15 47.05L 440.8 47.05L 440.8 38.75L 428.45 38.75L 428.45 35.4L 442.1 35.4L 442.1 33.45L 423.3 33.45C 422.75 32.2 421.85 30.7 420.95 29.6L 418.85 30.4C 419.5 31.35 420.15 32.4 420.7 33.45L 402 33.45L 402 42.2C 402 47.6 401.45 54.95 397.8 60.45C 398.3 60.7 399.3 61.4 399.7 61.8C 402.55 57.6 403.65 52 404.05 47.05L 408.95 47.05L 408.95 57.05C 408.95 58.75 407.8 59 407.1 59.15C 407.45 59.7 407.75 60.7 407.9 61.35C 408.75 60.9 410.25 60.6 422.75 58.7L 422.75 56.75L 411.2 58.4L 411.2 53L 422.7 53L 422.7 51.1L 411.2 51.1L 411.2 47.05L 424.85 47.05L 424.85 57.4C 424.85 60.15 425.9 60.75 429.8 60.75L 439 60.75C 441.9 60.75 442.65 59.8 442.9 56.05C 442.25 55.9 441.35 55.6 440.9 55.25C 440.7 58.35 440.4 58.8 438.75 58.8L 429.9 58.8ZM 495.2 34C 493.25 31.5 489.25 27.55 485.85 24.7C 486.8 22.3 487.5 19.65 487.95 16.7L 485.5 16.4C 484.35 24.25 481.45 30.1 476.3 33.75C 476.85 34.15 477.9 34.95 478.25 35.35C 481.05 33.15 483.25 30.35 484.95 26.85C 488.15 29.7 491.6 33.3 493.4 35.65L 495.2 34ZM 478.15 30.3C 476.9 28.8 474.3 26.4 472.1 24.65C 473.05 22.2 473.8 19.55 474.4 16.75L 472 16.35C 470.5 24.15 467.4 30.65 462.55 34.75C 463.1 35.15 464.05 36 464.45 36.4C 467.2 33.85 469.5 30.55 471.25 26.65C 473.35 28.4 475.65 30.65 476.85 32.15L 478.15 30.3ZM 460.2 16.35C 457.9 20.05 453.3 24.4 449.2 27.1C 449.65 27.5 450.35 28.4 450.65 28.85C 454.95 25.9 459.6 21.35 462.4 17.2L 460.2 16.35ZM 461.5 26.2C 458.35 31.65 453.35 37.1 448.55 40.7C 448.95 41.15 449.8 42.2 450.1 42.65C 452.3 40.9 454.6 38.7 456.75 36.3L 456.75 61.85L 459.05 61.85L 459.05 33.6C 460.8 31.5 462.35 29.25 463.7 27L 461.5 26.2ZM 480.75 46.85L 492.65 46.85L 492.65 44.7L 480.75 44.7L 480.75 35.5L 478.4 35.5L 478.4 57.9C 474.6 56.5 471.85 53.35 470.25 47.05C 470.65 44.75 470.95 42.2 471.1 39.45L 468.7 39.3C 468.25 48.8 466.4 55.65 461.05 59.95C 461.6 60.3 462.6 61.15 462.95 61.5C 466.05 58.75 468.1 55.3 469.35 50.9C 472.4 59.25 477.5 61.2 485.4 61.2L 494.15 61.2C 494.25 60.6 494.65 59.5 495.05 58.9C 493.65 58.95 486.4 58.95 485.55 58.95C 483.85 58.95 482.25 58.85 480.75 58.55L 480.75 46.85ZM 538.2 44.9L 514.3 44.9L 514.3 40.7L 538.2 40.7L 538.2 44.9ZM 514.3 57.55L 514.3 53.05L 538.2 53.05L 538.2 57.55L 514.3 57.55ZM 514.3 46.8L 538.2 46.8L 538.2 51.1L 514.3 51.1L 514.3 46.8ZM 545.6 34.3L 545.6 32.2L 518.3 32.2C 519.05 30.7 519.75 29.1 520.35 27.55L 542.65 27.55L 542.65 25.45L 521.15 25.45C 521.7 23.95 522.15 22.5 522.6 20.95C 530 20.5 537.05 19.75 541.9 18.65L 540.25 16.9C 532.55 18.65 516.95 19.45 504.85 19.65C 505.1 20.2 505.3 21 505.4 21.55C 509.95 21.5 515 21.35 519.95 21.1C 519.55 22.6 519.1 24 518.55 25.45L 505.65 25.45L 505.65 27.55L 517.8 27.55C 517.15 29.1 516.4 30.7 515.6 32.2L 501.9 32.2L 501.9 34.3L 514.45 34.3C 511.15 39.85 506.7 44.8 500.85 48.25C 501.3 48.7 502.05 49.6 502.35 50.05C 506.05 47.85 509.25 45.05 511.95 41.9L 511.95 61.75L 514.3 61.75L 514.3 59.6L 538.2 59.6L 538.2 61.75L 540.55 61.75L 540.55 38.6L 514.5 38.6C 515.5 37.25 516.35 35.75 517.2 34.3L 545.6 34.3ZM 596.6 22.4L 596.6 20L 553.95 20L 553.95 22.4L 577.45 22.4C 572.3 31.45 563.15 40.25 552.9 45.6C 553.35 46.05 554.1 47 554.5 47.55C 561.95 43.55 568.65 37.95 573.95 31.6L 573.95 61.6L 576.45 61.6L 576.45 28.5C 577.9 26.45 579.25 24.45 580.4 22.4L 596.6 22.4ZM 578.55 33.25C 584.75 37.1 592.3 42.8 595.95 46.55L 597.75 44.75C 594 40.95 586.4 35.45 580.25 31.7L 578.55 33.25ZM 613.65 37.4L 639.8 37.4L 639.8 43.9L 613.65 43.9L 613.65 37.4ZM 613.65 28.95L 639.8 28.95L 639.8 35.25L 613.65 35.25L 613.65 28.95ZM 613.65 20.45L 639.8 20.45L 639.8 26.8L 613.65 26.8L 613.65 20.45ZM 635.75 58.9C 633.35 58.9 632.85 58.7 632.85 57.3L 632.85 46.1L 642.2 46.1L 642.2 18.25L 611.35 18.25L 611.35 46.1L 618.45 46.1C 617.35 53.1 614.2 57.35 604.05 59.5C 604.55 60 605.3 61.05 605.5 61.6C 616.25 59.1 619.8 54.2 621 46.1L 630.45 46.1L 630.45 57.3C 630.45 60.5 631.6 61.25 635.65 61.25L 644.6 61.25C 648.4 61.25 649.15 59.55 649.5 52.7C 648.8 52.5 647.75 52.1 647.25 51.65C 647.05 58.05 646.65 58.9 644.45 58.9L 635.75 58.9ZM 672.25 38.5L 660.3 38.5L 660.3 26.55L 672.25 26.55L 672.25 38.5ZM 660.3 54.1L 660.3 40.7L 672.25 40.7L 672.25 54.1L 660.3 54.1ZM 666 16.2C 665.5 18.55 664.45 22 663.6 24.35L 658.05 24.35L 658.05 60.45L 660.3 60.45L 660.3 56.35L 674.55 56.35L 674.55 24.35L 665.85 24.35C 666.7 22.2 667.7 19.3 668.55 16.8L 666 16.2ZM 699.1 24.35L 683.55 24.35C 684.45 21.85 685.2 19.2 685.8 16.55L 683.45 16C 681.9 23.1 679.3 30.05 675.8 34.6C 676.4 34.95 677.45 35.55 677.85 35.9C 679.65 33.35 681.3 30.15 682.75 26.6L 696.75 26.6C 696 47.95 695.15 55.7 693.5 57.5C 693 58.15 692.4 58.25 691.4 58.25C 690.3 58.25 687.35 58.2 684.05 57.95C 684.5 58.6 684.75 59.55 684.85 60.3C 687.6 60.5 690.5 60.55 692.05 60.45C 693.6 60.35 694.6 60 695.55 58.9C 697.55 56.55 698.25 48.95 699.1 25.75L 699.1 24.35ZM 691.35 46.75C 689.75 43.75 686.15 38.9 683.2 35.3L 681.25 36.4C 684.25 40 687.75 45 689.35 48.05L 691.35 46.75ZM 748.3 26.65L 743.45 26.65L 743.45 22.3L 748.3 22.3L 748.3 26.65ZM 748.3 33.05L 743.45 33.05L 743.45 28.55L 748.3 28.55L 748.3 33.05ZM 730.55 28.55L 735.1 28.55L 735.1 33.05L 730.55 33.05L 730.55 28.55ZM 730.55 22.3L 735.1 22.3L 735.1 26.65L 730.55 26.65L 730.55 22.3ZM 741.55 28.55L 741.55 33.05L 737 33.05L 737 28.55L 741.55 28.55ZM 737 26.65L 737 22.3L 741.55 22.3L 741.55 26.65L 737 26.65ZM 750.4 20.35L 743.6 20.35L 743.6 16.4L 741.5 16.4L 741.5 20.35L 737 20.35L 737 16.4L 734.9 16.4L 734.9 20.35L 728.5 20.35L 728.5 35L 750.4 35L 750.4 20.35ZM 751.9 38.1L 727.3 38.1L 727.3 40.1L 751.9 40.1L 751.9 38.1ZM 732.15 44.85L 746.9 44.85L 746.9 50.05L 732.15 50.05L 732.15 44.85ZM 749.2 51.9L 749.2 42.95L 729.95 42.95L 729.95 51.9L 749.2 51.9ZM 723.75 37.9L 710.35 37.9L 710.35 47.25C 710.35 51.25 709.95 56.45 707.2 60.35C 707.75 60.6 708.6 61.35 708.95 61.85C 711.95 57.6 712.45 51.65 712.45 47.25L 712.45 39.85L 721.6 39.85L 721.6 48.9C 718.2 50.8 714.9 52.55 712.6 53.6L 713.75 55.5C 716.1 54.15 718.85 52.55 721.6 50.9L 721.6 58.6C 721.6 59.15 721.4 59.35 720.8 59.35C 720.3 59.4 718.4 59.4 716.15 59.35C 716.45 59.9 716.8 60.75 716.95 61.25C 719.9 61.25 721.55 61.25 722.55 60.9C 723.45 60.5 723.75 59.9 723.75 58.65L 723.75 37.9ZM 720.6 46.65C 719.35 45.35 716.9 43.55 714.7 42.1L 713.45 43.45C 715.45 44.8 717.95 46.9 719.15 48.2L 720.6 46.65ZM 712.1 20.3L 721.75 20.3L 721.75 24.2L 715.9 24.2L 715.9 31.9L 712.1 31.9L 712.1 20.3ZM 721.75 31.9L 717.7 31.9L 717.7 26.05L 721.75 26.05L 721.75 31.9ZM 723.9 18.3L 710 18.3L 710 31.9L 707.85 31.9L 707.85 38.7L 709.9 38.7L 709.9 33.85L 724 33.85L 724 38.7L 726.05 38.7L 726.05 31.9L 723.9 31.9L 723.9 18.3ZM 744.2 58.5C 745 56.9 745.95 54.8 746.8 53.05L 744.55 52.35C 744 54.1 742.95 56.7 742.15 58.5L 736.85 58.5C 736.35 56.85 735.4 54.4 734.55 52.55L 732.55 53.1C 733.3 54.8 734.1 56.9 734.6 58.5L 726.65 58.5L 726.65 60.5L 752.35 60.5L 752.35 58.5L 744.2 58.5ZM 800.65 27.5L 783.05 27.5C 782.6 24.8 782.3 21.85 782.15 18.7L 770.75 18.7L 770.75 20.9L 780.1 20.9C 780.25 23.25 780.45 25.45 780.8 27.5L 762.15 27.5L 762.15 61.65L 764.55 61.65L 764.55 29.85L 779.55 29.85C 777.85 38.75 773.45 44.45 765.95 48.2C 766.55 48.65 767.35 49.45 767.7 50C 775.05 46.3 779.5 40.15 781.55 31.5C 783.6 40.45 787.8 46.55 795.15 49.8C 795.5 49.15 796.3 48.25 796.85 47.75C 789.5 44.85 785.4 38.85 783.5 29.85L 798.25 29.85L 798.25 58C 798.25 58.8 798 59.05 797.15 59.1C 796.15 59.15 793.1 59.15 789.6 59.05C 789.95 59.8 790.35 60.9 790.45 61.6C 794.6 61.6 797.35 61.6 798.8 61.2C 800.2 60.75 800.65 59.85 800.65 58L 800.65 27.5ZM 827.8 20.65L 827.8 25.6L 814.9 25.6L 814.9 20.65L 827.8 20.65ZM 814.9 32.85L 814.9 27.55L 827.8 27.55L 827.8 32.85L 814.9 32.85ZM 830.1 34.85L 830.1 18.65L 812.55 18.65L 812.55 61.7L 814.9 61.7L 814.9 34.85L 830.1 34.85ZM 828.35 46.85L 828.35 40.45L 836.7 40.45L 836.7 46.85L 828.35 46.85ZM 846.45 49.05L 846.45 46.85L 838.95 46.85L 838.95 40.45L 845.25 40.45L 845.25 38.35L 820.15 38.35L 820.15 40.45L 826.15 40.45L 826.15 46.85L 819.15 46.85L 819.15 49.05L 826.1 49.05C 825.85 52.1 824.5 56.8 819.7 59.75C 820.25 60.1 821 60.8 821.4 61.25C 826.55 57.85 828.05 52.3 828.3 49.05L 836.7 49.05L 836.7 60.7L 838.95 60.7L 838.95 49.05L 846.45 49.05ZM 837.5 32.85L 837.5 27.55L 850.85 27.55L 850.85 32.85L 837.5 32.85ZM 850.85 20.65L 850.85 25.6L 837.5 25.6L 837.5 20.65L 850.85 20.65ZM 853.2 18.65L 835.2 18.65L 835.2 34.9L 850.85 34.9L 850.85 58.05C 850.85 58.8 850.6 59.1 849.75 59.1C 848.9 59.15 846.2 59.15 843.1 59.1C 843.5 59.8 843.8 60.95 843.9 61.6C 847.7 61.6 850.15 61.55 851.45 61.15C 852.75 60.75 853.2 59.85 853.2 58L 853.2 18.65ZM 875.35 29.8C 875.35 35.15 875 41.45 872 47.7C 869.9 46 867.75 44.35 865.65 42.95C 866.75 39.45 867.95 34.9 869.1 30.2L 875.35 29.8ZM 880.05 29.5L 880.1 27.4L 877.6 27.5L 877.6 23.5L 875.35 23.5L 875.35 27.65L 869.55 27.9C 870.45 24.05 871.2 20.15 871.65 16.75L 869.4 16.55C 869 19.95 868.2 24 867.3 28L 861.4 28.25L 861.7 30.6L 866.8 30.3C 865.65 35.4 864.3 40.3 863.05 43.75C 865.6 45.45 868.35 47.6 870.9 49.75C 868.8 53.35 865.7 56.9 861.1 60.1C 861.7 60.4 862.45 61.1 862.8 61.65C 867.3 58.4 870.5 54.9 872.65 51.25C 874.95 53.25 876.95 55.25 878.35 56.85L 879.9 54.95C 878.45 53.25 876.3 51.2 873.85 49.15C 877.15 42.45 877.6 35.5 877.6 29.65L 880.05 29.5ZM 901.75 44.05L 901.75 57.15L 885.05 57.15L 885.05 44.05L 901.75 44.05ZM 882.8 61.7L 885.05 61.7L 885.05 59.4L 901.75 59.4L 901.75 61.55L 904.1 61.55L 904.1 41.8L 882.8 41.8L 882.8 61.7ZM 896.75 24.6C 898.6 27.05 900.6 30.1 902.25 32.9L 883.95 34C 887.55 29.35 891.1 23.2 894.15 17.05L 891.7 16.3C 888.95 22.7 884.5 29.55 883.15 31.3C 881.8 33.2 880.8 34.5 879.9 34.6C 880.2 35.3 880.65 36.45 880.75 37.05C 881.9 36.55 883.85 36.4 903.4 35C 904.1 36.3 904.7 37.6 905.15 38.65L 907.2 37.65C 905.6 33.85 902.05 28.05 898.65 23.75L 896.75 24.6Z"/>
</defs>
</svg>
