<svg width="1266" height="235" viewBox="0 0 1266 235" version="1.1" xmlns="http://www.w3.org/2000/svg" xmlns:xlink="http://www.w3.org/1999/xlink">
<title>landing-hero-chs</title>
<desc>Created using Figma</desc>
<g id="Canvas" transform="translate(1913 -3754)">
<g id="landing-hero-chs">
<g id="Vector">
<use xlink:href="#path0_fill" transform="translate(-746.104 3755.27)" fill="#FFFFFF"/>
</g>
<g id="Vector">
<use xlink:href="#path1_fill" transform="translate(-949.759 3755.27)" fill="#FFFFFF"/>
</g>
<g id="Vector">
<use xlink:href="#path2_fill" transform="translate(-1026.97 3755.27)" fill="#FFFFFF"/>
</g>
<g id="Vector">
<use xlink:href="#path3_fill" transform="translate(-1230.62 3755.27)" fill="#FFFFFF"/>
</g>
<g id="Vector">
<use xlink:href="#path4_fill" transform="translate(-1405.1 3754.42)" fill="#FFFFFF"/>
</g>
<g id="Vector">
<use xlink:href="#path5_fill" transform="translate(-1555.8 3755.27)" fill="#FFFFFF"/>
</g>
<g id="Vector">
<use xlink:href="#path6_fill" transform="translate(-1717.32 3755.27)" fill="#FFFFFF"/>
</g>
<g id="Vector">
<use xlink:href="#path7_fill" transform="translate(-1913 3754)" fill="#FFFFFF"/>
</g>
<g id="&#231;&#190;&#142;&#228;&#184;&#189;&#228;&#187;&#142;&#231;&#156;&#139;&#228;&#184;&#141;&#232;&#167;&#129;&#231;&#154;&#132;&#228;&#189;&#147;&#229;&#134;&#133;&#229;&#188;&#128;&#229;&#167;&#139;">
<use xlink:href="#path8_fill" transform="translate(-1907 3927)" fill="#FFFFFF"/>
</g>
</g>
</g>
<defs>
<path id="path0_fill" d="M 21.5076 20.7099L 21.5076 66.3563L 64.523 66.3563C 66.2099 66.3563 67.8967 67.6243 67.8967 69.7376L 67.8967 83.6851C 67.8967 85.7983 66.6316 87.0663 64.523 87.0663L 21.5076 87.0663L 21.5076 130.177L 95.7301 130.177C 97.417 130.177 99.104 131.445 99.104 133.558L 99.104 147.506C 99.104 149.196 97.8387 150.887 95.7301 150.887L 3.37375 150.887C 1.68688 150.887 5.14794e-05 149.619 5.14794e-05 147.506L 5.14794e-05 2.95856C 5.14794e-05 1.26796 1.26513 5.0384e-08 2.95201 5.0384e-08L 95.7301 5.0384e-08C 97.417 5.0384e-08 99.104 1.26796 99.104 2.95856L 99.104 17.3287C 99.104 19.0193 97.8387 20.2873 95.7301 20.2873L 21.5076 20.2873L 21.5076 20.7099Z"/>
<path id="path1_fill" d="M 146.722 3.80387L 77.5605 148.773C 77.1388 150.041 75.8736 151.309 74.1867 151.309L 72.4999 151.309C 70.813 151.309 69.5478 150.041 69.1261 148.773L 0.385922 3.80387C -0.879235 1.69061 1.22939 5.0384e-08 2.91626 5.0384e-08L 21.8936 5.0384e-08C 23.5805 5.0384e-08 24.4239 1.69061 25.2673 3.38122L 73.765 109.044L 122.263 3.38122C 123.106 1.69061 123.95 5.0384e-08 125.636 5.0384e-08L 144.614 5.0384e-08C 146.301 5.0384e-08 147.988 1.69061 146.722 3.80387Z"/>
<path id="path2_fill" d="M 17.7122 5.0384e-08C 19.3991 5.0384e-08 20.6642 1.26796 20.6642 2.95856L 20.6642 147.083C 20.6642 148.773 19.3991 150.464 17.7122 150.464L 3.37372 150.464C 1.68685 150.464 2.57397e-05 149.196 2.57397e-05 147.083L 2.57397e-05 2.95856C 2.57397e-05 1.26796 1.26517 5.0384e-08 2.95204 5.0384e-08L 17.7122 5.0384e-08L 17.7122 5.0384e-08Z"/>
<path id="path3_fill" d="M 146.722 3.80387L 77.5605 148.773C 77.1387 150.041 75.8736 151.309 74.1867 151.309L 72.4998 151.309C 70.813 151.309 69.5478 150.041 69.1261 148.773L 0.385896 3.80387C -0.879261 1.69061 1.22936 5.0384e-08 2.91624 5.0384e-08L 21.8936 5.0384e-08C 23.5805 5.0384e-08 24.4239 1.69061 25.2673 3.38122L 73.765 109.044L 122.263 3.38122C 123.106 1.69061 123.95 5.0384e-08 125.636 5.0384e-08L 144.614 5.0384e-08C 146.301 5.0384e-08 147.988 1.69061 146.722 3.80387Z"/>
<path id="path4_fill" d="M 147.027 151.309L 130.158 151.309C 128.471 151.309 127.628 150.464 126.784 149.196L 114.976 124.682L 34.006 124.682L 22.6196 149.196C 21.7761 150.464 20.9327 151.309 19.2458 151.309L 2.37706 151.309C 0.690185 151.309 -0.574972 149.619 0.268466 147.928L 71.1172 1.69061C 71.539 0.422652 72.8041 6.298e-09 73.6475 6.298e-09L 76.1779 6.298e-09C 77.0213 6.298e-09 77.8648 0.422652 78.7082 1.69061L 149.135 147.928C 149.557 149.619 149.135 151.309 147.027 151.309ZM 105.698 105.24L 74.491 38.884L 43.2838 105.24L 105.698 105.24Z"/>
<path id="path5_fill" d="M 94.0433 133.135L 94.0433 147.506C 94.0433 149.196 92.7782 150.464 91.0913 150.464L 2.53033 150.464C 0.843451 150.464 -1.28698e-05 149.196 -1.28698e-05 147.506L -1.28698e-05 2.95856C -1.28698e-05 1.26796 1.26516 5.0384e-08 2.95204 5.0384e-08L 18.1339 5.0384e-08C 19.8208 5.0384e-08 21.0859 1.26796 21.0859 2.95856L 21.0859 129.754L 90.6695 129.754C 92.7781 129.754 94.0433 131.022 94.0433 133.135Z"/>
<path id="path6_fill" d="M 21.0859 20.7099L 21.0859 66.3563L 64.1013 66.3563C 65.7881 66.3563 67.475 67.6243 67.475 69.7376L 67.475 83.6851C 67.475 85.7983 66.2099 87.0663 64.1013 87.0663L 21.0859 87.0663L 21.0859 130.177L 95.3085 130.177C 96.9953 130.177 98.6822 131.445 98.6822 133.558L 98.6822 147.506C 98.6822 149.196 97.4171 150.887 95.3085 150.887L 3.37375 150.887C 1.68688 150.887 6.43492e-06 149.619 6.43492e-06 147.506L 6.43492e-06 2.95856C 6.43492e-06 1.26796 1.26515 5.0384e-08 2.95203 5.0384e-08L 95.7302 5.0384e-08C 97.417 5.0384e-08 99.1039 1.26796 99.1039 2.95856L 99.1039 17.3287C 99.1039 19.0193 97.8388 20.2873 95.7302 20.2873L 21.0859 20.2873L 21.0859 20.7099Z"/>
<path id="path7_fill" d="M 131.576 129.331C 117.66 144.124 98.6822 153 76.3311 153C 34.5809 153 0 119.61 0 76.9227C 0 34.2348 34.5809 0 76.3311 0C 98.2605 0 118.081 8.87569 131.998 23.6685C 133.685 25.3591 133.685 27.0497 131.998 28.3177L 120.19 38.0387C 118.503 39.3066 117.238 39.3066 115.973 38.0387C 107.96 29.5856 94.0433 20.7099 77.1745 20.7099C 43.0153 20.2873 21.0859 48.605 21.0859 76.9227C 21.0859 105.24 43.0153 132.713 76.7528 132.713C 93.6216 132.713 107.117 124.26 115.129 115.807C 116.816 114.116 118.081 114.116 119.768 114.961L 131.576 124.682C 133.263 125.95 133.263 127.641 131.576 129.331Z"/>
<path id="path8_fill" d="M 369.55 50.5C 376.75 53.55 385.7 58.4 390.1 61.9L 391.25 59.85C 386.75 56.4 377.9 51.65 370.65 48.7L 369.55 50.5ZM 370.4 38.4L 370.4 33.2L 386.85 33.2L 386.85 31.05L 370.4 31.05L 370.4 26.05L 389.3 26.05L 389.3 23.8L 377.9 23.8C 379.35 21.85 381.05 19.4 382.35 17.25L 380 16.25C 378.9 18.5 376.85 21.65 375.25 23.8L 360.95 23.8L 362.7 22.9C 361.85 21.05 359.9 18.3 358 16.25L 355.95 17.2C 357.75 19.2 359.55 21.9 360.45 23.8L 349.3 23.8L 349.3 26.05L 367.95 26.05L 367.95 31.05L 352 31.05L 352 33.2L 367.95 33.2L 367.95 38.4L 347.35 38.4L 347.35 40.6L 367.8 40.6C 367.6 42.3 367.3 43.8 366.95 45.25L 348.45 45.25L 348.45 47.45L 366.3 47.45C 363.95 53.6 358.9 57.45 346.75 59.35C 347.15 59.9 347.75 60.9 348 61.5C 361.1 59.25 366.45 54.8 368.9 47.45L 390.95 47.45L 390.95 45.25L 369.5 45.25C 369.85 43.8 370.1 42.25 370.3 40.6L 391.4 40.6L 391.4 38.4L 370.4 38.4ZM 417.05 28.1L 400.75 28.1L 400.75 61.65L 403.05 61.65L 403.05 30.35L 414.7 30.35L 414.7 58.25C 414.7 58.85 414.45 59.05 413.85 59.05C 413.3 59.1 411.3 59.1 409 59.05C 409.35 59.75 409.75 60.7 409.85 61.3C 412.9 61.35 414.65 61.3 415.7 60.9C 416.7 60.45 417.05 59.75 417.05 58.25L 417.05 28.1ZM 412.35 46.85C 411.35 44.25 409.25 40.1 407.45 37L 405.55 37.7C 407.3 40.85 409.35 45.05 410.3 47.75L 412.35 46.85ZM 398.65 22.05L 418.75 22.05L 418.75 19.7L 398.65 19.7L 398.65 22.05ZM 440.6 28.1L 423.7 28.1L 423.7 61.65L 426 61.65L 426 30.35L 438.2 30.35L 438.2 58.45C 438.2 59.05 437.95 59.25 437.3 59.25C 436.75 59.25 434.65 59.3 432.25 59.25C 432.6 59.9 432.95 60.85 433.05 61.5C 436.25 61.5 438.1 61.45 439.2 61.05C 440.2 60.65 440.6 59.95 440.6 58.4L 440.6 28.1ZM 435.9 47.2C 434.85 44.65 432.6 40.65 430.7 37.6L 428.85 38.35C 430.65 41.4 432.9 45.5 433.95 48.1L 435.9 47.2ZM 421.4 19.7L 421.4 22.05L 442.55 22.05L 442.55 19.7L 421.4 19.7ZM 472.35 48.25C 470.5 44.15 466.2 37.85 462.45 33.1C 463.05 28.4 463.45 23.35 463.75 17.9L 461.2 17.75C 460.25 36.35 458.25 51.05 449.9 60.1C 450.5 60.45 451.75 61.3 452.15 61.7C 457.55 55.3 460.4 46.8 462 36.25C 465.3 40.8 468.8 46.2 470.5 49.9L 472.35 48.25ZM 480.25 17.65C 479 37.05 476.2 51.3 465.8 59.85C 466.45 60.25 467.6 61.05 468.05 61.45C 474.3 55.9 477.8 48.55 479.95 39.25C 482.05 47 486 56 492.95 61.2C 493.35 60.55 494.2 59.6 494.65 59.15C 486.7 53.75 482.65 42.85 480.95 34.35C 481.8 29.35 482.35 23.8 482.8 17.8L 480.25 17.65ZM 538.2 44.9L 514.3 44.9L 514.3 40.7L 538.2 40.7L 538.2 44.9ZM 514.3 57.55L 514.3 53.05L 538.2 53.05L 538.2 57.55L 514.3 57.55ZM 514.3 46.8L 538.2 46.8L 538.2 51.1L 514.3 51.1L 514.3 46.8ZM 545.6 34.3L 545.6 32.2L 518.3 32.2C 519.05 30.7 519.75 29.1 520.35 27.55L 542.65 27.55L 542.65 25.45L 521.15 25.45C 521.7 23.95 522.15 22.5 522.6 20.95C 530 20.5 537.05 19.75 541.9 18.65L 540.25 16.9C 532.55 18.65 516.95 19.45 504.85 19.65C 505.1 20.2 505.3 21 505.4 21.55C 509.95 21.5 515 21.35 519.95 21.1C 519.55 22.6 519.1 24 518.55 25.45L 505.65 25.45L 505.65 27.55L 517.8 27.55C 517.15 29.1 516.4 30.7 515.6 32.2L 501.9 32.2L 501.9 34.3L 514.45 34.3C 511.15 39.85 506.7 44.8 500.85 48.25C 501.3 48.7 502.05 49.6 502.35 50.05C 506.05 47.85 509.25 45.05 511.95 41.9L 511.95 61.75L 514.3 61.75L 514.3 59.6L 538.2 59.6L 538.2 61.75L 540.55 61.75L 540.55 38.6L 514.5 38.6C 515.5 37.25 516.35 35.75 517.2 34.3L 545.6 34.3ZM 596.6 22.4L 596.6 20L 553.95 20L 553.95 22.4L 577.45 22.4C 572.3 31.45 563.15 40.25 552.9 45.6C 553.35 46.05 554.1 47 554.5 47.55C 561.95 43.55 568.65 37.95 573.95 31.6L 573.95 61.6L 576.45 61.6L 576.45 28.5C 577.9 26.45 579.25 24.45 580.4 22.4L 596.6 22.4ZM 578.55 33.25C 584.75 37.1 592.3 42.8 595.95 46.55L 597.75 44.75C 594 40.95 586.4 35.45 580.25 31.7L 578.55 33.25ZM 611.4 19.45L 611.4 47.7L 613.8 47.7L 613.8 21.85L 639.45 21.85L 639.45 47.7L 641.95 47.7L 641.95 19.45L 611.4 19.45ZM 625.1 27C 624.65 45.75 623.7 55.4 604.5 59.55C 605 60.1 605.65 61.05 605.9 61.65C 625.65 57.1 627.05 46.65 627.55 27L 625.1 27ZM 628.2 43.35L 628.2 56.65C 628.2 59.85 629.4 60.55 633.65 60.55L 643.25 60.55C 647.4 60.55 648.2 58.85 648.5 51.4C 647.85 51.25 646.9 50.85 646.25 50.35C 646.05 57.3 645.65 58.3 643.15 58.3L 633.65 58.3C 631.05 58.3 630.55 58 630.55 56.6L 630.55 43.35L 628.2 43.35ZM 672.25 38.5L 660.3 38.5L 660.3 26.55L 672.25 26.55L 672.25 38.5ZM 660.3 54.1L 660.3 40.7L 672.25 40.7L 672.25 54.1L 660.3 54.1ZM 666 16.2C 665.5 18.55 664.45 22 663.6 24.35L 658.05 24.35L 658.05 60.45L 660.3 60.45L 660.3 56.35L 674.55 56.35L 674.55 24.35L 665.85 24.35C 666.7 22.2 667.7 19.3 668.55 16.8L 666 16.2ZM 699.1 24.35L 683.55 24.35C 684.45 21.85 685.2 19.2 685.8 16.55L 683.45 16C 681.9 23.1 679.3 30.05 675.8 34.6C 676.4 34.95 677.45 35.55 677.85 35.9C 679.65 33.35 681.3 30.15 682.75 26.6L 696.75 26.6C 696 47.95 695.15 55.7 693.5 57.5C 693 58.15 692.4 58.25 691.4 58.25C 690.3 58.25 687.35 58.2 684.05 57.95C 684.5 58.6 684.75 59.55 684.85 60.3C 687.6 60.5 690.5 60.55 692.05 60.45C 693.6 60.35 694.6 60 695.55 58.9C 697.55 56.55 698.25 48.95 699.1 25.75L 699.1 24.35ZM 691.35 46.75C 689.75 43.75 686.15 38.9 683.2 35.3L 681.25 36.4C 684.25 40 687.75 45 689.35 48.05L 691.35 46.75ZM 718.2 16.55C 715.6 24.35 711.45 32.1 706.9 37.15C 707.35 37.7 708.15 38.8 708.4 39.3C 710.1 37.3 711.85 34.95 713.4 32.35L 713.4 61.6L 715.7 61.6L 715.7 28.3C 717.5 24.8 719.15 21 720.45 17.15L 718.2 16.55ZM 752.15 29.45L 752.15 27.15L 736.55 27.15L 736.55 16.45L 734.2 16.45L 734.2 27.15L 719.25 27.15L 719.25 29.45L 732.3 29.45C 729.05 38.25 723.45 47.1 717.75 51.45C 718.35 51.85 719.15 52.65 719.5 53.2C 725.3 48.4 730.85 39.35 734.2 30L 734.2 49.6L 725 49.6L 725 51.85L 734.2 51.85L 734.2 61.45L 736.55 61.45L 736.55 51.85L 745.35 51.85L 745.35 49.6L 736.55 49.6L 736.55 29.95C 739.75 39.25 745.2 48.35 751 53.1C 751.5 52.5 752.3 51.6 752.85 51.15C 747.15 46.95 741.6 38.25 738.55 29.45L 752.15 29.45ZM 801 25.05L 782.5 25.05L 782.5 16.4L 780.05 16.4L 780.05 25.05L 761.55 25.05L 761.55 61.75L 763.95 61.75L 763.95 27.4L 780 27.4C 779.75 34.25 777.9 43 766.05 49.5C 766.6 49.9 767.4 50.75 767.7 51.25C 775.2 46.95 778.9 41.8 780.75 36.75C 785.9 41.35 791.75 47.2 794.6 50.9L 796.6 49.35C 793.35 45.45 786.8 39.15 781.4 34.5C 782.1 32.05 782.35 29.65 782.45 27.4L 798.65 27.4L 798.65 57.85C 798.65 58.75 798.4 59.05 797.4 59.1C 796.4 59.15 792.95 59.2 789.05 59.05C 789.4 59.8 789.8 60.85 789.95 61.6C 794.45 61.6 797.5 61.6 799.05 61.15C 800.5 60.7 801 59.8 801 57.85L 801 25.05ZM 825.4 37.65C 825.45 36.8 825.45 35.95 825.45 35.1L 825.45 22.15L 840.85 22.15L 840.85 37.65L 825.4 37.65ZM 854.95 37.65L 843.3 37.65L 843.3 22.15L 853.3 22.15L 853.3 19.85L 812.6 19.85L 812.6 22.15L 823 22.15L 823 35.05C 823 35.95 823 36.75 822.95 37.65L 810.65 37.65L 810.65 39.95L 822.85 39.95C 822.25 47.3 819.85 54.45 810.9 60.1C 811.5 60.5 812.3 61.3 812.7 61.85C 822.25 55.85 824.7 48 825.3 39.95L 840.85 39.95L 840.85 61.7L 843.3 61.7L 843.3 39.95L 854.95 39.95L 854.95 37.65ZM 875.35 29.8C 875.35 35.15 875 41.45 872 47.7C 869.9 46 867.75 44.35 865.65 42.95C 866.75 39.45 867.95 34.9 869.1 30.2L 875.35 29.8ZM 880.05 29.5L 880.1 27.4L 877.6 27.5L 877.6 23.5L 875.35 23.5L 875.35 27.65L 869.55 27.9C 870.45 24.05 871.2 20.15 871.65 16.75L 869.4 16.55C 869 19.95 868.2 24 867.3 28L 861.4 28.25L 861.7 30.6L 866.8 30.3C 865.65 35.4 864.3 40.3 863.05 43.75C 865.6 45.45 868.35 47.6 870.9 49.75C 868.8 53.35 865.7 56.9 861.1 60.1C 861.7 60.4 862.45 61.1 862.8 61.65C 867.3 58.4 870.5 54.9 872.65 51.25C 874.95 53.25 876.95 55.25 878.35 56.85L 879.9 54.95C 878.45 53.25 876.3 51.2 873.85 49.15C 877.15 42.45 877.6 35.5 877.6 29.65L 880.05 29.5ZM 901.75 44.05L 901.75 57.15L 885.05 57.15L 885.05 44.05L 901.75 44.05ZM 882.8 61.7L 885.05 61.7L 885.05 59.4L 901.75 59.4L 901.75 61.55L 904.1 61.55L 904.1 41.8L 882.8 41.8L 882.8 61.7ZM 896.75 24.6C 898.6 27.05 900.6 30.1 902.25 32.9L 883.95 34C 887.55 29.35 891.1 23.2 894.15 17.05L 891.7 16.3C 888.95 22.7 884.5 29.55 883.15 31.3C 881.8 33.2 880.8 34.5 879.9 34.6C 880.2 35.3 880.65 36.45 880.75 37.05C 881.9 36.55 883.85 36.4 903.4 35C 904.1 36.3 904.7 37.6 905.15 38.65L 907.2 37.65C 905.6 33.85 902.05 28.05 898.65 23.75L 896.75 24.6Z"/>
</defs>
</svg>
