<svg width="1266" height="248" viewBox="0 0 1266 248" version="1.1" xmlns="http://www.w3.org/2000/svg" xmlns:xlink="http://www.w3.org/1999/xlink">
<title>landing-hero-th</title>
<desc>Created using Figma</desc>
<g id="Canvas" transform="translate(1913 -3257)">
<g id="landing-hero-th">
<g id="Vector">
<use xlink:href="#path0_fill" transform="translate(-746.104 3258.27)" fill="#FFFFFF"/>
</g>
<g id="Vector">
<use xlink:href="#path1_fill" transform="translate(-949.759 3258.27)" fill="#FFFFFF"/>
</g>
<g id="Vector">
<use xlink:href="#path2_fill" transform="translate(-1026.97 3258.27)" fill="#FFFFFF"/>
</g>
<g id="Vector">
<use xlink:href="#path3_fill" transform="translate(-1230.62 3258.27)" fill="#FFFFFF"/>
</g>
<g id="Vector">
<use xlink:href="#path4_fill" transform="translate(-1405.1 3257.42)" fill="#FFFFFF"/>
</g>
<g id="Vector">
<use xlink:href="#path5_fill" transform="translate(-1555.8 3258.27)" fill="#FFFFFF"/>
</g>
<g id="Vector">
<use xlink:href="#path6_fill" transform="translate(-1717.32 3258.27)" fill="#FFFFFF"/>
</g>
<g id="Vector">
<use xlink:href="#path7_fill" transform="translate(-1913 3257)" fill="#FFFFFF"/>
</g>
<g id="&#224;&#184;&#161;&#224;&#184;&#178;&#224;&#184;&#129;&#224;&#184;&#129;&#224;&#184;&#167;&#224;&#185;&#136;&#224;&#184;&#178;&#224;&#184;&#170;&#224;&#184;&#180;&#224;&#185;&#136;&#224;&#184;&#135;&#224;&#184;&#151;&#224;&#184;&#181;&#224;&#185;&#136;&#224;&#184;&#132;&#224;&#184;&#184;&#224;&#184;&#147;&#224;&#185;&#128;&#224;&#184;&#171;&#224;&#185;&#135;&#224;&#184;&#153;">
<use xlink:href="#path8_fill" transform="translate(-1907 3436)" fill="#FFFFFF"/>
</g>
</g>
</g>
<defs>
<path id="path0_fill" d="M 21.5076 20.7099L 21.5076 66.3563L 64.523 66.3563C 66.2099 66.3563 67.8967 67.6243 67.8967 69.7376L 67.8967 83.6851C 67.8967 85.7983 66.6316 87.0663 64.523 87.0663L 21.5076 87.0663L 21.5076 130.177L 95.7301 130.177C 97.417 130.177 99.104 131.445 99.104 133.558L 99.104 147.506C 99.104 149.196 97.8387 150.887 95.7301 150.887L 3.37375 150.887C 1.68688 150.887 5.14794e-05 149.619 5.14794e-05 147.506L 5.14794e-05 2.95856C 5.14794e-05 1.26796 1.26513 5.0384e-08 2.95201 5.0384e-08L 95.7301 5.0384e-08C 97.417 5.0384e-08 99.104 1.26796 99.104 2.95856L 99.104 17.3287C 99.104 19.0193 97.8387 20.2873 95.7301 20.2873L 21.5076 20.2873L 21.5076 20.7099Z"/>
<path id="path1_fill" d="M 146.722 3.80387L 77.5605 148.773C 77.1388 150.041 75.8736 151.309 74.1867 151.309L 72.4999 151.309C 70.813 151.309 69.5478 150.041 69.1261 148.773L 0.385922 3.80387C -0.879235 1.69061 1.22939 5.0384e-08 2.91626 5.0384e-08L 21.8936 5.0384e-08C 23.5805 5.0384e-08 24.4239 1.69061 25.2673 3.38122L 73.765 109.044L 122.263 3.38122C 123.106 1.69061 123.95 5.0384e-08 125.636 5.0384e-08L 144.614 5.0384e-08C 146.301 5.0384e-08 147.988 1.69061 146.722 3.80387Z"/>
<path id="path2_fill" d="M 17.7122 5.0384e-08C 19.3991 5.0384e-08 20.6642 1.26796 20.6642 2.95856L 20.6642 147.083C 20.6642 148.773 19.3991 150.464 17.7122 150.464L 3.37372 150.464C 1.68685 150.464 2.57397e-05 149.196 2.57397e-05 147.083L 2.57397e-05 2.95856C 2.57397e-05 1.26796 1.26517 5.0384e-08 2.95204 5.0384e-08L 17.7122 5.0384e-08L 17.7122 5.0384e-08Z"/>
<path id="path3_fill" d="M 146.722 3.80387L 77.5605 148.773C 77.1387 150.041 75.8736 151.309 74.1867 151.309L 72.4998 151.309C 70.813 151.309 69.5478 150.041 69.1261 148.773L 0.385896 3.80387C -0.879261 1.69061 1.22936 5.0384e-08 2.91624 5.0384e-08L 21.8936 5.0384e-08C 23.5805 5.0384e-08 24.4239 1.69061 25.2673 3.38122L 73.765 109.044L 122.263 3.38122C 123.106 1.69061 123.95 5.0384e-08 125.636 5.0384e-08L 144.614 5.0384e-08C 146.301 5.0384e-08 147.988 1.69061 146.722 3.80387Z"/>
<path id="path4_fill" d="M 147.027 151.309L 130.158 151.309C 128.471 151.309 127.628 150.464 126.784 149.196L 114.976 124.682L 34.006 124.682L 22.6196 149.196C 21.7761 150.464 20.9327 151.309 19.2458 151.309L 2.37706 151.309C 0.690185 151.309 -0.574972 149.619 0.268466 147.928L 71.1172 1.69061C 71.539 0.422652 72.8041 6.298e-09 73.6475 6.298e-09L 76.1779 6.298e-09C 77.0213 6.298e-09 77.8648 0.422652 78.7082 1.69061L 149.135 147.928C 149.557 149.619 149.135 151.309 147.027 151.309ZM 105.698 105.24L 74.491 38.884L 43.2838 105.24L 105.698 105.24Z"/>
<path id="path5_fill" d="M 94.0433 133.135L 94.0433 147.506C 94.0433 149.196 92.7782 150.464 91.0913 150.464L 2.53033 150.464C 0.843451 150.464 -1.28698e-05 149.196 -1.28698e-05 147.506L -1.28698e-05 2.95856C -1.28698e-05 1.26796 1.26516 5.0384e-08 2.95204 5.0384e-08L 18.1339 5.0384e-08C 19.8208 5.0384e-08 21.0859 1.26796 21.0859 2.95856L 21.0859 129.754L 90.6695 129.754C 92.7781 129.754 94.0433 131.022 94.0433 133.135Z"/>
<path id="path6_fill" d="M 21.0859 20.7099L 21.0859 66.3563L 64.1013 66.3563C 65.7881 66.3563 67.475 67.6243 67.475 69.7376L 67.475 83.6851C 67.475 85.7983 66.2099 87.0663 64.1013 87.0663L 21.0859 87.0663L 21.0859 130.177L 95.3085 130.177C 96.9953 130.177 98.6822 131.445 98.6822 133.558L 98.6822 147.506C 98.6822 149.196 97.4171 150.887 95.3085 150.887L 3.37375 150.887C 1.68688 150.887 6.43492e-06 149.619 6.43492e-06 147.506L 6.43492e-06 2.95856C 6.43492e-06 1.26796 1.26515 5.0384e-08 2.95203 5.0384e-08L 95.7302 5.0384e-08C 97.417 5.0384e-08 99.1039 1.26796 99.1039 2.95856L 99.1039 17.3287C 99.1039 19.0193 97.8388 20.2873 95.7302 20.2873L 21.0859 20.2873L 21.0859 20.7099Z"/>
<path id="path7_fill" d="M 131.576 129.331C 117.66 144.124 98.6822 153 76.3311 153C 34.5809 153 0 119.61 0 76.9227C 0 34.2348 34.5809 0 76.3311 0C 98.2605 0 118.081 8.87569 131.998 23.6685C 133.685 25.3591 133.685 27.0497 131.998 28.3177L 120.19 38.0387C 118.503 39.3066 117.238 39.3066 115.973 38.0387C 107.96 29.5856 94.0433 20.7099 77.1745 20.7099C 43.0153 20.2873 21.0859 48.605 21.0859 76.9227C 21.0859 105.24 43.0153 132.713 76.7528 132.713C 93.6216 132.713 107.117 124.26 115.129 115.807C 116.816 114.116 118.081 114.116 119.768 114.961L 131.576 124.682C 133.263 125.95 133.263 127.641 131.576 129.331Z"/>
<path id="path8_fill" d="M 410.529 32.9043C 410.529 33.5879 410.741 34.1413 411.164 34.5645C 411.587 34.9714 412.165 35.1748 412.897 35.1748C 413.565 35.1748 414.118 34.9714 414.558 34.5645C 414.997 34.1413 415.217 33.5879 415.217 32.9043C 415.217 32.1882 414.997 31.6266 414.558 31.2197C 414.118 30.8128 413.565 30.6094 412.897 30.6094C 412.165 30.6094 411.587 30.8128 411.164 31.2197C 410.741 31.6266 410.529 32.1882 410.529 32.9043ZM 430.769 28.5098L 430.769 56L 426.667 56C 426.179 55.1862 425.593 54.4049 424.909 53.6562C 424.226 52.9076 423.493 52.2321 422.712 51.6299C 421.947 51.0114 421.141 50.4906 420.295 50.0674C 419.465 49.6442 418.643 49.3512 417.829 49.1885L 417.829 50.8486C 417.829 52.7041 417.406 54.1038 416.56 55.0479C 415.729 55.9756 414.362 56.4395 412.458 56.4395C 410.7 56.4395 409.382 56.0326 408.503 55.2188C 407.624 54.4049 407.185 53.2656 407.185 51.8008C 407.185 51.1172 407.307 50.4743 407.551 49.8721C 407.811 49.2699 408.21 48.7327 408.747 48.2607C 409.284 47.7887 409.96 47.39 410.773 47.0645C 411.604 46.7389 412.588 46.5111 413.728 46.3809L 413.728 37.4453C 413.646 37.4779 413.475 37.5023 413.215 37.5186C 412.971 37.5348 412.743 37.543 412.531 37.543C 411.083 37.543 409.943 37.1442 409.113 36.3467C 408.299 35.5329 407.893 34.3854 407.893 32.9043C 407.893 31.4395 408.324 30.3001 409.187 29.4863C 410.049 28.6562 411.27 28.2412 412.849 28.2412C 414.46 28.2412 415.689 28.6562 416.535 29.4863C 417.398 30.3001 417.829 31.4395 417.829 32.9043L 417.829 46.5273C 418.659 46.6413 419.481 46.8285 420.295 47.0889C 421.125 47.3493 421.923 47.6748 422.688 48.0654C 423.469 48.4561 424.193 48.9118 424.86 49.4326C 425.544 49.9535 426.146 50.5394 426.667 51.1904L 426.667 28.5098L 430.769 28.5098ZM 410.041 51.8008C 410.041 52.5007 410.204 53.0296 410.529 53.3877C 410.871 53.7295 411.302 53.9004 411.823 53.9004C 412.442 53.9004 412.914 53.7132 413.239 53.3389C 413.565 52.9482 413.728 52.3867 413.728 51.6543L 413.728 48.8955C 412.523 49.0745 411.604 49.4163 410.969 49.9209C 410.35 50.4092 410.041 51.0358 410.041 51.8008ZM 457.049 56L 452.947 56L 452.947 38.2021C 452.947 37.1768 452.825 36.249 452.581 35.4189C 452.337 34.5726 451.963 33.8483 451.458 33.2461C 450.97 32.6439 450.343 32.18 449.578 31.8545C 448.829 31.529 447.942 31.3662 446.917 31.3662C 445.517 31.3662 444.109 31.6429 442.693 32.1963C 441.277 32.7497 439.935 33.4821 438.665 34.3936L 436.785 31.3906C 438.169 30.3815 439.69 29.5677 441.351 28.9492C 443.011 28.3145 444.858 27.9971 446.893 27.9971C 448.52 27.9971 449.961 28.2331 451.214 28.7051C 452.483 29.1771 453.549 29.8525 454.412 30.7314C 455.275 31.6104 455.926 32.6764 456.365 33.9297C 456.821 35.1829 457.049 36.5908 457.049 38.1533L 457.049 56ZM 466.605 56L 466.605 46.4053C 466.605 45.5426 466.703 44.7695 466.898 44.0859C 467.094 43.4023 467.403 42.8083 467.826 42.3037C 468.266 41.7829 468.827 41.3516 469.511 41.0098C 470.194 40.6517 471.024 40.3669 472.001 40.1553C 471.594 39.8135 471.09 39.5205 470.487 39.2764C 469.901 39.0322 469.299 38.8288 468.681 38.666C 468.078 38.5033 467.509 38.3893 466.972 38.3242C 466.451 38.2428 466.06 38.2021 465.8 38.2021C 465.865 36.7048 466.133 35.3294 466.605 34.0762C 467.094 32.8229 467.81 31.7487 468.754 30.8535C 469.714 29.9421 470.919 29.2422 472.367 28.7539C 473.816 28.2493 475.541 27.9971 477.543 27.9971C 479.822 27.9971 481.718 28.2738 483.231 28.8271C 484.761 29.3643 485.982 30.1211 486.894 31.0977C 487.805 32.0742 488.448 33.238 488.822 34.5889C 489.213 35.9398 489.408 37.4128 489.408 39.0078L 489.408 56L 485.307 56L 485.307 39.3008C 485.307 38.0638 485.168 36.957 484.892 35.9805C 484.615 34.9876 484.167 34.1494 483.549 33.4658C 482.947 32.766 482.149 32.237 481.156 31.8789C 480.18 31.5046 478.975 31.3174 477.543 31.3174C 476.225 31.3174 475.11 31.4639 474.198 31.7568C 473.287 32.0335 472.538 32.4079 471.952 32.8799C 471.366 33.3356 470.919 33.8564 470.609 34.4424C 470.3 35.0283 470.097 35.6143 469.999 36.2002C 470.65 36.2979 471.285 36.4606 471.903 36.6885C 472.522 36.9163 473.091 37.1768 473.612 37.4697C 474.149 37.7627 474.621 38.0801 475.028 38.4219C 475.435 38.7474 475.761 39.0566 476.005 39.3496L 476.005 40.7412C 475.077 40.9365 474.271 41.1807 473.588 41.4736C 472.921 41.7666 472.375 42.141 471.952 42.5967C 471.529 43.0361 471.212 43.5732 471 44.208C 470.805 44.8428 470.707 45.5915 470.707 46.4541L 470.707 56L 466.605 56ZM 498.965 56L 498.965 46.4053C 498.965 45.5426 499.062 44.7695 499.258 44.0859C 499.453 43.4023 499.762 42.8083 500.186 42.3037C 500.625 41.7829 501.187 41.3516 501.87 41.0098C 502.554 40.6517 503.384 40.3669 504.36 40.1553C 503.953 39.8135 503.449 39.5205 502.847 39.2764C 502.261 39.0322 501.659 38.8288 501.04 38.666C 500.438 38.5033 499.868 38.3893 499.331 38.3242C 498.81 38.2428 498.42 38.2021 498.159 38.2021C 498.224 36.7048 498.493 35.3294 498.965 34.0762C 499.453 32.8229 500.169 31.7487 501.113 30.8535C 502.074 29.9421 503.278 29.2422 504.727 28.7539C 506.175 28.2493 507.9 27.9971 509.902 27.9971C 512.181 27.9971 514.077 28.2738 515.591 28.8271C 517.121 29.3643 518.341 30.1211 519.253 31.0977C 520.164 32.0742 520.807 33.238 521.182 34.5889C 521.572 35.9398 521.768 37.4128 521.768 39.0078L 521.768 56L 517.666 56L 517.666 39.3008C 517.666 38.0638 517.528 36.957 517.251 35.9805C 516.974 34.9876 516.527 34.1494 515.908 33.4658C 515.306 32.766 514.508 32.237 513.516 31.8789C 512.539 31.5046 511.335 31.3174 509.902 31.3174C 508.584 31.3174 507.469 31.4639 506.558 31.7568C 505.646 32.0335 504.897 32.4079 504.312 32.8799C 503.726 33.3356 503.278 33.8564 502.969 34.4424C 502.66 35.0283 502.456 35.6143 502.358 36.2002C 503.009 36.2979 503.644 36.4606 504.263 36.6885C 504.881 36.9163 505.451 37.1768 505.972 37.4697C 506.509 37.7627 506.981 38.0801 507.388 38.4219C 507.795 38.7474 508.12 39.0566 508.364 39.3496L 508.364 40.7412C 507.437 40.9365 506.631 41.1807 505.947 41.4736C 505.28 41.7666 504.735 42.141 504.312 42.5967C 503.888 43.0361 503.571 43.5732 503.359 44.208C 503.164 44.8428 503.066 45.5915 503.066 46.4541L 503.066 56L 498.965 56ZM 540.211 51.8008C 540.211 52.5169 540.423 53.0866 540.846 53.5098C 541.285 53.9167 541.863 54.1201 542.579 54.1201C 543.246 54.1201 543.8 53.9167 544.239 53.5098C 544.679 53.0866 544.898 52.5169 544.898 51.8008C 544.898 51.1172 544.679 50.5719 544.239 50.165C 543.8 49.7581 543.246 49.5547 542.579 49.5547C 541.863 49.5547 541.285 49.7581 540.846 50.165C 540.423 50.5719 540.211 51.1172 540.211 51.8008ZM 537.574 51.8008C 537.574 50.3197 537.981 49.1722 538.795 48.3584C 539.625 47.5446 540.764 47.1377 542.213 47.1377C 542.424 47.1377 542.66 47.1458 542.921 47.1621C 543.181 47.1784 543.352 47.2028 543.434 47.2354L 543.434 38.4463C 543.434 37.4209 543.312 36.4769 543.067 35.6143C 542.823 34.7516 542.449 34.0029 541.944 33.3682C 541.456 32.7334 540.829 32.2451 540.064 31.9033C 539.316 31.5452 538.429 31.3662 537.403 31.3662C 536.004 31.3662 534.604 31.6185 533.204 32.123C 531.821 32.6276 530.494 33.3356 529.225 34.2471L 527.271 31.3906C 528.655 30.3815 530.177 29.5677 531.837 28.9492C 533.497 28.3145 535.344 27.9971 537.379 27.9971C 539.007 27.9971 540.447 28.2331 541.7 28.7051C 542.97 29.1771 544.036 29.8525 544.898 30.7314C 545.761 31.6104 546.412 32.6764 546.852 33.9297C 547.307 35.1829 547.535 36.5908 547.535 38.1533L 547.535 51.8008C 547.535 53.2656 547.104 54.4049 546.241 55.2188C 545.379 56.0326 544.142 56.4395 542.53 56.4395C 540.951 56.4395 539.731 56.0326 538.868 55.2188C 538.006 54.4049 537.574 53.2656 537.574 51.8008ZM 544.885 17.3525L 548.156 17.3525L 548.156 26.1904L 544.885 26.1904L 544.885 17.3525ZM 574.803 56L 570.701 56L 570.701 38.2021C 570.701 37.1768 570.579 36.249 570.335 35.4189C 570.091 34.5726 569.716 33.8483 569.212 33.2461C 568.724 32.6439 568.097 32.18 567.332 31.8545C 566.583 31.529 565.696 31.3662 564.671 31.3662C 563.271 31.3662 561.863 31.6429 560.447 32.1963C 559.031 32.7497 557.688 33.4821 556.419 34.3936L 554.539 31.3906C 555.923 30.3815 557.444 29.5677 559.104 28.9492C 560.765 28.3145 562.612 27.9971 564.646 27.9971C 566.274 27.9971 567.715 28.2331 568.968 28.7051C 570.237 29.1771 571.303 29.8525 572.166 30.7314C 573.029 31.6104 573.68 32.6764 574.119 33.9297C 574.575 35.1829 574.803 36.5908 574.803 38.1533L 574.803 56ZM 607.65 56L 603.744 56C 603.142 54.1934 602.426 52.5007 601.596 50.9219C 600.782 49.3268 599.887 47.9434 598.91 46.7715C 597.95 45.5833 596.924 44.6475 595.834 43.9639C 594.743 43.2803 593.62 42.9385 592.465 42.9385C 591.798 42.9385 591.179 43.0117 590.609 43.1582C 590.056 43.3047 589.576 43.5244 589.169 43.8174C 588.778 44.1104 588.469 44.4766 588.241 44.916C 588.013 45.3555 587.899 45.8682 587.899 46.4541L 587.899 47.2598C 587.981 47.2272 588.152 47.2028 588.412 47.1865C 588.673 47.1702 588.9 47.1621 589.096 47.1621C 590.561 47.1621 591.7 47.569 592.514 48.3828C 593.327 49.1803 593.734 50.3197 593.734 51.8008C 593.734 53.2656 593.303 54.4049 592.44 55.2188C 591.594 56.0326 590.382 56.4395 588.803 56.4395C 587.191 56.4395 585.954 56.0326 585.092 55.2188C 584.229 54.4049 583.798 53.2656 583.798 51.8008L 583.798 46.4053C 583.798 45.4124 583.944 44.501 584.237 43.6709C 584.547 42.8408 585.019 42.1247 585.653 41.5225C 586.288 40.904 587.094 40.4238 588.07 40.082C 589.063 39.7402 590.243 39.5693 591.61 39.5693C 591.936 39.5693 592.253 39.5856 592.562 39.6182C 592.888 39.6507 593.205 39.6914 593.515 39.7402C 595.614 39.0078 597.405 38.2917 598.886 37.5918C 600.383 36.8919 601.62 36.1514 602.597 35.3701C 601.913 34.0192 600.912 33.0182 599.594 32.3672C 598.292 31.6999 596.754 31.3662 594.979 31.3662C 592.929 31.3662 591.09 31.6348 589.462 32.1719C 587.834 32.709 586.312 33.4495 584.896 34.3936L 582.992 31.3906C 584.49 30.349 586.215 29.527 588.168 28.9248C 590.121 28.3063 592.383 27.9971 594.955 27.9971C 597.348 27.9971 599.407 28.3389 601.132 29.0225C 602.857 29.7061 604.249 30.6989 605.307 32.001C 605.827 30.8454 606.088 29.4701 606.088 27.875L 606.088 26.5322L 610.189 26.5322L 610.189 27.582C 610.189 29.0957 609.962 30.5036 609.506 31.8057C 609.066 33.1077 608.269 34.3366 607.113 35.4922C 607.292 36.0944 607.423 36.7292 607.504 37.3965C 607.602 38.0638 607.65 38.7637 607.65 39.4961L 607.65 56ZM 596.835 40.9609C 597.649 41.4167 598.397 41.9538 599.081 42.5723C 599.765 43.1908 600.391 43.8662 600.961 44.5986C 601.531 45.3148 602.027 46.0716 602.45 46.8691C 602.89 47.6504 603.256 48.4398 603.549 49.2373L 603.549 39.7646C 603.549 39.488 603.541 39.2194 603.524 38.959C 603.508 38.6986 603.484 38.4382 603.451 38.1777C 602.572 38.6823 601.579 39.1624 600.473 39.6182C 599.382 40.0739 598.17 40.5215 596.835 40.9609ZM 591.122 51.8008C 591.122 51.1172 590.902 50.5719 590.463 50.165C 590.04 49.7581 589.47 49.5547 588.754 49.5547C 588.07 49.5547 587.509 49.7581 587.069 50.165C 586.646 50.5719 586.435 51.1172 586.435 51.8008C 586.435 52.5169 586.646 53.0866 587.069 53.5098C 587.509 53.9167 588.07 54.1201 588.754 54.1201C 589.47 54.1201 590.04 53.9167 590.463 53.5098C 590.902 53.0866 591.122 52.5169 591.122 51.8008ZM 608.711 26.5566C 606.904 26.1823 605.155 25.8486 603.462 25.5557C 601.769 25.2627 600.076 25.0186 598.384 24.8232C 596.675 24.6117 594.941 24.457 593.184 24.3594C 591.41 24.2454 589.538 24.1885 587.568 24.1885C 587.829 23.0166 588.236 21.9505 588.789 20.9902C 589.342 20.0299 590.026 19.2161 590.84 18.5488C 591.654 17.8652 592.59 17.3363 593.647 16.9619C 594.689 16.5876 595.845 16.4004 597.114 16.4004C 598.514 16.4004 599.84 16.6038 601.094 17.0107C 602.331 17.4176 603.454 18.0361 604.463 18.8662C 605.472 19.6963 606.343 20.7542 607.075 22.04C 607.808 23.3096 608.353 24.8151 608.711 26.5566ZM 597.041 18.8418C 595.511 18.8418 594.258 19.0941 593.281 19.5986C 592.305 20.0869 591.58 20.8682 591.108 21.9424C 593.729 21.9424 596.276 22.1296 598.75 22.5039C 601.224 22.862 603.503 23.2852 605.586 23.7734C 605.244 23.0247 604.797 22.3493 604.243 21.7471C 603.674 21.1449 603.022 20.6322 602.29 20.209C 601.541 19.7695 600.728 19.4359 599.849 19.208C 598.953 18.9639 598.018 18.8418 597.041 18.8418ZM 606.354 3.80273L 609.625 3.80273L 609.625 12.6406L 606.354 12.6406L 606.354 3.80273ZM 630.559 37.543C 629.094 37.543 627.946 37.1442 627.116 36.3467C 626.302 35.5329 625.896 34.3854 625.896 32.9043C 625.896 31.4395 626.327 30.3001 627.189 29.4863C 628.052 28.6562 629.273 28.2412 630.852 28.2412C 632.463 28.2412 633.7 28.6562 634.562 29.4863C 635.425 30.3001 635.856 31.4395 635.856 32.9043L 635.856 49.8477C 635.856 52.0612 635.319 53.7214 634.245 54.8281C 633.187 55.9349 631.47 56.4883 629.094 56.4883C 627.857 56.4883 626.84 56.3337 626.042 56.0244C 625.244 55.7152 624.569 55.2188 624.016 54.5352C 623.462 53.8516 622.982 52.9645 622.575 51.874C 622.168 50.7835 621.745 49.457 621.306 47.8945C 620.882 46.3483 620.524 45.152 620.231 44.3057C 619.938 43.443 619.654 42.8083 619.377 42.4014C 619.117 41.9782 618.832 41.7259 618.522 41.6445C 618.229 41.5469 617.855 41.498 617.399 41.498L 617.399 38.0068C 618.229 38.0068 618.954 38.0557 619.572 38.1533C 620.191 38.2347 620.728 38.3975 621.184 38.6416C 621.639 38.8695 622.038 39.1868 622.38 39.5938C 622.722 39.9844 623.031 40.4889 623.308 41.1074C 623.601 41.7259 623.877 42.4665 624.138 43.3291C 624.414 44.1917 624.707 45.2008 625.017 46.3564C 625.424 47.8864 625.79 49.1071 626.115 50.0186C 626.441 50.9137 626.758 51.6055 627.067 52.0938C 627.393 52.5658 627.718 52.875 628.044 53.0215C 628.369 53.168 628.736 53.2412 629.143 53.2412C 629.973 53.2412 630.616 53.0215 631.071 52.582C 631.527 52.1263 631.755 51.3451 631.755 50.2383L 631.755 37.4453C 631.674 37.4779 631.503 37.5023 631.242 37.5186C 630.982 37.5348 630.754 37.543 630.559 37.543ZM 628.532 32.9043C 628.532 33.5879 628.744 34.1413 629.167 34.5645C 629.606 34.9714 630.184 35.1748 630.9 35.1748C 631.568 35.1748 632.121 34.9714 632.561 34.5645C 633 34.1413 633.22 33.5879 633.22 32.9043C 633.22 32.1882 633 31.6266 632.561 31.2197C 632.121 30.8128 631.568 30.6094 630.9 30.6094C 630.184 30.6094 629.606 30.8128 629.167 31.2197C 628.744 31.6266 628.532 32.1882 628.532 32.9043ZM 648.318 56L 648.318 37.4453C 648.237 37.4779 648.066 37.5023 647.806 37.5186C 647.562 37.5348 647.334 37.543 647.122 37.543C 645.674 37.543 644.534 37.1442 643.704 36.3467C 642.89 35.5329 642.483 34.3854 642.483 32.9043C 642.483 31.4395 642.915 30.3001 643.777 29.4863C 644.64 28.6562 645.861 28.2412 647.439 28.2412C 649.051 28.2412 650.28 28.6562 651.126 29.4863C 651.989 30.3001 652.42 31.4395 652.42 32.9043L 652.42 52.3379L 661.429 33.4414C 661.917 32.3835 662.389 31.5046 662.845 30.8047C 663.3 30.1048 663.772 29.5514 664.261 29.1445C 664.749 28.7214 665.27 28.4284 665.823 28.2656C 666.393 28.0866 667.028 27.9971 667.728 27.9971C 669.111 27.9971 670.161 28.4772 670.877 29.4375C 671.609 30.3978 671.976 31.8626 671.976 33.832L 671.976 56L 667.874 56L 667.874 33.417C 667.874 32.6846 667.793 32.1556 667.63 31.8301C 667.483 31.5046 667.272 31.3418 666.995 31.3418C 666.718 31.3418 666.401 31.5778 666.043 32.0498C 665.685 32.5055 665.229 33.3193 664.676 34.4912L 654.446 56L 648.318 56ZM 645.12 32.9043C 645.12 33.5879 645.332 34.1413 645.755 34.5645C 646.178 34.9714 646.756 35.1748 647.488 35.1748C 648.156 35.1748 648.709 34.9714 649.148 34.5645C 649.588 34.1413 649.808 33.5879 649.808 32.9043C 649.808 32.1882 649.588 31.6266 649.148 31.2197C 648.709 30.8128 648.156 30.6094 647.488 30.6094C 646.756 30.6094 646.178 30.8128 645.755 31.2197C 645.332 31.6266 645.12 32.1882 645.12 32.9043ZM 673.012 26.5566C 671.205 26.1823 669.455 25.8486 667.763 25.5557C 666.07 25.2627 664.377 25.0186 662.685 24.8232C 660.976 24.6117 659.242 24.457 657.484 24.3594C 655.71 24.2454 653.839 24.1885 651.869 24.1885C 652.13 23.0166 652.536 21.9505 653.09 20.9902C 653.643 20.0299 654.327 19.2161 655.141 18.5488C 655.954 17.8652 656.89 17.3363 657.948 16.9619C 658.99 16.5876 660.146 16.4004 661.415 16.4004C 662.994 16.4004 664.467 16.6527 665.834 17.1572C 667.185 17.6618 668.397 18.443 669.472 19.501L 669.472 14.6914L 672.157 14.6914L 672.157 23.6758C 672.336 24.1152 672.499 24.5791 672.646 25.0674C 672.776 25.5394 672.898 26.0358 673.012 26.5566ZM 661.342 18.8418C 659.812 18.8418 658.559 19.0941 657.582 19.5986C 656.605 20.0869 655.881 20.8682 655.409 21.9424C 658.03 21.9424 660.577 22.1296 663.051 22.5039C 665.525 22.862 667.803 23.2852 669.887 23.7734C 669.545 23.0247 669.097 22.3493 668.544 21.7471C 667.974 21.1449 667.323 20.6322 666.591 20.209C 665.842 19.7695 665.028 19.4359 664.149 19.208C 663.254 18.9639 662.318 18.8418 661.342 18.8418ZM 670.654 3.80273L 673.926 3.80273L 673.926 12.6406L 670.654 12.6406L 670.654 3.80273ZM 692.955 45.3555C 692.792 45.5182 692.516 45.8356 692.125 46.3076C 691.751 46.7796 691.36 47.3981 690.953 48.1631C 690.562 48.9118 690.213 49.8151 689.903 50.873C 689.594 51.9147 689.431 53.0947 689.415 54.4131L 689.415 54.999L 689.415 56L 685.313 56L 685.313 53.0947C 685.313 51.7764 685.265 50.6126 685.167 49.6035C 685.069 48.5781 684.939 47.6504 684.776 46.8203C 684.63 45.9902 684.467 45.2334 684.288 44.5498C 684.109 43.8662 683.938 43.1908 683.775 42.5234C 683.629 41.8561 683.507 41.1807 683.409 40.4971C 683.312 39.7972 683.263 39.0322 683.263 38.2021C 683.263 36.6722 683.556 35.2806 684.142 34.0273C 684.728 32.7741 685.574 31.6999 686.681 30.8047C 687.787 29.9095 689.13 29.2178 690.709 28.7295C 692.304 28.2412 694.103 27.9971 696.104 27.9971C 698.383 27.9971 700.32 28.2738 701.915 28.8271C 703.51 29.3643 704.812 30.1211 705.821 31.0977C 706.83 32.0742 707.563 33.238 708.019 34.5889C 708.474 35.9398 708.702 37.4128 708.702 39.0078L 708.702 56L 704.601 56L 704.601 39.3008C 704.601 38.0638 704.422 36.957 704.063 35.9805C 703.722 34.9876 703.193 34.1494 702.477 33.4658C 701.777 32.766 700.89 32.237 699.815 31.8789C 698.757 31.5046 697.521 31.3174 696.104 31.3174C 694.737 31.3174 693.508 31.4801 692.418 31.8057C 691.344 32.1149 690.424 32.5625 689.659 33.1484C 688.91 33.7344 688.333 34.4505 687.926 35.2969C 687.519 36.127 687.315 37.0628 687.315 38.1045C 687.315 38.8532 687.356 39.5856 687.438 40.3018C 687.519 41.0179 687.625 41.7422 687.755 42.4746C 687.901 43.1908 688.056 43.9232 688.219 44.6719C 688.382 45.4206 688.536 46.21 688.683 47.04C 689.073 45.6891 689.505 44.4277 689.977 43.2559C 690.449 42.084 690.986 41.0667 691.588 40.2041C 692.206 39.3415 692.898 38.666 693.663 38.1777C 694.444 37.6895 695.34 37.4453 696.349 37.4453C 697.927 37.4453 699.148 37.8604 700.011 38.6904C 700.873 39.5042 701.305 40.6436 701.305 42.1084C 701.305 43.5895 700.882 44.737 700.035 45.5508C 699.189 46.3483 697.96 46.7471 696.349 46.7471C 695.616 46.7471 694.941 46.6087 694.322 46.332C 693.72 46.0553 693.264 45.7298 692.955 45.3555ZM 698.668 42.1084C 698.668 41.376 698.448 40.8145 698.009 40.4238C 697.586 40.0169 697.016 39.8135 696.3 39.8135C 695.632 39.8135 695.079 40.0169 694.64 40.4238C 694.2 40.8145 693.98 41.376 693.98 42.1084C 693.98 42.792 694.2 43.3454 694.64 43.7686C 695.079 44.1755 695.632 44.3789 696.3 44.3789C 697.016 44.3789 697.586 44.1755 698.009 43.7686C 698.448 43.3454 698.668 42.792 698.668 42.1084ZM 706.735 68.6953L 706.735 63.959C 706.605 64.0241 706.426 64.0566 706.198 64.0566C 705.254 64.0566 704.554 63.8125 704.099 63.3242C 703.643 62.8522 703.415 62.1768 703.415 61.2979C 703.415 60.4189 703.659 59.7272 704.147 59.2227C 704.619 58.7344 705.417 58.4902 706.54 58.4902C 707.565 58.4902 708.371 58.7344 708.957 59.2227C 709.543 59.7272 709.836 60.4352 709.836 61.3467L 709.836 68.6953L 706.735 68.6953ZM 705.246 61.2979C 705.246 61.6396 705.344 61.9082 705.539 62.1035C 705.734 62.2988 706.019 62.3965 706.394 62.3965C 706.719 62.3965 706.988 62.2988 707.199 62.1035C 707.395 61.9082 707.492 61.6396 707.492 61.2979C 707.492 60.9235 707.395 60.6387 707.199 60.4434C 706.988 60.248 706.719 60.1504 706.394 60.1504C 705.629 60.1504 705.246 60.5329 705.246 61.2979ZM 727.107 51.8008C 727.107 51.1172 726.888 50.5719 726.448 50.165C 726.025 49.7581 725.455 49.5547 724.739 49.5547C 724.056 49.5547 723.494 49.7581 723.055 50.165C 722.632 50.5719 722.42 51.1172 722.42 51.8008C 722.42 52.5169 722.632 53.0866 723.055 53.5098C 723.494 53.9167 724.056 54.1201 724.739 54.1201C 725.455 54.1201 726.025 53.9167 726.448 53.5098C 726.888 53.0866 727.107 52.5169 727.107 51.8008ZM 755.989 28.5098L 755.989 46.3809C 757.129 46.5111 758.097 46.7389 758.895 47.0645C 759.692 47.39 760.343 47.7887 760.848 48.2607C 761.352 48.7327 761.718 49.2699 761.946 49.8721C 762.174 50.4743 762.288 51.1172 762.288 51.8008C 762.288 53.2656 761.849 54.4049 760.97 55.2188C 760.091 56.0326 758.772 56.4395 757.015 56.4395C 756.071 56.4395 755.265 56.3174 754.598 56.0732C 753.947 55.8454 753.418 55.5036 753.011 55.0479C 752.62 54.5758 752.335 53.9899 752.156 53.29C 751.977 52.5902 751.888 51.7764 751.888 50.8486L 751.888 49.1885C 751.074 49.3512 750.244 49.6442 749.397 50.0674C 748.567 50.4906 747.762 51.0114 746.98 51.6299C 746.215 52.2321 745.491 52.9076 744.808 53.6562C 744.124 54.4049 743.538 55.1862 743.05 56L 738.924 56L 738.924 39.3008C 738.924 38.0638 738.769 36.957 738.46 35.9805C 738.151 34.9876 737.679 34.1494 737.044 33.4658C 736.409 32.766 735.604 32.237 734.627 31.8789C 733.65 31.5046 732.487 31.3174 731.136 31.3174C 729.85 31.3174 728.735 31.4639 727.791 31.7568C 726.863 32.0335 726.082 32.4079 725.447 32.8799C 724.812 33.3356 724.308 33.8564 723.934 34.4424C 723.576 35.0283 723.323 35.6143 723.177 36.2002C 723.828 36.2979 724.463 36.4606 725.081 36.6885C 725.7 36.9163 726.269 37.1768 726.79 37.4697C 727.327 37.7627 727.799 38.0801 728.206 38.4219C 728.613 38.7474 728.938 39.0566 729.183 39.3496L 729.183 40.7412C 728.255 40.9365 727.449 41.1807 726.766 41.4736C 726.098 41.7666 725.553 42.141 725.13 42.5967C 724.707 43.0361 724.389 43.5732 724.178 44.208C 723.982 44.8428 723.885 45.5915 723.885 46.4541L 723.885 47.2598C 723.966 47.2272 724.113 47.2028 724.324 47.1865C 724.552 47.1702 724.772 47.1621 724.983 47.1621C 726.497 47.1621 727.661 47.569 728.475 48.3828C 729.305 49.1803 729.72 50.3197 729.72 51.8008C 729.72 53.2656 729.288 54.4049 728.426 55.2188C 727.579 56.0326 726.367 56.4395 724.788 56.4395C 723.177 56.4395 721.94 56.0326 721.077 55.2188C 720.215 54.4049 719.783 53.2656 719.783 51.8008L 719.783 46.4053C 719.783 45.5426 719.881 44.7695 720.076 44.0859C 720.271 43.4023 720.581 42.8083 721.004 42.3037C 721.443 41.7829 722.005 41.3516 722.688 41.0098C 723.372 40.6517 724.202 40.3669 725.179 40.1553C 724.772 39.8135 724.267 39.5205 723.665 39.2764C 723.079 39.0322 722.477 38.8288 721.858 38.666C 721.256 38.5033 720.687 38.3893 720.149 38.3242C 719.629 38.2428 719.238 38.2021 718.978 38.2021C 719.043 36.7048 719.344 35.3294 719.881 34.0762C 720.434 32.8229 721.224 31.7487 722.249 30.8535C 723.274 29.9421 724.528 29.2422 726.009 28.7539C 727.506 28.2493 729.215 27.9971 731.136 27.9971C 733.317 27.9971 735.164 28.2738 736.678 28.8271C 738.191 29.3643 739.412 30.1211 740.34 31.0977C 741.284 32.0742 741.967 33.238 742.391 34.5889C 742.814 35.9398 743.025 37.4128 743.025 39.0078L 743.025 51.1904C 743.546 50.5394 744.148 49.9535 744.832 49.4326C 745.516 48.9118 746.24 48.4561 747.005 48.0654C 747.77 47.6748 748.567 47.3493 749.397 47.0889C 750.228 46.8285 751.058 46.6413 751.888 46.5273L 751.888 28.5098L 755.989 28.5098ZM 759.432 51.8008C 759.432 51.0358 759.155 50.4092 758.602 49.9209C 758.064 49.4163 757.194 49.0745 755.989 48.8955L 755.989 51.6543C 755.989 52.3867 756.111 52.9482 756.355 53.3389C 756.6 53.7132 757.031 53.9004 757.649 53.9004C 758.17 53.9004 758.593 53.7295 758.919 53.3877C 759.261 53.0296 759.432 52.5007 759.432 51.8008ZM 773.383 28.5342L 773.383 47.2354C 773.464 47.2028 773.627 47.1784 773.871 47.1621C 774.132 47.1458 774.368 47.1377 774.579 47.1377C 776.028 47.1377 777.159 47.5446 777.973 48.3584C 778.803 49.1559 779.218 50.2952 779.218 51.7764C 779.218 53.2412 778.786 54.3887 777.924 55.2188C 777.061 56.0326 775.84 56.4395 774.262 56.4395C 772.65 56.4395 771.413 56.0326 770.551 55.2188C 769.704 54.3887 769.281 53.2412 769.281 51.7764L 769.281 28.5342L 773.383 28.5342ZM 776.581 51.7764C 776.581 51.0928 776.369 50.5475 775.946 50.1406C 775.523 49.7337 774.945 49.5303 774.213 49.5303C 773.546 49.5303 772.992 49.7337 772.553 50.1406C 772.113 50.5475 771.894 51.0928 771.894 51.7764C 771.894 52.4925 772.113 53.0622 772.553 53.4854C 772.992 53.8923 773.546 54.0957 774.213 54.0957C 774.945 54.0957 775.523 53.8923 775.946 53.4854C 776.369 53.0622 776.581 52.4925 776.581 51.7764ZM 785.356 32.9043C 785.356 33.5879 785.568 34.1413 785.991 34.5645C 786.414 34.9714 786.992 35.1748 787.725 35.1748C 788.392 35.1748 788.945 34.9714 789.385 34.5645C 789.824 34.1413 790.044 33.5879 790.044 32.9043C 790.044 32.1882 789.824 31.6266 789.385 31.2197C 788.945 30.8128 788.392 30.6094 787.725 30.6094C 786.992 30.6094 786.414 30.8128 785.991 31.2197C 785.568 31.6266 785.356 32.1882 785.356 32.9043ZM 809.6 56L 805.498 56L 805.498 43.7686C 805.498 42.5967 805.392 41.6201 805.181 40.8389C 804.985 40.0576 804.749 39.5531 804.473 39.3252C 803.301 40.3343 802.129 41.4167 800.957 42.5723C 799.801 43.7116 798.703 44.9648 797.661 46.332C 796.619 47.6829 795.667 49.1559 794.805 50.751C 793.942 52.346 793.226 54.0957 792.656 56L 788.555 56L 788.555 37.4453C 788.473 37.4779 788.302 37.5023 788.042 37.5186C 787.798 37.5348 787.57 37.543 787.358 37.543C 785.91 37.543 784.771 37.1442 783.94 36.3467C 783.127 35.5329 782.72 34.3854 782.72 32.9043C 782.72 31.4395 783.151 30.3001 784.014 29.4863C 784.876 28.6562 786.097 28.2412 787.676 28.2412C 789.287 28.2412 790.516 28.6562 791.362 29.4863C 792.225 30.3001 792.656 31.4395 792.656 32.9043L 792.656 48.4805C 793.161 47.4714 793.787 46.4541 794.536 45.4287C 795.301 44.387 796.123 43.3942 797.002 42.4502C 797.897 41.4899 798.817 40.5866 799.761 39.7402C 800.721 38.8939 801.641 38.1533 802.52 37.5186C 802.145 37.2419 801.779 36.9408 801.421 36.6152C 801.079 36.2734 800.77 35.9072 800.493 35.5166C 800.233 35.1097 800.021 34.6784 799.858 34.2227C 799.696 33.7669 799.614 33.2786 799.614 32.7578C 799.614 32.0254 799.728 31.3825 799.956 30.8291C 800.2 30.2594 800.534 29.7874 800.957 29.4131C 801.396 29.0225 801.917 28.7295 802.52 28.5342C 803.138 28.3389 803.822 28.2412 804.57 28.2412C 805.303 28.2412 805.978 28.3389 806.597 28.5342C 807.215 28.7132 807.744 28.9899 808.184 29.3643C 808.639 29.7386 808.989 30.2025 809.233 30.7559C 809.494 31.3092 809.624 31.9521 809.624 32.6846C 809.624 33.6123 809.388 34.4261 808.916 35.126C 808.46 35.8258 807.85 36.485 807.085 37.1035C 807.622 37.5918 808.053 38.0882 808.379 38.5928C 808.721 39.0811 808.981 39.6019 809.16 40.1553C 809.339 40.6924 809.453 41.262 809.502 41.8643C 809.567 42.4665 809.6 43.1094 809.6 43.793L 809.6 56ZM 806.45 32.7578C 806.45 32.123 806.279 31.6348 805.938 31.293C 805.612 30.9349 805.156 30.7559 804.57 30.7559C 803.952 30.7559 803.488 30.9349 803.179 31.293C 802.869 31.651 802.715 32.123 802.715 32.709C 802.715 33.002 802.772 33.2868 802.886 33.5635C 803 33.8239 803.154 34.068 803.35 34.2959C 803.545 34.5238 803.765 34.7354 804.009 34.9307C 804.269 35.1097 804.53 35.2725 804.79 35.4189C 805.213 35.126 805.596 34.7679 805.938 34.3447C 806.279 33.9215 806.45 33.3926 806.45 32.7578ZM 809.732 23.2363C 808.935 23.2363 808.349 23.0085 807.975 22.5527C 807.584 22.0807 807.389 21.5518 807.389 20.9658C 807.389 20.3962 807.576 19.8916 807.95 19.4521C 808.325 19.0127 808.902 18.793 809.684 18.793C 811.458 18.793 812.345 19.7939 812.345 21.7959C 812.345 22.3167 812.271 22.8457 812.125 23.3828C 811.962 23.9036 811.726 24.3757 811.417 24.7988C 811.091 25.2057 810.685 25.5394 810.196 25.7998C 809.692 26.0602 809.106 26.1904 808.438 26.1904C 807.722 26.1904 807.063 26.0602 806.461 25.7998C 805.842 25.5231 805.281 25.2057 804.776 24.8477C 804.256 24.4896 803.792 24.1396 803.385 23.7979C 802.962 23.4561 802.587 23.2119 802.262 23.0654C 801.887 23.6188 801.48 24.1641 801.041 24.7012C 800.602 25.2383 800.17 25.7347 799.747 26.1904C 798.933 26.0928 798.193 25.9056 797.525 25.6289C 796.858 25.3359 796.288 24.9535 795.816 24.4814C 795.344 24.0094 794.978 23.4479 794.718 22.7969C 794.457 22.1296 794.327 21.3727 794.327 20.5264C 794.327 18.8174 794.856 17.5479 795.914 16.7178C 796.956 15.8714 798.364 15.4482 800.138 15.4482L 806.827 15.4482C 807.429 15.4482 808.023 15.432 808.609 15.3994C 809.179 15.3669 809.724 15.318 810.245 15.2529C 810.75 15.1715 811.214 15.082 811.637 14.9844C 812.044 14.8704 812.369 14.7484 812.613 14.6182L 812.613 17.0352C 812.092 17.3607 811.417 17.5804 810.587 17.6943C 809.757 17.792 808.845 17.8408 807.853 17.8408L 800.162 17.8408C 799.625 17.8408 799.177 17.9222 798.819 18.085C 798.445 18.2314 798.152 18.4268 797.94 18.6709C 797.713 18.915 797.55 19.1999 797.452 19.5254C 797.354 19.8509 797.306 20.1846 797.306 20.5264C 797.306 22.0889 797.9 23.0573 799.088 23.4316C 799.495 23.1224 799.91 22.6748 800.333 22.0889C 800.74 21.5029 801.139 20.8844 801.529 20.2334C 802.164 20.3962 802.783 20.6729 803.385 21.0635C 803.987 21.4541 804.573 21.8529 805.143 22.2598C 805.696 22.6667 806.233 23.0247 806.754 23.334C 807.258 23.627 807.747 23.7734 808.219 23.7734C 808.642 23.7734 808.984 23.7083 809.244 23.5781C 809.488 23.4479 809.651 23.334 809.732 23.2363ZM 808.878 21.0146C 808.878 21.2913 808.967 21.5111 809.146 21.6738C 809.309 21.8366 809.537 21.918 809.83 21.918C 810.09 21.918 810.31 21.8366 810.489 21.6738C 810.652 21.5111 810.733 21.2913 810.733 21.0146C 810.733 20.7217 810.652 20.4938 810.489 20.3311C 810.31 20.152 810.09 20.0625 809.83 20.0625C 809.537 20.0625 809.309 20.152 809.146 20.3311C 808.967 20.4938 808.878 20.7217 808.878 21.0146ZM 820.583 32.9043C 820.583 33.5879 820.795 34.1413 821.218 34.5645C 821.641 34.9714 822.219 35.1748 822.951 35.1748C 823.618 35.1748 824.172 34.9714 824.611 34.5645C 825.051 34.1413 825.271 33.5879 825.271 32.9043C 825.271 32.1882 825.051 31.6266 824.611 31.2197C 824.172 30.8128 823.618 30.6094 822.951 30.6094C 822.219 30.6094 821.641 30.8128 821.218 31.2197C 820.795 31.6266 820.583 32.1882 820.583 32.9043ZM 840.822 28.5098L 840.822 46.3809C 841.962 46.5111 842.93 46.7389 843.728 47.0645C 844.525 47.39 845.176 47.7887 845.681 48.2607C 846.185 48.7327 846.551 49.2699 846.779 49.8721C 847.007 50.4743 847.121 51.1172 847.121 51.8008C 847.121 53.2656 846.682 54.4049 845.803 55.2188C 844.924 56.0326 843.605 56.4395 841.848 56.4395C 840.904 56.4395 840.098 56.3174 839.431 56.0732C 838.78 55.8454 838.251 55.5036 837.844 55.0479C 837.453 54.5758 837.168 53.9899 836.989 53.29C 836.81 52.5902 836.721 51.7764 836.721 50.8486L 836.721 49.1885C 835.907 49.3512 835.077 49.6442 834.23 50.0674C 833.4 50.4906 832.595 51.0114 831.813 51.6299C 831.049 52.2321 830.324 52.9076 829.641 53.6562C 828.957 54.4049 828.371 55.1862 827.883 56L 823.781 56L 823.781 37.4453C 823.7 37.4779 823.529 37.5023 823.269 37.5186C 823.024 37.5348 822.797 37.543 822.585 37.543C 821.136 37.543 819.997 37.1442 819.167 36.3467C 818.353 35.5329 817.946 34.3854 817.946 32.9043C 817.946 31.4395 818.378 30.3001 819.24 29.4863C 820.103 28.6562 821.324 28.2412 822.902 28.2412C 824.514 28.2412 825.743 28.6562 826.589 29.4863C 827.451 30.3001 827.883 31.4395 827.883 32.9043L 827.883 51.1904C 828.404 50.5394 828.998 49.9535 829.665 49.4326C 830.349 48.9118 831.073 48.4561 831.838 48.0654C 832.619 47.6748 833.417 47.3493 834.23 47.0889C 835.061 46.8285 835.891 46.6413 836.721 46.5273L 836.721 28.5098L 840.822 28.5098ZM 844.265 51.8008C 844.265 51.0358 843.988 50.4092 843.435 49.9209C 842.897 49.4163 842.027 49.0745 840.822 48.8955L 840.822 51.6543C 840.822 52.3867 840.944 52.9482 841.188 53.3389C 841.433 53.7132 841.864 53.9004 842.482 53.9004C 843.003 53.9004 843.426 53.7295 843.752 53.3877C 844.094 53.0296 844.265 52.5007 844.265 51.8008Z"/>
</defs>
</svg>
