<svg width="1266" height="153" viewBox="0 0 1266 153" xmlns="http://www.w3.org/2000/svg" xmlns:xlink="http://www.w3.org/1999/xlink"><title>Group</title><desc>Created using Figma</desc><g><use xlink:href="#a" transform="translate(1371 1399) translate(-1371 -1399)" fill="#8FC7E8" id="Vector"/><use xlink:href="#b" transform="translate(1371 1399) translate(-1175.32 -1397.73)" fill="#8FC7E8" id="Vector"/><use xlink:href="#c" transform="translate(1371 1399) translate(-1013.8 -1397.73)" fill="#8FC7E8" id="Vector"/><use xlink:href="#d" transform="translate(1371 1399) translate(-863.097 -1398.58)" fill="#8FC7E8" id="Vector"/><use xlink:href="#e" transform="translate(1371 1399) translate(-688.623 -1397.73)" fill="#8FC7E8" id="Vector"/><use xlink:href="#f" transform="translate(1371 1399) translate(-484.969 -1397.73)" fill="#8FC7E8" id="Vector"/><use xlink:href="#g" transform="translate(1371 1399) translate(-407.759 -1397.73)" fill="#8FC7E8" id="Vector"/><use xlink:href="#h" transform="translate(1371 1399) translate(-204.104 -1397.73)" fill="#8FC7E8"/></g><defs><path id="a" d="M131.576 129.331c-13.916 14.793-32.894 23.669-55.245 23.669-41.75 0-76.331-33.39-76.331-76.077 0-42.688 34.581-76.923 76.331-76.923 21.929 0 41.75 8.876 55.667 23.669 1.687 1.691 1.687 3.381 0 4.649l-11.808 9.721c-1.687 1.268-2.952 1.268-4.217 0-8.013-8.453-21.93-17.329-38.799-17.329-34.159-.423-56.089 27.895-56.089 56.213 0 28.317 21.929 55.79 55.667 55.79 16.869 0 30.364-8.453 38.376-16.906 1.687-1.691 2.952-1.691 4.639-.846l11.808 9.721c1.687 1.268 1.687 2.959 0 4.649z"/><path id="b" d="M21.086 20.71v45.646h43.015c1.687 0 3.374 1.268 3.374 3.381v13.948c0 2.113-1.265 3.381-3.374 3.381h-43.015v43.111h74.223c1.687 0 3.374 1.268 3.374 3.381v13.948c0 1.69-1.265 3.381-3.374 3.381h-91.935c-1.687 0-3.374-1.268-3.374-3.381v-144.547c0-1.691 1.265-2.959 2.952-2.959h92.778c1.687 0 3.374 1.268 3.374 2.959v14.37c0 1.691-1.265 2.959-3.374 2.959h-74.644v.423z"/><path id="c" d="M94.043 133.135v14.371c0 1.69-1.265 2.958-2.952 2.958h-88.561c-1.687 0-2.53-1.268-2.53-2.958v-144.547c0-1.691 1.265-2.959 2.952-2.959h15.182c1.687 0 2.952 1.268 2.952 2.959v126.795h69.584c2.109 0 3.374 1.268 3.374 3.381z"/><path id="d" d="M147.027 151.309h-16.869c-1.687 0-2.53-.845-3.374-2.113l-11.808-24.514h-80.97l-11.386 24.514c-.843 1.268-1.687 2.113-3.374 2.113h-16.869c-1.687 0-2.952-1.69-2.109-3.381l70.849-146.237c.422-1.268 1.687-1.691 2.53-1.691h2.53c.843 0 1.687.423 2.53 1.691l70.427 146.237c.422 1.691 0 3.381-2.108 3.381zm-41.329-46.069l-31.207-66.356-31.207 66.356h62.414z"/><path id="e" d="M146.722 3.804l-69.162 144.969c-.422 1.268-1.687 2.536-3.374 2.536h-1.687c-1.687 0-2.952-1.268-3.374-2.536l-68.74-144.969c-1.265-2.113.843-3.804 2.53-3.804h18.977c1.687 0 2.53 1.691 3.374 3.381l48.498 105.663 48.498-105.663c.843-1.691 1.687-3.381 3.373-3.381h18.978c1.687 0 3.374 1.691 2.108 3.804z"/><path id="f" d="M17.712 0c1.687 0 2.952 1.268 2.952 2.959v144.124c0 1.69-1.265 3.381-2.952 3.381h-14.338c-1.687 0-3.374-1.268-3.374-3.381v-144.124c0-1.691 1.265-2.959 2.952-2.959h14.76z"/><path id="g" d="M146.722 3.804l-69.162 144.969c-.422 1.268-1.687 2.536-3.374 2.536h-1.687c-1.687 0-2.952-1.268-3.374-2.536l-68.74-144.969c-1.265-2.113.843-3.804 2.53-3.804h18.977c1.687 0 2.53 1.691 3.374 3.381l48.498 105.663 48.498-105.663c.843-1.691 1.687-3.381 3.373-3.381h18.978c1.687 0 3.374 1.691 2.108 3.804z"/><path id="h" d="M21.508 20.71v45.646h43.015c1.687 0 3.374 1.268 3.374 3.381v13.948c0 2.113-1.265 3.381-3.374 3.381h-43.015v43.111h74.222c1.687 0 3.374 1.268 3.374 3.381v13.948c0 1.69-1.265 3.381-3.374 3.381h-92.356c-1.687 0-3.374-1.268-3.374-3.381v-144.547c0-1.691 1.265-2.959 2.952-2.959h92.778c1.687 0 3.374 1.268 3.374 2.959v14.37c0 1.691-1.265 2.959-3.374 2.959h-74.222v.423z"/></defs></svg>