<svg width="544" height="51" viewBox="0 0 544 51" xmlns="http://www.w3.org/2000/svg" xmlns:xlink="http://www.w3.org/1999/xlink"><title>go beyond what you see</title><desc>Created using Figma</desc><use xlink:href="#a" transform="translate(1004 1220) translate(-1365 -1220)" fill="#8FC7E8"/><defs><path id="a" d="M366.767 24.25c0 2.2 1.15 4.3 2.95 5.6-2.55.5-5.4 2.1-5.4 5.05 0 1.9.85 2.85 2.65 3.45v.15c-2.8 1.25-5.35 3.2-5.35 6.7 0 3.7 4.5 5.8 9.35 5.8 8.85 0 13.2-6.75 13.2-10.95 0-4.85-3.5-5.25-6.7-5.25-2.6 0-5.15.2-7.6.2-3.2 0-3.75-.65-3.75-1.75 0-1.6 2.2-2.65 4.2-3.05.85.45 2.35.75 3.55.75 5.45 0 9.75-4.3 9.75-8.1 0-1-.05-2.05-.5-3.05.45-1.3 1.6-2.95 2.25-2.95.15 0 .4 0 .4.25 0 .2-.15.35-.15.8 0 1.15.6 2 1.95 2 1.5 0 1.95-1.2 1.95-2.1 0-1.1-.55-2.4-2.35-2.4-2.55 0-3.95 2.7-4.35 3.55-1.15-2.2-3.75-3.55-6.05-3.55-4.7 0-10 3.7-10 8.85zm12.95 14.35c1.1 0 2.95.4 2.95 2.75 0 3.7-4.1 8.85-11 8.85-6.05 0-7.95-3.35-7.95-5.4 0-4.45 3.9-6.2 4.6-6.2h11.4zm.6-18.8c0 1.05-1.5 10.35-6.25 10.35-2.2 0-3.7-1.25-3.7-3.5 0-2.5 1.8-10.45 6.45-10.45 2.15 0 3.5 1.35 3.5 3.6zm11.1 9.05c0 4.85 2.6 8.75 8.1 8.75 6 0 12.55-6.05 12.55-14.15 0-5.05-4.15-8.05-7.65-8.05-7.4 0-13 7.2-13 13.45zm12.7-12.65c2.85 0 4.35 1.55 4.35 4 0 2.9-2.7 11.4-4 13.6-.45.7-2 3-5.1 3-2.85 0-4.35-1.95-4.35-4.35 0-2.35 2.7-11 3.75-12.8 1.1-1.9 2.8-3.45 5.35-3.45zm31.466 10.45c-.35 1.25-.75 3-.75 4.55 0 4 3.65 6.4 7.7 6.4 9.5 0 14.25-10 14.25-14.15 0-5.9-3.15-8.05-6.95-8.05-2.9 0-6.4 1.65-8.25 4.4l-.1-.1 5.7-19.45c-1.6.95-3.6 1.25-5.55 1.25h-2.25l-.2.8h3.4l-7 24.35zm17.3-6.15c0 2-2.15 16.3-9.9 16.3-3.3 0-4.65-2.5-4.65-3.85 0-1.85 1.25-10 4.4-13.55 1.7-1.9 4.15-3.2 6.5-3.2 2.95 0 3.65 1.9 3.65 4.3zm26.633 10.75c-.85 1.1-4 5.55-8.3 5.55-3.65 0-4.7-2.55-4.7-5.85 0-1.25.35-3.35.85-5.25 1.2.5 2.5.75 3.8.75 5.65 0 10.35-2.85 10.35-6.7 0-3.15-2.95-4.35-5.45-4.35-6.25 0-13.45 6-13.45 13.7 0 6.45 5.15 8.5 7.85 8.5 5.45 0 8.5-4.55 9.55-6l-.5-.35zm-1.3-12c0 2.05-1.65 6.4-7.05 6.4-1.5 0-2.8-.45-3.6-.7 1.15-3.6 3.15-8.75 7.65-8.75 1.85 0 3 1.3 3 3.05zm19.167 13.1h-.1l-1.5-11.6c-.3-2.45-.7-5.35-3.3-5.35-4.1 0-6.7 5.65-7.35 6.75l.7.25c.6-.95 2.55-4.9 4.25-4.9.95 0 1.2 1.45 1.35 2.45l2.45 17.95c-1.65 3.1-6.3 9.95-10.2 9.95-.55 0-.85-.2-.85-.5 0-.55.85-.75.85-2 0-1.6-.95-2.25-2.1-2.25-1.3 0-2.4 1.1-2.4 2.55 0 1.9 1.5 3.05 3.6 3.05 6.1 0 10.7-8 14.9-15.6l5.75-10.4c2.35-4.25 3.85-5.8 4.25-5.8.15 0 .2.1.2.25 0 .45-.3.8-.3 1.3 0 1.1 1.05 1.75 2 1.75 1.25 0 2.2-.95 2.2-2.25 0-1.8-1-2.55-2.4-2.55-2.6 0-4.15 2.65-6.65 7.2l-5.35 9.75zm15.45-3.5c0 4.85 2.6 8.75 8.1 8.75 6 0 12.55-6.05 12.55-14.15 0-5.05-4.15-8.05-7.65-8.05-7.4 0-13 7.2-13 13.45zm12.7-12.65c2.85 0 4.35 1.55 4.35 4 0 2.9-2.7 11.4-4 13.6-.45.7-2 3-5.1 3-2.85 0-4.35-1.95-4.35-4.35 0-2.35 2.7-11 3.75-12.8 1.1-1.9 2.8-3.45 5.35-3.45zm13.2 20.8h4l3-10.3c2-6.8 8.15-10.5 10.5-10.5 1.35 0 1.9.65 1.9 1.65 0 2.1-4.75 12.65-4.75 15.75 0 2.25.9 3.7 3.25 3.7 3.65 0 6-3.75 7-5.2l-.5-.35c-.8.95-2.85 4.35-5 4.35-.8 0-1.15-.75-1.15-1.55 0-1.25 4.75-12.95 4.75-15.1 0-2.25-1.5-4.05-4.7-4.05-3.9 0-7.7 3.25-9.9 6.9h-.1l2.05-6.9c-2.15.9-4.25 1.1-6.4 1.1h-1.05l-.2.8h3.1l-5.8 19.7zm49.783-34.7h3.4l-4.75 17.15h-.1c-.55-1.55-1.95-4.05-5.65-4.05-5.1 0-12.8 6.1-12.8 13.65 0 5.35 3.1 8.55 7 8.55 4 0 6.3-3.2 7.35-4.6l.1.1c-.3 1.95.55 4.5 2.85 4.5 2.1 0 3.95-1.15 5.15-2.85l1.7-2.35-.6-.35-1.2 1.65c-.65.85-2.15 2.7-3.35 2.7-.85 0-1.25-.55-1.25-1.25-.05-.7.2-1.55.35-2.05l9.8-32.85c-1.6.95-3.6 1.25-5.55 1.25h-2.25l-.2.8zm-16 30.4c-.1-5.3 3.2-16.5 9.8-16.5 2.6 0 4.25 3.15 4.25 4.3 0 1.5-3.55 11.55-4.2 12.45-1.55 2.15-4 3.85-6.4 3.85-2.3 0-3.4-1.7-3.45-4.1zm55.8-4.65c-.05.2-5 8.45-9.2 8.45-.9 0-1.85-.55-1.85-1.5 0-.7.3-1.5.8-3.15l5.1-16.45c-2.15.9-4.25 1.1-6.4 1.1h-1.3l-.2.8h3.1l-4.1 13.5c-.15.45-.6 2.4-.6 3.05 0 2.25 2.1 3.45 4.15 3.45 4.8 0 7.8-3.9 9.65-6.65l.1.1c-.35.85-.55 1.9-.55 2.85 0 3 2.25 3.7 4.7 3.7 7.4 0 14.65-12.8 14.65-18.25 0-1.75-.8-3.65-2.75-3.65-1.5 0-2.45 1.05-2.45 2.55 0 2.95 3.4 1.6 3.4 4.2 0 3.95-6.85 14.35-12.15 14.35-1.15 0-1.8-.65-1.8-1.8 0-.15.1-.6.25-1.2l5.05-17h-3.95l-3.65 11.55zm21.984 8.95h4l3-10.3c2-6.8 8.15-10.5 10.5-10.5 1.35 0 1.9.65 1.9 1.65 0 2.1-4.75 12.65-4.75 15.75 0 2.25.9 3.7 3.25 3.7 3.65 0 6-3.75 7-5.2l-.5-.35c-.8.95-2.85 4.35-5 4.35-.8 0-1.15-.75-1.15-1.55 0-1.25 4.75-12.95 4.75-15.1 0-2.25-1.5-4.05-4.7-4.05-3.9 0-7.7 3.25-9.9 6.9h-.1l6.45-22.05c-1.6.95-3.6 1.25-5.55 1.25h-2.25l-.2.8h3.4l-10.15 34.7zm33.783-4.2c0-3.85 2.95-16.6 9.35-16.6 3.1 0 4.6 2.65 4.6 4.45 0 1-1 3.35-2.25 7.45-1.4 4.65-3.85 8.7-8.1 8.7-2.25 0-3.6-1.35-3.6-4zm19.35-16.3h-3.85l-.95 3.05h-.1c-.35-1.5-1.65-4.15-4.9-4.15-6.25 0-13.45 6.7-13.45 13.7 0 4.65 2.7 8.5 7.45 8.5 2.9 0 5.7-2.45 6.9-4.5h.1c.05 1.55.2 4.5 3.6 4.5 3.2 0 5.4-4.1 6.05-5l-.5-.5c-.7.95-2.9 4.3-4.65 4.3-.8 0-1.2-.6-1.2-1.4 0-.8.3-1.8.55-2.6l4.95-15.9zm7.683 13.6c-.45 1.4-.8 2.65-.8 3.65 0 2.6 1.7 3.55 4.1 3.55 3.8 0 6.95-3.6 9.1-6.3l-.55-.4c-2.35 3.45-5.9 5.9-7.5 5.9-1.05 0-1.55-.7-1.55-1.45s.2-1.7.35-2.25l4.9-15.5h5.85l.25-.8h-5.85l2.6-8.25c-1.3 1-2.85 1.4-4.5 1.4l-2.15 6.85h-3.65l-.25.8h3.65l-4 12.8zm42.966 2.25h-.1l-1.5-11.6c-.3-2.45-.7-5.35-3.3-5.35-4.1 0-6.7 5.65-7.35 6.75l.7.25c.6-.95 2.55-4.9 4.25-4.9.95 0 1.2 1.45 1.35 2.45l2.45 17.95c-1.65 3.1-6.3 9.95-10.2 9.95-.55 0-.85-.2-.85-.5 0-.55.85-.75.85-2 0-1.6-.95-2.25-2.1-2.25-1.3 0-2.4 1.1-2.4 2.55 0 1.9 1.5 3.05 3.6 3.05 6.1 0 10.7-8 14.9-15.6l5.75-10.4c2.35-4.25 3.85-5.8 4.25-5.8.15 0 .2.1.2.25 0 .45-.3.8-.3 1.3 0 1.1 1.05 1.75 2 1.75 1.25 0 2.2-.95 2.2-2.25 0-1.8-1-2.55-2.4-2.55-2.6 0-4.15 2.65-6.65 7.2l-5.35 9.75zm15.45-3.5c0 4.85 2.6 8.75 8.1 8.75 6 0 12.55-6.05 12.55-14.15 0-5.05-4.15-8.05-7.65-8.05-7.4 0-13 7.2-13 13.45zm12.7-12.65c2.85 0 4.35 1.55 4.35 4 0 2.9-2.7 11.4-4 13.6-.45.7-2 3-5.1 3-2.85 0-4.35-1.95-4.35-4.35 0-2.35 2.7-11 3.75-12.8 1.1-1.9 2.8-3.45 5.35-3.45zm36.95.3h-4.05l-3.05 9.5c-1.8 5.65-7.6 10.5-10.45 10.5-1.3 0-1.95-.65-1.95-1.7 0-.3.2-1.15.5-2.05l5.6-17.35c-2.15.9-4.25 1.1-6.4 1.1h-1.35l-.2.8h3.2l-4.15 12.6c-.25.85-.8 2.75-.8 3.6 0 3.2 2.15 3.8 4.5 3.8 3.95 0 7.1-2.95 10.15-6.95h.1c-.35 1.2-.9 2.8-.9 3.7 0 2.05 1.4 3.25 3.5 3.25 3.35 0 5.05-2.45 6.65-5l-.6-.35c-1.65 2.45-2.75 4.15-4.55 4.15-.95 0-1.4-.75-1.4-1.2 0-.4.1-1.3.4-2.15l5.25-16.25zm25.15 5.8c0 5.3 6.2 6.15 6.2 10.35 0 2.75-2.15 4.15-4.7 4.15-2.95 0-3.7-1.15-3.7-1.85 0-1.5 2.45-.8 2.45-3.3 0-.9-.75-2.1-2.25-2.1s-2.55 1.45-2.55 3c0 1.8 1.45 5.05 5.9 5.05 5.75 0 8.45-3.6 8.45-6.6 0-6.45-6.8-6.3-6.8-10.55 0-3.35 2.25-4.25 4.25-4.25 1.65 0 2.15.45 2.15 1.05-.7.45-1.65 1.1-1.65 2.45 0 1.05.65 2.1 2.1 2.1 1.3 0 2.4-.8 2.4-2.35 0-2.25-1.7-4.05-4.8-4.05-4.55 0-7.45 4.3-7.45 6.9zm34.233 8.95c-.85 1.1-4 5.55-8.3 5.55-3.65 0-4.7-2.55-4.7-5.85 0-1.25.35-3.35.85-5.25 1.2.5 2.5.75 3.8.75 5.65 0 10.35-2.85 10.35-6.7 0-3.15-2.95-4.35-5.45-4.35-6.25 0-13.45 6-13.45 13.7 0 6.45 5.15 8.5 7.85 8.5 5.45 0 8.5-4.55 9.55-6l-.5-.35zm-1.3-12c0 2.05-1.65 6.4-7.05 6.4-1.5 0-2.8-.45-3.6-.7 1.15-3.6 3.15-8.75 7.65-8.75 1.85 0 3 1.3 3 3.05zm25.017 12c-.85 1.1-4 5.55-8.3 5.55-3.65 0-4.7-2.55-4.7-5.85 0-1.25.35-3.35.85-5.25 1.2.5 2.5.75 3.8.75 5.65 0 10.35-2.85 10.35-6.7 0-3.15-2.95-4.35-5.45-4.35-6.25 0-13.45 6-13.45 13.7 0 6.45 5.15 8.5 7.85 8.5 5.45 0 8.5-4.55 9.55-6l-.5-.35zm-1.3-12c0 2.05-1.65 6.4-7.05 6.4-1.5 0-2.8-.45-3.6-.7 1.15-3.6 3.15-8.75 7.65-8.75 1.85 0 3 1.3 3 3.05z"/></defs></svg>