<?xml version="1.0" encoding="UTF-8" standalone="no"?>
<svg width="372px" height="79px" viewBox="0 0 372 79" version="1.1" xmlns="http://www.w3.org/2000/svg" xmlns:xlink="http://www.w3.org/1999/xlink">
    <!-- Generator: Sketch 43.2 (39069) - http://www.bohemiancoding.com/sketch -->
    <title>USANA Logo</title>
    <desc>Created with Sketch.</desc>
    <defs></defs>
    <g id="Page-1" stroke="none" stroke-width="1" fill="none" fill-rule="evenodd">
        <g id="USANA-Logo" fill="#FFFFFF">
            <path d="M338.4604,0.9389 C320.0454,0.9389 305.1164,15.8679 305.1164,34.2839 L305.1164,77.6309 L321.7894,77.6309 L321.7894,34.2839 C321.7894,25.0759 329.2524,17.6119 338.4604,17.6119 C347.6684,17.6119 355.1324,25.0759 355.1324,34.2839 L355.1324,47.2049 L326.4944,47.2049 L329.0034,61.6539 L355.1324,61.6539 L355.1324,77.6309 L371.8044,77.6309 L371.8044,34.2839 C371.8044,15.8679 356.8754,0.9389 338.4604,0.9389 M182.8544,0.9389 C164.4384,0.9389 149.5104,15.8679 149.5104,34.2839 L149.5104,77.6309 L166.1824,77.6309 L166.1824,34.2839 C166.1824,25.0759 173.6464,17.6119 182.8544,17.6119 C192.0624,17.6119 199.5254,25.0759 199.5254,34.2839 L199.5254,47.2049 L170.8884,47.2049 L173.3974,61.6539 L199.5254,61.6539 L199.5254,77.6309 L216.1974,77.6309 L216.1974,34.2839 C216.1974,15.8679 201.2694,0.9389 182.8544,0.9389" id="Fill-1"></path>
            <path d="M67.2612,45.3988 C67.2612,63.8148 52.3322,78.7428 33.9152,78.7428 C15.5012,78.7428 0.5722,63.8148 0.5722,45.3988 L0.5722,2.0508 L17.2442,2.0508 L17.2442,45.3988 C17.2442,54.6068 24.7092,62.0698 33.9152,62.0698 C43.1242,62.0698 50.5882,54.6068 50.5882,45.3988 L50.5882,2.0508 L67.2612,2.0508 L67.2612,45.3988 Z" id="Fill-3"></path>
            <path d="M294.0015,77.6313 L277.3295,77.6313 L277.3295,34.2833 C277.3295,25.0753 269.8655,17.6113 260.6585,17.6113 C251.4505,17.6113 243.9855,25.0753 243.9855,34.2833 L243.9855,77.6313 L227.3135,77.6313 L227.3135,34.2833 C227.3135,15.8673 242.2425,0.9393 260.6585,0.9393 C279.0725,0.9393 294.0015,15.8673 294.0015,34.2833 L294.0015,77.6313 Z" id="Fill-5"></path>
            <path d="M118.7114,77.6313 L75.7244,77.6313 L75.5964,77.6313 L75.7244,77.6313 L78.4264,62.0693 L118.1404,62.0723 C122.2684,62.0723 125.6134,58.7283 125.6134,54.6023 C125.6134,50.4763 122.2684,47.1303 118.1404,47.1303 L98.1394,47.1343 C85.6904,47.1343 75.5964,37.0433 75.5964,24.5923 C75.5964,12.1443 85.6904,2.0513 98.1394,2.0513 L132.3574,2.0513 L135.0604,17.6113 L98.6954,17.6113 C95.1454,17.6113 92.2694,20.4883 92.2694,24.0393 C92.2694,27.5893 95.1454,30.4673 98.6954,30.4673 L118.7114,30.4633 C131.7364,30.4633 142.2954,41.0223 142.2954,54.0473 C142.2954,67.0703 131.7364,77.6313 118.7114,77.6313" id="Fill-7"></path>
        </g>
    </g>
</svg>